<svg width="151" height="151" viewBox="0 0 151 151" fill="none" xmlns="http://www.w3.org/2000/svg">
<g filter="url(#filter0_dd_272_1833)">
<mask id="mask0_272_1833" style="mask-type:alpha" maskUnits="userSpaceOnUse" x="6" y="13" width="139" height="117">
<path d="M23.5123 129.669H127.688C133.608 129.669 136.567 129.669 138.829 128.516C140.817 127.503 142.434 125.886 143.448 123.897C144.6 121.636 144.6 118.676 144.6 112.756V41.4664C144.6 35.5466 144.6 32.5867 143.448 30.3256C142.434 28.3367 140.817 26.7197 138.829 25.7063C136.567 24.5542 133.608 24.5542 127.688 24.5542H70.5351C67.3787 24.5542 63.3415 24.2606 59.3776 21.251C55.4138 18.2415 58.7904 20.8106 54.6064 17.5808C50.4223 14.3511 48.2886 13.6904 44.6234 13.6904H23.5123C17.5924 13.6904 14.6325 13.6904 12.3714 14.8425C10.3825 15.8559 8.76546 17.4729 7.75206 19.4618C6.59998 21.7229 6.59998 24.6828 6.59998 30.6027V112.756C6.59998 118.676 6.59998 121.636 7.75206 123.897C8.76546 125.886 10.3825 127.503 12.3714 128.516C14.6325 129.669 17.5924 129.669 23.5123 129.669Z" fill="url(#paint0_linear_272_1833)"/>
</mask>
<g mask="url(#mask0_272_1833)">
<path d="M23.5123 129.669H127.688C133.608 129.669 136.567 129.669 138.829 128.516C140.817 127.503 142.434 125.886 143.448 123.897C144.6 121.636 144.6 118.676 144.6 112.756V41.4664C144.6 35.5466 144.6 32.5867 143.448 30.3256C142.434 28.3367 140.817 26.7197 138.829 25.7063C136.567 24.5542 133.608 24.5542 127.688 24.5542H70.5351C67.3787 24.5542 63.3415 24.2606 59.3776 21.251C55.4138 18.2415 58.7904 20.8106 54.6064 17.5808C50.4223 14.3511 48.2886 13.6904 44.6234 13.6904H23.5123C17.5924 13.6904 14.6325 13.6904 12.3714 14.8425C10.3825 15.8559 8.76546 17.4729 7.75206 19.4618C6.59998 21.7229 6.59998 24.6828 6.59998 30.6027V112.756C6.59998 118.676 6.59998 121.636 7.75206 123.897C8.76546 125.886 10.3825 127.503 12.3714 128.516C14.6325 129.669 17.5924 129.669 23.5123 129.669Z" fill="white"/>
<g filter="url(#filter1_dii_272_1833)">
<rect x="6.59998" y="33.3643" width="138" height="96.3059" rx="10.5702" fill="white"/>
</g>
<g style="mix-blend-mode:hard-light">
<path d="M58.6614 109.39C55.7018 109.39 52.8615 108.889 50.1406 107.886C47.4197 106.836 44.9852 105.285 42.8371 103.232C40.7367 101.132 39.066 98.5299 37.8249 95.4271C36.5838 92.3243 35.9632 88.6726 35.9632 84.4719C35.9632 80.3666 36.5838 76.7626 37.8249 73.6598C39.066 70.557 40.7606 67.9793 42.9087 65.9267C45.0568 63.8263 47.4913 62.251 50.2122 61.2009C52.9331 60.1507 55.7495 59.6256 58.6614 59.6256C61.621 59.6256 64.4374 60.1507 67.1106 61.2009C69.8315 62.2033 72.266 63.7308 74.4141 65.7835C76.5622 67.8361 78.2568 70.4377 79.4979 73.5882C80.739 76.691 81.3596 80.3189 81.3596 84.4719C81.3596 88.6249 80.739 92.2527 79.4979 95.3555C78.2568 98.4583 76.5622 101.06 74.4141 103.16C72.3137 105.213 69.9031 106.764 67.1822 107.814C64.4612 108.865 61.621 109.39 58.6614 109.39ZM58.6614 105.237C61.0959 105.237 63.0292 104.33 64.4612 102.516C65.941 100.702 67.0151 98.2435 67.6834 95.1407C68.3517 91.9902 68.6858 88.4339 68.6858 84.4719C68.6858 80.5098 68.3517 76.9774 67.6834 73.8746C67.0151 70.7718 65.941 68.3134 64.4612 66.4995C63.0292 64.6855 61.0959 63.7786 58.6614 63.7786C56.2746 63.7786 54.3413 64.6855 52.8615 66.4995C51.3817 68.3134 50.3077 70.7718 49.6394 73.8746C48.9711 76.9774 48.6369 80.5098 48.6369 84.4719C48.6369 88.4339 48.9711 91.9902 49.6394 95.1407C50.3077 98.2435 51.3817 100.702 52.8615 102.516C54.3413 104.33 56.2746 105.237 58.6614 105.237ZM84.4726 64.8526V60.986H121.491L121.993 73.3018H116.05L114.618 64.9958H102.159C102.111 67.7167 102.063 70.4615 102.015 73.2302C102.015 75.9988 102.015 78.7914 102.015 81.6077H109.963L110.823 76.0227H114.976V92.1334H110.823L109.892 85.8323H102.015C102.015 89.0306 102.015 92.0857 102.015 94.9975C102.063 97.8617 102.111 100.702 102.159 103.518L108.531 104.163V108.029H84.4726V104.163L89.8429 103.59C89.9383 100.678 89.9861 97.7423 89.9861 94.7827C89.9861 91.8231 89.9861 88.8397 89.9861 85.8323V83.183C89.9861 80.2234 89.9861 77.2638 89.9861 74.3042C89.9861 71.2969 89.9383 68.3373 89.8429 65.4254L84.4726 64.8526Z" fill="black"/>
</g>
</g>
</g>
<defs>
<filter id="filter0_dd_272_1833" x="-3.61493" y="-2.13849" width="158.43" height="159.835" filterUnits="userSpaceOnUse" color-interpolation-filters="sRGB">
<feFlood flood-opacity="0" result="BackgroundImageFix"/>
<feColorMatrix in="SourceAlpha" type="matrix" values="0 0 0 0 0 0 0 0 0 0 0 0 0 0 0 0 0 0 127 0" result="hardAlpha"/>
<feMorphology radius="0.936645" operator="erode" in="SourceAlpha" result="effect1_dropShadow_272_1833"/>
<feOffset dy="3.74658"/>
<feGaussianBlur stdDeviation="2.34161"/>
<feComposite in2="hardAlpha" operator="out"/>
<feColorMatrix type="matrix" values="0 0 0 0 0.0313726 0 0 0 0 0.0156863 0 0 0 0 0.00784314 0 0 0 0.08 0"/>
<feBlend mode="normal" in2="BackgroundImageFix" result="effect1_dropShadow_272_1833"/>
<feColorMatrix in="SourceAlpha" type="matrix" values="0 0 0 0 0 0 0 0 0 0 0 0 0 0 0 0 0 0 127 0" result="hardAlpha"/>
<feMorphology radius="0.468322" operator="dilate" in="SourceAlpha" result="effect2_dropShadow_272_1833"/>
<feOffset dy="1.87329"/>
<feGaussianBlur stdDeviation="1.87329"/>
<feComposite in2="hardAlpha" operator="out"/>
<feColorMatrix type="matrix" values="0 0 0 0 0.0313726 0 0 0 0 0.014902 0 0 0 0 0.00784314 0 0 0 0.16 0"/>
<feBlend mode="normal" in2="effect1_dropShadow_272_1833" result="effect2_dropShadow_272_1833"/>
<feBlend mode="normal" in="SourceGraphic" in2="effect2_dropShadow_272_1833" result="shape"/>
</filter>
<filter id="filter1_dii_272_1833" x="-2.79574" y="21.6196" width="156.791" height="115.097" filterUnits="userSpaceOnUse" color-interpolation-filters="sRGB">
<feFlood flood-opacity="0" result="BackgroundImageFix"/>
<feColorMatrix in="SourceAlpha" type="matrix" values="0 0 0 0 0 0 0 0 0 0 0 0 0 0 0 0 0 0 127 0" result="hardAlpha"/>
<feOffset dy="-2.34893"/>
<feGaussianBlur stdDeviation="4.69786"/>
<feComposite in2="hardAlpha" operator="out"/>
<feColorMatrix type="matrix" values="0 0 0 0 0.37413 0 0 0 0 0.38571 0 0 0 0 0.392114 0 0 0 0.5 0"/>
<feBlend mode="multiply" in2="BackgroundImageFix" result="effect1_dropShadow_272_1833"/>
<feBlend mode="normal" in="SourceGraphic" in2="effect1_dropShadow_272_1833" result="shape"/>
<feColorMatrix in="SourceAlpha" type="matrix" values="0 0 0 0 0 0 0 0 0 0 0 0 0 0 0 0 0 0 127 0" result="hardAlpha"/>
<feOffset dy="-4.69786"/>
<feGaussianBlur stdDeviation="9.39572"/>
<feComposite in2="hardAlpha" operator="arithmetic" k2="-1" k3="1"/>
<feColorMatrix type="matrix" values="0 0 0 0 0.369425 0 0 0 0 0.38612 0 0 0 0 0.395353 0 0 0 0.3 0"/>
<feBlend mode="multiply" in2="shape" result="effect2_innerShadow_272_1833"/>
<feColorMatrix in="SourceAlpha" type="matrix" values="0 0 0 0 0 0 0 0 0 0 0 0 0 0 0 0 0 0 127 0" result="hardAlpha"/>
<feOffset dy="0.880849"/>
<feGaussianBlur stdDeviation="0.440424"/>
<feComposite in2="hardAlpha" operator="arithmetic" k2="-1" k3="1"/>
<feColorMatrix type="matrix" values="0 0 0 0 1 0 0 0 0 1 0 0 0 0 1 0 0 0 0.2 0"/>
<feBlend mode="normal" in2="effect2_innerShadow_272_1833" result="effect3_innerShadow_272_1833"/>
</filter>
<linearGradient id="paint0_linear_272_1833" x1="75.6" y1="20.7372" x2="75.6" y2="136.715" gradientUnits="userSpaceOnUse">
<stop stop-color="#5BB1E0"/>
<stop offset="0.229272" stop-color="#0591DE"/>
</linearGradient>
</defs>
</svg>
