<svg width="417" height="80" viewBox="0 0 417 80" fill="none" xmlns="http://www.w3.org/2000/svg">
<g filter="url(#filter0_dd_272_1798)">
<mask id="mask0_272_1798" style="mask-type:alpha" maskUnits="userSpaceOnUse" x="3" y="2" width="88" height="73">
<path d="M14.2131 74.7809H79.5869C83.3018 74.7809 85.1593 74.7809 86.5782 74.0579C87.8263 73.4219 88.8411 72.4072 89.477 71.1591C90.2 69.7402 90.2 67.8827 90.2 64.1678V19.4306C90.2 15.7156 90.2 13.8582 89.477 12.4392C88.841 11.1911 87.8263 10.1764 86.5782 9.54042C85.1593 8.81745 83.3018 8.81745 79.5869 8.81745H43.7216C41.7408 8.81745 39.2073 8.63319 36.7199 6.74458C34.2324 4.85596 36.3514 6.46819 33.7257 4.44138C31.1001 2.41457 29.7611 2 27.461 2H14.2131C10.4981 2 8.64068 2 7.22176 2.72298C5.97365 3.35892 4.9589 4.37367 4.32295 5.62179C3.59998 7.0407 3.59998 8.89817 3.59998 12.6131V64.1678C3.59998 67.8827 3.59998 69.7402 4.32295 71.1591C4.9589 72.4072 5.97365 73.4219 7.22176 74.0579C8.64068 74.7809 10.4981 74.7809 14.2131 74.7809Z" fill="url(#paint0_linear_272_1798)"/>
</mask>
<g mask="url(#mask0_272_1798)">
<path d="M14.2131 74.7809H79.5869C83.3018 74.7809 85.1593 74.7809 86.5782 74.0579C87.8263 73.4219 88.8411 72.4072 89.477 71.1591C90.2 69.7402 90.2 67.8827 90.2 64.1678V19.4306C90.2 15.7156 90.2 13.8582 89.477 12.4392C88.841 11.1911 87.8263 10.1764 86.5782 9.54042C85.1593 8.81745 83.3018 8.81745 79.5869 8.81745H43.7216C41.7408 8.81745 39.2073 8.63319 36.7199 6.74458C34.2324 4.85596 36.3514 6.46819 33.7257 4.44138C31.1001 2.41457 29.7611 2 27.461 2H14.2131C10.4981 2 8.64068 2 7.22176 2.72298C5.97365 3.35892 4.9589 4.37367 4.32295 5.62179C3.59998 7.0407 3.59998 8.89817 3.59998 12.6131V64.1678C3.59998 67.8827 3.59998 69.7402 4.32295 71.1591C4.9589 72.4072 5.97365 73.4219 7.22176 74.0579C8.64068 74.7809 10.4981 74.7809 14.2131 74.7809Z" fill="white"/>
<g filter="url(#filter1_dii_272_1798)">
<rect x="3.59998" y="14.3457" width="86.6" height="60.4358" rx="6.63319" fill="white"/>
</g>
<g style="mix-blend-mode:hard-light">
<path d="M36.2704 61.5412C34.4131 61.5412 32.6308 61.2267 30.9233 60.5976C29.2158 59.9386 27.688 58.965 26.34 57.6769C25.022 56.3589 23.9735 54.7263 23.1947 52.7792C22.4158 50.832 22.0264 48.5404 22.0264 45.9043C22.0264 43.3281 22.4158 41.0665 23.1947 39.1193C23.9735 37.1722 25.037 35.5546 26.385 34.2665C27.733 32.9484 29.2607 31.9599 30.9682 31.3009C32.6757 30.6418 34.4431 30.3123 36.2704 30.3123C38.1276 30.3123 39.895 30.6418 41.5726 31.3009C43.28 31.9299 44.8078 32.8885 46.1558 34.1766C47.5038 35.4647 48.5672 37.0973 49.3461 39.0744C50.1249 41.0215 50.5144 43.2982 50.5144 45.9043C50.5144 48.5105 50.1249 50.7871 49.3461 52.7342C48.5672 54.6814 47.5038 56.314 46.1558 57.632C44.8377 58.9201 43.325 59.8937 41.6175 60.5527C39.91 61.2117 38.1276 61.5412 36.2704 61.5412ZM36.2704 58.9351C37.7981 58.9351 39.0113 58.3659 39.91 57.2276C40.8386 56.0893 41.5126 54.5466 41.932 52.5994C42.3514 50.6224 42.5611 48.3906 42.5611 45.9043C42.5611 43.418 42.3514 41.2013 41.932 39.2541C41.5126 37.307 40.8386 35.7643 39.91 34.626C39.0113 33.4876 37.7981 32.9185 36.2704 32.9185C34.7726 32.9185 33.5594 33.4876 32.6308 34.626C31.7021 35.7643 31.0281 37.307 30.6087 39.2541C30.1894 41.2013 29.9797 43.418 29.9797 45.9043C29.9797 48.3906 30.1894 50.6224 30.6087 52.5994C31.0281 54.5466 31.7021 56.0893 32.6308 57.2276C33.5594 58.3659 34.7726 58.9351 36.2704 58.9351ZM52.4679 33.5925V31.1661H75.6986L76.0132 38.8947H72.2837L71.385 33.6824H63.5665C63.5366 35.3898 63.5066 37.1123 63.4767 38.8497C63.4767 40.5872 63.4767 42.3396 63.4767 44.107H68.4643L69.0035 40.6021H71.6097V50.7122H69.0035L68.4194 46.7581H63.4767C63.4767 48.7651 63.4767 50.6823 63.4767 52.5096C63.5066 54.3069 63.5366 56.0893 63.5665 57.8567L67.5656 58.2611V60.6875H52.4679V58.2611L55.8379 57.9016C55.8979 56.0743 55.9278 54.232 55.9278 52.3748C55.9278 50.5175 55.9278 48.6453 55.9278 46.7581V45.0955C55.9278 43.2383 55.9278 41.381 55.9278 39.5237C55.9278 37.6365 55.8979 35.7793 55.8379 33.952L52.4679 33.5925Z" fill="black"/>
</g>
</g>
</g>
<path d="M125.773 58.9309C123.635 58.9309 121.553 58.5255 119.525 57.7145C117.498 56.8667 115.673 55.6319 114.051 54.01C112.43 52.3881 111.139 50.3791 110.181 47.9831C109.259 45.5503 108.799 42.7488 108.799 39.5788C108.799 36.5561 109.278 33.8468 110.236 31.4509C111.195 29.0549 112.466 27.0275 114.051 25.3688C115.673 23.71 117.498 22.4567 119.525 21.6089C121.553 20.7242 123.635 20.2819 125.773 20.2819C127.911 20.2819 129.975 20.7058 131.966 21.5536C133.993 22.3646 135.8 23.581 137.385 25.2029C139.006 26.8248 140.297 28.8337 141.255 31.2297C142.213 33.6257 142.693 36.4087 142.693 39.5788C142.693 42.6014 142.213 45.3107 141.255 47.7067C140.333 50.1027 139.062 52.1485 137.44 53.8441C135.855 55.5028 134.049 56.7746 132.021 57.6592C129.994 58.507 127.911 58.9309 125.773 58.9309ZM125.773 56.1663C127.69 56.1663 129.33 55.7056 130.694 54.784C132.095 53.8257 133.219 52.5724 134.067 51.0242C134.952 49.4392 135.597 47.6698 136.002 45.7162C136.408 43.7257 136.61 41.6799 136.61 39.5788C136.61 37.5145 136.408 35.5056 136.002 33.552C135.597 31.5614 134.952 29.7737 134.067 28.1886C133.219 26.6036 132.095 25.3503 130.694 24.4288C129.33 23.5073 127.69 23.0465 125.773 23.0465C123.856 23.0465 122.198 23.5073 120.797 24.4288C119.433 25.3503 118.309 26.6036 117.424 28.1886C116.54 29.7737 115.876 31.5614 115.434 33.552C115.028 35.5056 114.825 37.5145 114.825 39.5788C114.825 41.6799 115.028 43.7257 115.434 45.7162C115.876 47.6698 116.54 49.4392 117.424 51.0242C118.309 52.5724 119.433 53.8257 120.797 54.784C122.198 55.7056 123.856 56.1663 125.773 56.1663ZM146.952 58.1016V56.1111L151.043 55.337C151.08 53.9362 151.099 52.4249 151.099 50.803C151.136 49.1811 151.154 47.7435 151.154 46.4903V43.8363C151.154 42.3249 151.136 41.0717 151.099 40.0764C151.099 39.0811 151.062 38.0306 150.988 36.9248L146.62 36.4271V34.4919L154.361 31.1191L155.19 31.672L155.633 36.0954C156.997 34.6209 158.563 33.4229 160.332 32.5014C162.102 31.5799 163.834 31.1191 165.53 31.1191C167.926 31.1191 169.695 31.9301 170.838 33.552C172.017 35.137 172.607 37.7357 172.607 41.3481V46.4903C172.607 47.7435 172.607 49.1811 172.607 50.803C172.644 52.4249 172.681 53.9362 172.718 55.337L176.588 56.1111V58.1016H163.761V56.1111L167.852 55.337C167.889 53.9731 167.907 52.4802 167.907 50.8583C167.944 49.1996 167.963 47.7435 167.963 46.4903V41.7904C167.963 39.247 167.594 37.4961 166.857 36.5377C166.157 35.5793 164.995 35.1001 163.374 35.1001C162.12 35.1001 160.904 35.3582 159.724 35.8742C158.545 36.3903 157.255 37.2381 155.854 38.4176V46.4903C155.854 47.7067 155.854 49.1443 155.854 50.803C155.891 52.4249 155.928 53.9362 155.964 55.337L159.78 56.1111V58.1016H146.952ZM192.592 33.6625C191.56 33.6625 190.51 33.9574 189.441 34.5472C188.409 35.137 187.505 36.077 186.731 37.3671C185.994 38.6572 185.515 40.3713 185.294 42.5092H195.357C196.684 42.5092 197.55 42.2328 197.956 41.6799C198.398 41.1269 198.619 40.445 198.619 39.6341C198.619 38.5651 198.343 37.5883 197.79 36.7036C197.274 35.7821 196.555 35.0448 195.633 34.4919C194.749 33.939 193.735 33.6625 192.592 33.6625ZM192.537 58.8204C188.814 58.8204 185.828 57.6224 183.58 55.2264C181.331 52.7935 180.207 49.4576 180.207 45.2185C180.207 42.3802 180.778 39.9105 181.921 37.8094C183.1 35.7083 184.649 34.068 186.565 32.8885C188.519 31.7089 190.639 31.1191 192.924 31.1191C194.841 31.1191 196.573 31.543 198.121 32.3908C199.67 33.2386 200.904 34.4551 201.826 36.0401C202.748 37.5883 203.208 39.4866 203.208 41.7352C203.208 42.3618 203.171 42.9516 203.098 43.5045C203.024 44.0206 202.932 44.4629 202.821 44.8315H185.183C185.257 48.2227 186.105 50.803 187.727 52.5724C189.348 54.3417 191.486 55.2264 194.14 55.2264C195.91 55.2264 197.384 54.8762 198.564 54.1758C199.743 53.4386 200.831 52.4986 201.826 51.3559L203.153 52.4065C202.121 54.3601 200.72 55.9267 198.951 57.1063C197.181 58.249 195.044 58.8204 192.537 58.8204ZM220.137 23.3782V21.1113H247.672L248.059 30.8979H244.907L243.691 23.8759H230.697C230.661 26.235 230.624 28.5941 230.587 30.9532C230.587 33.3124 230.587 35.6346 230.587 37.92H239.157L239.931 32.6673H242.475V46.2691H239.931L239.157 40.5187H230.587C230.587 43.2465 230.587 45.8083 230.587 48.2043C230.624 50.6003 230.661 52.941 230.697 55.2264L235.84 55.8346V58.1016H220.137V55.8346L225.224 55.2264C225.297 52.9041 225.334 50.545 225.334 48.149C225.334 45.753 225.334 43.3571 225.334 40.9611V38.2518C225.334 35.8558 225.334 33.4782 225.334 31.1191C225.334 28.7231 225.297 26.3456 225.224 23.9865L220.137 23.3782ZM262.053 58.8204C259.915 58.8204 257.869 58.3227 255.915 57.3275C253.999 56.2954 252.432 54.7656 251.215 52.7382C249.999 50.674 249.391 48.1306 249.391 45.108C249.391 42.0485 249.999 39.4866 251.215 37.4224C252.432 35.3213 253.999 33.7547 255.915 32.7226C257.869 31.6536 259.915 31.1191 262.053 31.1191C264.191 31.1191 266.218 31.6536 268.135 32.7226C270.088 33.7547 271.673 35.3213 272.89 37.4224C274.143 39.4866 274.77 42.0485 274.77 45.108C274.77 48.1306 274.143 50.674 272.89 52.7382C271.673 54.7656 270.088 56.2954 268.135 57.3275C266.218 58.3227 264.191 58.8204 262.053 58.8204ZM262.053 56.3322C264.449 56.3322 266.292 55.3923 267.582 53.5123C268.872 51.5955 269.517 48.7941 269.517 45.108C269.517 41.385 268.872 38.5467 267.582 36.593C266.292 34.6394 264.449 33.6625 262.053 33.6625C259.657 33.6625 257.814 34.6394 256.524 36.593C255.27 38.5467 254.644 41.385 254.644 45.108C254.644 48.7941 255.27 51.5955 256.524 53.5123C257.814 55.3923 259.657 56.3322 262.053 56.3322ZM277.538 58.1016V56.1111L281.961 55.337C281.998 53.8257 282.017 52.3512 282.017 50.9136C282.053 49.4392 282.072 47.9647 282.072 46.4903V22.2171L277.538 21.6642V19.729L286.163 17.2408L286.938 17.6832L286.716 25.5346V46.4903C286.716 47.9647 286.716 49.4392 286.716 50.9136C286.753 52.3881 286.79 53.8625 286.827 55.337L291.25 56.1111V58.1016H277.538ZM299.536 45.108C299.536 48.7204 300.255 51.3928 301.692 53.1253C303.167 54.8209 305.01 55.6687 307.221 55.6687C308.438 55.6687 309.507 55.4291 310.428 54.9499C311.387 54.4339 312.382 53.6045 313.414 52.4618V37.1459C312.161 36.0401 311.037 35.2844 310.041 34.879C309.046 34.4735 308.088 34.2708 307.166 34.2708C305.802 34.2708 304.531 34.6578 303.351 35.4319C302.208 36.1691 301.287 37.3487 300.586 38.9706C299.886 40.5556 299.536 42.6014 299.536 45.108ZM313.967 58.6545L313.58 54.8393C312.622 56.0926 311.516 57.0694 310.263 57.7698C309.046 58.4702 307.572 58.8204 305.839 58.8204C303.591 58.8204 301.619 58.249 299.923 57.1063C298.227 55.9636 296.9 54.3786 295.942 52.3512C295.02 50.287 294.56 47.9094 294.56 45.2185C294.56 42.3802 295.076 39.9105 296.108 37.8094C297.14 35.7083 298.541 34.068 300.31 32.8885C302.079 31.7089 304.088 31.1191 306.337 31.1191C307.627 31.1191 308.862 31.3771 310.041 31.8932C311.258 32.4093 312.437 33.3492 313.58 34.7131V22.2171L308.88 21.6642V19.729L317.506 17.2408L318.28 17.6832L318.059 25.5346V55.4476L322.537 56.1111V58.1016L313.967 58.6545ZM337.764 33.6625C336.732 33.6625 335.681 33.9574 334.612 34.5472C333.58 35.137 332.677 36.077 331.903 37.3671C331.166 38.6572 330.686 40.3713 330.465 42.5092H340.528C341.855 42.5092 342.722 42.2328 343.127 41.6799C343.569 41.1269 343.791 40.445 343.791 39.6341C343.791 38.5651 343.514 37.5883 342.961 36.7036C342.445 35.7821 341.726 35.0448 340.805 34.4919C339.92 33.939 338.906 33.6625 337.764 33.6625ZM337.708 58.8204C333.985 58.8204 331 57.6224 328.751 55.2264C326.503 52.7935 325.378 49.4576 325.378 45.2185C325.378 42.3802 325.95 39.9105 327.092 37.8094C328.272 35.7083 329.82 34.068 331.737 32.8885C333.691 31.7089 335.81 31.1191 338.096 31.1191C340.012 31.1191 341.745 31.543 343.293 32.3908C344.841 33.2386 346.076 34.4551 346.997 36.0401C347.919 37.5883 348.38 39.4866 348.38 41.7352C348.38 42.3618 348.343 42.9516 348.269 43.5045C348.195 44.0206 348.103 44.4629 347.993 44.8315H330.355C330.428 48.2227 331.276 50.803 332.898 52.5724C334.52 54.3417 336.658 55.2264 339.312 55.2264C341.081 55.2264 342.556 54.8762 343.735 54.1758C344.915 53.4386 346.002 52.4986 346.997 51.3559L348.325 52.4065C347.292 54.3601 345.892 55.9267 344.122 57.1063C342.353 58.249 340.215 58.8204 337.708 58.8204ZM352.845 58.1016V56.1111L356.827 55.3923C356.863 53.9915 356.882 52.4802 356.882 50.8583C356.919 49.1996 356.937 47.7435 356.937 46.4903V43.8363C356.937 42.3249 356.919 41.0717 356.882 40.0764C356.882 39.0811 356.845 38.0306 356.771 36.9248L352.403 36.4271V34.4919L360.144 31.1191L360.973 31.672L361.582 38.1965C362.503 35.9848 363.683 34.2523 365.12 32.999C366.595 31.7458 368.069 31.1191 369.544 31.1191C370.391 31.1191 371.184 31.3034 371.921 31.672C372.658 32.0406 373.193 32.5383 373.525 33.1649C373.525 35.8558 372.437 37.2012 370.262 37.2012C369.636 37.2012 369.046 37.0906 368.493 36.8695C367.94 36.6114 367.406 36.2613 366.89 35.8189L366.226 35.2107C365.12 36.0217 364.199 37.0169 363.462 38.1965C362.724 39.376 362.116 40.7583 361.637 42.3434V46.4903C361.637 47.7067 361.637 49.1258 361.637 50.7477C361.674 52.3696 361.711 53.8809 361.747 55.2817L366.281 56.1111V58.1016H352.845Z" fill="white"/>
<defs>
<filter id="filter0_dd_272_1798" x="0.954964" y="0.530549" width="91.89" height="78.9529" filterUnits="userSpaceOnUse" color-interpolation-filters="sRGB">
<feFlood flood-opacity="0" result="BackgroundImageFix"/>
<feColorMatrix in="SourceAlpha" type="matrix" values="0 0 0 0 0 0 0 0 0 0 0 0 0 0 0 0 0 0 127 0" result="hardAlpha"/>
<feMorphology radius="0.58778" operator="erode" in="SourceAlpha" result="effect1_dropShadow_272_1798"/>
<feOffset dy="2.35112"/>
<feGaussianBlur stdDeviation="1.46945"/>
<feComposite in2="hardAlpha" operator="out"/>
<feColorMatrix type="matrix" values="0 0 0 0 0.0313726 0 0 0 0 0.0156863 0 0 0 0 0.00784314 0 0 0 0.08 0"/>
<feBlend mode="normal" in2="BackgroundImageFix" result="effect1_dropShadow_272_1798"/>
<feColorMatrix in="SourceAlpha" type="matrix" values="0 0 0 0 0 0 0 0 0 0 0 0 0 0 0 0 0 0 127 0" result="hardAlpha"/>
<feMorphology radius="0.29389" operator="dilate" in="SourceAlpha" result="effect2_dropShadow_272_1798"/>
<feOffset dy="1.17556"/>
<feGaussianBlur stdDeviation="1.17556"/>
<feComposite in2="hardAlpha" operator="out"/>
<feColorMatrix type="matrix" values="0 0 0 0 0.0313726 0 0 0 0 0.014902 0 0 0 0 0.00784314 0 0 0 0.16 0"/>
<feBlend mode="normal" in2="effect1_dropShadow_272_1798" result="effect2_dropShadow_272_1798"/>
<feBlend mode="normal" in="SourceGraphic" in2="effect2_dropShadow_272_1798" result="shape"/>
</filter>
<filter id="filter1_dii_272_1798" x="-2.2962" y="6.97549" width="98.3923" height="72.2279" filterUnits="userSpaceOnUse" color-interpolation-filters="sRGB">
<feFlood flood-opacity="0" result="BackgroundImageFix"/>
<feColorMatrix in="SourceAlpha" type="matrix" values="0 0 0 0 0 0 0 0 0 0 0 0 0 0 0 0 0 0 127 0" result="hardAlpha"/>
<feOffset dy="-1.47404"/>
<feGaussianBlur stdDeviation="2.94809"/>
<feComposite in2="hardAlpha" operator="out"/>
<feColorMatrix type="matrix" values="0 0 0 0 0.372136 0 0 0 0 0.386451 0 0 0 0 0.394368 0 0 0 0.5 0"/>
<feBlend mode="multiply" in2="BackgroundImageFix" result="effect1_dropShadow_272_1798"/>
<feBlend mode="normal" in="SourceGraphic" in2="effect1_dropShadow_272_1798" result="shape"/>
<feColorMatrix in="SourceAlpha" type="matrix" values="0 0 0 0 0 0 0 0 0 0 0 0 0 0 0 0 0 0 127 0" result="hardAlpha"/>
<feOffset dy="-2.94809"/>
<feGaussianBlur stdDeviation="5.89617"/>
<feComposite in2="hardAlpha" operator="arithmetic" k2="-1" k3="1"/>
<feColorMatrix type="matrix" values="0 0 0 0 0.346679 0 0 0 0 0.356405 0 0 0 0 0.361785 0 0 0 0.3 0"/>
<feBlend mode="multiply" in2="shape" result="effect2_innerShadow_272_1798"/>
<feColorMatrix in="SourceAlpha" type="matrix" values="0 0 0 0 0 0 0 0 0 0 0 0 0 0 0 0 0 0 127 0" result="hardAlpha"/>
<feOffset dy="0.552766"/>
<feGaussianBlur stdDeviation="0.276383"/>
<feComposite in2="hardAlpha" operator="arithmetic" k2="-1" k3="1"/>
<feColorMatrix type="matrix" values="0 0 0 0 0 0 0 0 0 0 0 0 0 0 0 0 0 0 0.2 0"/>
<feBlend mode="normal" in2="effect2_innerShadow_272_1798" result="effect3_innerShadow_272_1798"/>
</filter>
<linearGradient id="paint0_linear_272_1798" x1="46.9" y1="6.42213" x2="46.9" y2="79.203" gradientUnits="userSpaceOnUse">
<stop stop-color="#5BB1E0"/>
<stop offset="0.229272" stop-color="#0591DE"/>
</linearGradient>
</defs>
</svg>
