<svg width="151" height="151" viewBox="0 0 151 151" fill="none" xmlns="http://www.w3.org/2000/svg">
<g filter="url(#filter0_dd_272_1816)">
<mask id="mask0_272_1816" style="mask-type:alpha" maskUnits="userSpaceOnUse" x="21" y="8" width="109" height="92">
<path d="M35.0369 99.2564H116.163C120.773 99.2564 123.078 99.2564 124.839 98.3563C126.388 97.5646 127.647 96.3012 128.436 94.7473C129.333 92.9808 129.333 90.6683 129.333 86.0432V30.3455C129.333 25.7204 129.333 23.4079 128.436 21.6413C127.647 20.0874 126.388 18.8241 124.839 18.0323C123.078 17.1322 120.773 17.1322 116.163 17.1322H71.6557C69.1977 17.1322 66.0537 16.9028 62.9669 14.5515C59.8801 12.2002 62.5096 14.2074 59.2513 11.684C55.993 9.16068 54.3314 8.64453 51.4771 8.64453H35.0369C30.4269 8.64453 28.1218 8.64453 26.361 9.54463C24.8121 10.3364 23.5529 11.5997 22.7637 13.1536C21.8665 14.9202 21.8665 17.2327 21.8665 21.8578V86.0432C21.8665 90.6682 21.8665 92.9808 22.7637 94.7473C23.5529 96.3012 24.8121 97.5646 26.361 98.3563C28.1218 99.2564 30.4269 99.2564 35.0369 99.2564Z" fill="url(#paint0_linear_272_1816)"/>
</mask>
<g mask="url(#mask0_272_1816)">
<path d="M35.0369 99.2564H116.163C120.773 99.2564 123.078 99.2564 124.839 98.3563C126.388 97.5646 127.647 96.3012 128.436 94.7473C129.333 92.9808 129.333 90.6683 129.333 86.0432V30.3455C129.333 25.7204 129.333 23.4079 128.436 21.6413C127.647 20.0874 126.388 18.8241 124.839 18.0323C123.078 17.1322 120.773 17.1322 116.163 17.1322H71.6557C69.1977 17.1322 66.0537 16.9028 62.9669 14.5515C59.8801 12.2002 62.5096 14.2074 59.2513 11.684C55.993 9.16068 54.3314 8.64453 51.4771 8.64453H35.0369C30.4269 8.64453 28.1218 8.64453 26.361 9.54463C24.8121 10.3364 23.5529 11.5997 22.7637 13.1536C21.8665 14.9202 21.8665 17.2327 21.8665 21.8578V86.0432C21.8665 90.6682 21.8665 92.9808 22.7637 94.7473C23.5529 96.3012 24.8121 97.5646 26.361 98.3563C28.1218 99.2564 30.4269 99.2564 35.0369 99.2564Z" fill="white"/>
<g filter="url(#filter1_dii_272_1816)">
<rect x="21.8665" y="24.0156" width="107.467" height="75.2423" rx="8.2449" fill="white"/>
</g>
<g style="mix-blend-mode:hard-light">
<path d="M62.441 83.4401C60.1324 83.4401 57.917 83.0491 55.7946 82.2672C53.6723 81.448 51.7733 80.2379 50.0978 78.6369C48.4595 76.9985 47.1563 74.9693 46.1882 72.549C45.2201 70.1288 44.736 67.2804 44.736 64.0038C44.736 60.8016 45.2201 57.9904 46.1882 55.5702C47.1563 53.15 48.4781 51.1393 50.1536 49.5382C51.8292 47.8999 53.7281 46.6712 55.8505 45.852C57.9728 45.0329 60.1697 44.6233 62.441 44.6233C64.7495 44.6233 66.9463 45.0329 69.0314 45.852C71.1538 46.634 73.0527 47.8255 74.7283 49.4265C76.4038 51.0276 77.7256 53.0569 78.6937 55.5144C79.6618 57.9346 80.1459 60.7644 80.1459 64.0038C80.1459 67.2432 79.6618 70.073 78.6937 72.4932C77.7256 74.9134 76.4038 76.9427 74.7283 78.581C73.09 80.1821 71.2096 81.3922 69.0873 82.2114C66.9649 83.0305 64.7495 83.4401 62.441 83.4401ZM62.441 80.2007C64.3399 80.2007 65.8479 79.4932 66.9649 78.0783C68.1192 76.6634 68.957 74.7459 69.4782 72.3256C69.9995 69.8682 70.2602 67.0942 70.2602 64.0038C70.2602 60.9133 69.9995 58.158 69.4782 55.7378C68.957 53.3175 68.1192 51.4 66.9649 49.9851C65.8479 48.5702 64.3399 47.8627 62.441 47.8627C60.5792 47.8627 59.0713 48.5702 57.917 49.9851C56.7627 51.4 55.925 53.3175 55.4037 55.7378C54.8824 58.158 54.6218 60.9133 54.6218 64.0038C54.6218 67.0942 54.8824 69.8682 55.4037 72.3256C55.925 74.7459 56.7627 76.6634 57.917 78.0783C59.0713 79.4932 60.5792 80.2007 62.441 80.2007ZM82.5741 48.7005V45.6845H111.449L111.84 55.2909H107.205L106.088 48.8122H96.3694C96.3322 50.9345 96.2949 53.0755 96.2577 55.2351C96.2577 57.3947 96.2577 59.5729 96.2577 61.7697H102.457L103.127 57.4133H106.367V69.9799H103.127L102.401 65.065H96.2577C96.2577 67.5597 96.2577 69.9426 96.2577 72.2139C96.2949 74.448 96.3322 76.6634 96.3694 78.8603L101.34 79.3629V82.3789H82.5741V79.3629L86.763 78.9161C86.8374 76.6448 86.8747 74.3549 86.8747 72.0464C86.8747 69.7379 86.8747 67.4107 86.8747 65.065V62.9984C86.8747 60.6899 86.8747 58.3814 86.8747 56.0729C86.8747 53.7271 86.8374 51.4186 86.763 49.1473L82.5741 48.7005Z" fill="black"/>
</g>
</g>
</g>
<path d="M25.7748 134.204C24.8121 134.204 23.8883 134.041 23.0033 133.715C22.1182 133.374 21.3264 132.869 20.6277 132.201C19.9445 131.518 19.4011 130.672 18.9974 129.663C18.5937 128.653 18.3918 127.466 18.3918 126.099C18.3918 124.764 18.5937 123.592 18.9974 122.583C19.4011 121.573 19.9523 120.735 20.651 120.067C21.3497 119.384 22.1415 118.872 23.0265 118.53C23.9116 118.188 24.8276 118.018 25.7748 118.018C26.7374 118.018 27.6535 118.188 28.523 118.53C29.408 118.856 30.1999 119.353 30.8986 120.021C31.5973 120.688 32.1485 121.534 32.5522 122.559C32.9559 123.568 33.1577 124.748 33.1577 126.099C33.1577 127.45 32.9559 128.63 32.5522 129.639C32.1485 130.649 31.5973 131.495 30.8986 132.178C30.2154 132.846 29.4313 133.35 28.5463 133.692C27.6613 134.033 26.7374 134.204 25.7748 134.204ZM25.7748 132.853C26.5666 132.853 27.1955 132.558 27.6613 131.968C28.1426 131.378 28.4919 130.579 28.7093 129.57C28.9267 128.545 29.0354 127.388 29.0354 126.099C29.0354 124.811 28.9267 123.662 28.7093 122.652C28.4919 121.643 28.1426 120.844 27.6613 120.254C27.1955 119.664 26.5666 119.368 25.7748 119.368C24.9984 119.368 24.3696 119.664 23.8883 120.254C23.4069 120.844 23.0576 121.643 22.8402 122.652C22.6229 123.662 22.5142 124.811 22.5142 126.099C22.5142 127.388 22.6229 128.545 22.8402 129.57C23.0576 130.579 23.4069 131.378 23.8883 131.968C24.3696 132.558 24.9984 132.853 25.7748 132.853ZM34.3722 133.762V132.667L35.6299 132.388C35.6454 131.829 35.6532 131.223 35.6532 130.571C35.6532 129.919 35.6532 129.352 35.6532 128.871V127.52C35.6532 126.883 35.6454 126.394 35.6299 126.053C35.6299 125.696 35.6144 125.284 35.5833 124.818L34.1626 124.609V123.7L38.7508 122.14L39.17 122.396L39.3097 124.073C39.9153 123.359 40.513 122.862 41.103 122.583C41.7086 122.288 42.3529 122.14 43.0361 122.14C44.0453 122.14 44.8527 122.474 45.4583 123.141C46.0793 123.809 46.3899 124.811 46.3899 126.146V128.871C46.3899 129.383 46.3899 129.965 46.3899 130.618C46.3899 131.254 46.3976 131.86 46.4132 132.434L47.5777 132.667V133.762H41.4291V132.667L42.6402 132.411C42.6557 131.836 42.6635 131.231 42.6635 130.594C42.6635 129.942 42.6635 129.368 42.6635 128.871V126.425C42.6635 125.68 42.5625 125.16 42.3607 124.865C42.1589 124.554 41.8328 124.399 41.3825 124.399C40.777 124.399 40.1093 124.679 39.3796 125.238V128.871C39.3796 129.352 39.3796 129.927 39.3796 130.594C39.3796 131.246 39.3873 131.86 39.4029 132.434L40.4975 132.667V133.762H34.3722ZM54.2668 123.351C53.8321 123.351 53.4284 123.623 53.0557 124.166C52.6986 124.694 52.4968 125.672 52.4502 127.101H54.4298C54.9888 127.101 55.3614 126.992 55.5478 126.775C55.7496 126.542 55.8505 126.161 55.8505 125.634C55.8505 124.857 55.6953 124.283 55.3847 123.91C55.0742 123.537 54.7016 123.351 54.2668 123.351ZM54.3134 134.111C53.1799 134.111 52.1785 133.878 51.309 133.412C50.4395 132.931 49.7563 132.248 49.2595 131.363C48.7626 130.462 48.5142 129.391 48.5142 128.149C48.5142 126.845 48.8014 125.75 49.3759 124.865C49.9659 123.964 50.719 123.289 51.635 122.839C52.5511 122.373 53.506 122.14 54.4997 122.14C55.5245 122.14 56.394 122.357 57.1082 122.792C57.8379 123.227 58.3891 123.817 58.7618 124.562C59.1344 125.292 59.3207 126.13 59.3207 127.077C59.3207 127.528 59.2742 127.939 59.181 128.312H52.4502C52.5278 129.538 52.8616 130.447 53.4517 131.037C54.0572 131.611 54.7637 131.899 55.571 131.899C56.2076 131.899 56.7511 131.782 57.2013 131.549C57.6516 131.301 58.0476 130.998 58.3891 130.641L59.2043 131.386C58.723 132.302 58.0708 132.985 57.2479 133.436C56.425 133.886 55.4468 134.111 54.3134 134.111ZM65.2679 119.718V118.46H77.3088L77.4718 122.466H75.5388L75.073 119.764H71.0205C71.005 120.649 70.9895 121.542 70.9739 122.443C70.9739 123.343 70.9739 124.252 70.9739 125.168H73.5591L73.8386 123.351H75.1894V128.591H73.8386L73.5358 126.542H70.9739C70.9739 127.582 70.9739 128.576 70.9739 129.523C70.9895 130.455 71.005 131.378 71.0205 132.294L73.0933 132.504V133.762H65.2679V132.504L67.0146 132.318C67.0457 131.371 67.0612 130.416 67.0612 129.453C67.0612 128.49 67.0612 127.52 67.0612 126.542V125.68C67.0612 124.717 67.0612 123.755 67.0612 122.792C67.0612 121.814 67.0457 120.851 67.0146 119.904L65.2679 119.718ZM83.1166 134.111C81.9055 134.111 80.8574 133.863 79.9724 133.366C79.0874 132.853 78.4042 132.147 77.9229 131.246C77.4416 130.33 77.2009 129.275 77.2009 128.079C77.2009 126.883 77.4571 125.843 77.9695 124.958C78.4974 124.073 79.2116 123.382 80.1122 122.885C81.0127 122.388 82.0142 122.14 83.1166 122.14C84.219 122.14 85.2127 122.381 86.0977 122.862C86.9982 123.343 87.7125 124.034 88.2404 124.935C88.7683 125.82 89.0322 126.868 89.0322 128.079C89.0322 129.29 88.7916 130.346 88.3102 131.246C87.8289 132.147 87.1457 132.853 86.2607 133.366C85.3757 133.863 84.3276 134.111 83.1166 134.111ZM83.1166 132.9C83.7687 132.9 84.2578 132.52 84.5838 131.759C84.9099 130.998 85.0729 129.795 85.0729 128.149C85.0729 126.487 84.9099 125.276 84.5838 124.516C84.2578 123.755 83.7687 123.374 83.1166 123.374C82.4489 123.374 81.9521 123.755 81.626 124.516C81.2999 125.276 81.1369 126.487 81.1369 128.149C81.1369 129.795 81.2999 130.998 81.626 131.759C81.9521 132.52 82.4489 132.9 83.1166 132.9ZM89.9988 133.762V132.667L91.2797 132.388C91.2952 131.798 91.303 131.208 91.303 130.618C91.3185 130.028 91.3263 129.445 91.3263 128.871V119.112L89.8823 118.879V117.901L94.7732 116.853L95.1458 117.086L95.0527 120.347V128.871C95.0527 129.461 95.0527 130.051 95.0527 130.641C95.0682 131.231 95.0837 131.821 95.0993 132.411L96.3802 132.667V133.762H89.9988ZM101.3 128.195C101.3 129.469 101.525 130.439 101.975 131.107C102.426 131.759 103.008 132.085 103.722 132.085C104.25 132.085 104.731 131.906 105.166 131.549V124.609C104.747 124.283 104.289 124.12 103.792 124.12C103.078 124.12 102.48 124.453 101.999 125.121C101.533 125.789 101.3 126.814 101.3 128.195ZM105.469 134.018L105.283 132.69C104.382 133.638 103.287 134.111 101.999 134.111C101.129 134.111 100.337 133.886 99.6232 133.436C98.9245 132.985 98.3733 132.326 97.9696 131.456C97.5659 130.571 97.364 129.5 97.364 128.242C97.364 126.969 97.6047 125.882 98.086 124.981C98.5829 124.065 99.2195 123.367 99.9958 122.885C100.788 122.388 101.618 122.14 102.488 122.14C103.093 122.14 103.621 122.249 104.072 122.466C104.522 122.668 104.933 122.971 105.306 123.374V119.112L103.676 118.879V117.901L108.59 116.853L108.962 117.086L108.869 120.347V132.434L110.011 132.667V133.762L105.469 134.018ZM116.712 123.351C116.277 123.351 115.874 123.623 115.501 124.166C115.144 124.694 114.942 125.672 114.896 127.101H116.875C117.434 127.101 117.807 126.992 117.993 126.775C118.195 126.542 118.296 126.161 118.296 125.634C118.296 124.857 118.141 124.283 117.83 123.91C117.52 123.537 117.147 123.351 116.712 123.351ZM116.759 134.111C115.625 134.111 114.624 133.878 113.754 133.412C112.885 132.931 112.202 132.248 111.705 131.363C111.208 130.462 110.96 129.391 110.96 128.149C110.96 126.845 111.247 125.75 111.821 124.865C112.411 123.964 113.164 123.289 114.08 122.839C114.997 122.373 115.951 122.14 116.945 122.14C117.97 122.14 118.839 122.357 119.554 122.792C120.283 123.227 120.835 123.817 121.207 124.562C121.58 125.292 121.766 126.13 121.766 127.077C121.766 127.528 121.72 127.939 121.626 128.312H114.896C114.973 129.538 115.307 130.447 115.897 131.037C116.503 131.611 117.209 131.899 118.016 131.899C118.653 131.899 119.196 131.782 119.647 131.549C120.097 131.301 120.493 130.998 120.835 130.641L121.65 131.386C121.168 132.302 120.516 132.985 119.693 133.436C118.87 133.886 117.892 134.111 116.759 134.111ZM122.825 133.762V132.667L124.106 132.411C124.122 131.836 124.13 131.223 124.13 130.571C124.13 129.919 124.13 129.352 124.13 128.871V127.497C124.13 127.062 124.122 126.705 124.106 126.425C124.106 126.146 124.099 125.89 124.083 125.657C124.083 125.408 124.075 125.129 124.06 124.818L122.639 124.609V123.7L127.227 122.14L127.647 122.396L127.856 125.144C128.182 124.151 128.64 123.405 129.23 122.909C129.82 122.396 130.402 122.14 130.977 122.14C131.489 122.14 131.932 122.288 132.305 122.583C132.677 122.862 132.91 123.289 133.003 123.863C132.988 124.469 132.825 124.943 132.514 125.284C132.204 125.61 131.815 125.773 131.35 125.773C130.697 125.773 130.1 125.408 129.556 124.679L129.417 124.492C129.075 124.818 128.757 125.23 128.462 125.727C128.182 126.224 127.98 126.744 127.856 127.287V128.871C127.856 129.352 127.856 129.903 127.856 130.524C127.856 131.145 127.864 131.728 127.879 132.271L129.719 132.667V133.762H122.825Z" fill="white"/>
<defs>
<filter id="filter0_dd_272_1816" x="18.5788" y="6.81804" width="114.042" height="98.2836" filterUnits="userSpaceOnUse" color-interpolation-filters="sRGB">
<feFlood flood-opacity="0" result="BackgroundImageFix"/>
<feColorMatrix in="SourceAlpha" type="matrix" values="0 0 0 0 0 0 0 0 0 0 0 0 0 0 0 0 0 0 127 0" result="hardAlpha"/>
<feMorphology radius="0.730596" operator="erode" in="SourceAlpha" result="effect1_dropShadow_272_1816"/>
<feOffset dy="2.92239"/>
<feGaussianBlur stdDeviation="1.82649"/>
<feComposite in2="hardAlpha" operator="out"/>
<feColorMatrix type="matrix" values="0 0 0 0 0.0313726 0 0 0 0 0.0156863 0 0 0 0 0.00784314 0 0 0 0.08 0"/>
<feBlend mode="normal" in2="BackgroundImageFix" result="effect1_dropShadow_272_1816"/>
<feColorMatrix in="SourceAlpha" type="matrix" values="0 0 0 0 0 0 0 0 0 0 0 0 0 0 0 0 0 0 127 0" result="hardAlpha"/>
<feMorphology radius="0.365298" operator="dilate" in="SourceAlpha" result="effect2_dropShadow_272_1816"/>
<feOffset dy="1.46119"/>
<feGaussianBlur stdDeviation="1.46119"/>
<feComposite in2="hardAlpha" operator="out"/>
<feColorMatrix type="matrix" values="0 0 0 0 0.0313726 0 0 0 0 0.014902 0 0 0 0 0.00784314 0 0 0 0.16 0"/>
<feBlend mode="normal" in2="effect1_dropShadow_272_1816" result="effect2_dropShadow_272_1816"/>
<feBlend mode="normal" in="SourceGraphic" in2="effect2_dropShadow_272_1816" result="shape"/>
</filter>
<filter id="filter1_dii_272_1816" x="14.5377" y="14.8546" width="122.125" height="89.8998" filterUnits="userSpaceOnUse" color-interpolation-filters="sRGB">
<feFlood flood-opacity="0" result="BackgroundImageFix"/>
<feColorMatrix in="SourceAlpha" type="matrix" values="0 0 0 0 0 0 0 0 0 0 0 0 0 0 0 0 0 0 127 0" result="hardAlpha"/>
<feOffset dy="-1.8322"/>
<feGaussianBlur stdDeviation="3.6644"/>
<feComposite in2="hardAlpha" operator="out"/>
<feColorMatrix type="matrix" values="0 0 0 0 0.312123 0 0 0 0 0.327029 0 0 0 0 0.335273 0 0 0 0.5 0"/>
<feBlend mode="multiply" in2="BackgroundImageFix" result="effect1_dropShadow_272_1816"/>
<feBlend mode="normal" in="SourceGraphic" in2="effect1_dropShadow_272_1816" result="shape"/>
<feColorMatrix in="SourceAlpha" type="matrix" values="0 0 0 0 0 0 0 0 0 0 0 0 0 0 0 0 0 0 127 0" result="hardAlpha"/>
<feOffset dy="-3.6644"/>
<feGaussianBlur stdDeviation="7.3288"/>
<feComposite in2="hardAlpha" operator="arithmetic" k2="-1" k3="1"/>
<feColorMatrix type="matrix" values="0 0 0 0 0.220116 0 0 0 0 0.229005 0 0 0 0 0.23392 0 0 0 0.3 0"/>
<feBlend mode="multiply" in2="shape" result="effect2_innerShadow_272_1816"/>
<feColorMatrix in="SourceAlpha" type="matrix" values="0 0 0 0 0 0 0 0 0 0 0 0 0 0 0 0 0 0 127 0" result="hardAlpha"/>
<feOffset dy="0.687075"/>
<feGaussianBlur stdDeviation="0.343537"/>
<feComposite in2="hardAlpha" operator="arithmetic" k2="-1" k3="1"/>
<feColorMatrix type="matrix" values="0 0 0 0 0.762095 0 0 0 0 0.755157 0 0 0 0 0.755157 0 0 0 0.2 0"/>
<feBlend mode="normal" in2="effect2_innerShadow_272_1816" result="effect3_innerShadow_272_1816"/>
</filter>
<linearGradient id="paint0_linear_272_1816" x1="75.6" y1="14.1501" x2="75.6" y2="104.762" gradientUnits="userSpaceOnUse">
<stop stop-color="#5BB1E0"/>
<stop offset="0.229272" stop-color="#0591DE"/>
</linearGradient>
</defs>
</svg>
