<svg width="416" height="84" viewBox="0 0 416 84" fill="none" xmlns="http://www.w3.org/2000/svg">
<g filter="url(#filter0_dd_272_1798)">
<mask id="mask0_272_1798" style="mask-type:alpha" maskUnits="userSpaceOnUse" x="3" y="2" width="87" height="78">
<path d="M13.6131 74.7809H78.9869C82.7018 74.7809 84.5593 74.7809 85.9782 74.0579C87.2263 73.4219 88.2411 72.4072 88.877 71.1591C89.6 69.7402 89.6 67.8827 89.6 64.1678V19.4306C89.6 15.7156 89.6 13.8582 88.877 12.4392C88.2411 11.1911 87.2263 10.1764 85.9782 9.54042C84.5593 8.81745 82.7018 8.81745 78.9869 8.81745H43.1216C41.1409 8.81745 38.6073 8.63319 36.1199 6.74458C33.6324 4.85596 35.7514 6.46819 33.1257 4.44138C30.5001 2.41457 29.1611 2 26.8611 2H13.6131C9.89817 2 8.0407 2 6.62179 2.72298C5.37367 3.35892 4.35892 4.37367 3.72297 5.62179C3 7.0407 3 8.89817 3 12.6131V64.1678C3 67.8827 3 69.7402 3.72297 71.1591C4.35892 72.4072 5.37367 73.4219 6.62179 74.0579C8.0407 74.7809 9.89817 74.7809 13.6131 74.7809Z" fill="url(#paint0_linear_272_1798)"/>
</mask>
<g mask="url(#mask0_272_1798)">
<path d="M13.6131 74.7809H78.9869C82.7018 74.7809 84.5593 74.7809 85.9782 74.0579C87.2263 73.4219 88.2411 72.4072 88.877 71.1591C89.6 69.7402 89.6 67.8827 89.6 64.1678V19.4306C89.6 15.7156 89.6 13.8582 88.877 12.4392C88.2411 11.1911 87.2263 10.1764 85.9782 9.54042C84.5593 8.81745 82.7018 8.81745 78.9869 8.81745H43.1216C41.1409 8.81745 38.6073 8.63319 36.1199 6.74458C33.6324 4.85596 35.7514 6.46819 33.1257 4.44138C30.5001 2.41457 29.1611 2 26.8611 2H13.6131C9.89817 2 8.0407 2 6.62179 2.72298C5.37367 3.35892 4.35892 4.37367 3.72297 5.62179C3 7.0407 3 8.89817 3 12.6131V64.1678C3 67.8827 3 69.7402 3.72297 71.1591C4.35892 72.4072 5.37367 73.4219 6.62179 74.0579C8.0407 74.7809 9.89817 74.7809 13.6131 74.7809Z" fill="white"/>
<g filter="url(#filter1_dii_272_1798)">
<rect x="3" y="14.3457" width="86.6" height="60.4358" rx="6.63319" fill="white"/>
</g>
<g style="mix-blend-mode:hard-light">
<path d="M33.5136 33.7722H32.4801C32.4502 35.6295 32.4202 37.5017 32.3902 39.3889C32.3902 41.2761 32.3902 43.1783 32.3902 45.0955V46.8929H33.6933C35.6704 46.8929 37.1532 46.2638 38.1418 45.0056C39.1303 43.7175 39.6246 42.055 39.6246 40.018C39.6246 37.9511 39.0854 36.3934 38.007 35.3449C36.9585 34.2964 35.4607 33.7722 33.5136 33.7722ZM21.3815 33.5925V31.1661H33.6035C36.7189 31.1661 39.2351 31.5405 41.1523 32.2894C43.0695 33.0083 44.4624 34.0418 45.3311 35.3898C46.2298 36.7079 46.6792 38.2656 46.6792 40.0629C46.6792 41.7704 46.2598 43.3431 45.421 44.781C44.6122 46.1889 43.2642 47.3122 41.377 48.151C39.4898 48.9898 36.9136 49.4091 33.6484 49.4091H32.3902C32.3902 50.6972 32.3902 52.0602 32.3902 53.4981C32.4202 54.906 32.4502 56.3589 32.4801 57.8567L36.4792 58.2611V60.6875H21.3815V58.2611L24.7515 57.9016C24.8114 56.0743 24.8414 54.232 24.8414 52.3748C24.8414 50.5175 24.8414 48.6453 24.8414 46.7581V45.0955C24.8414 43.2383 24.8414 41.381 24.8414 39.5237C24.8414 37.6365 24.8114 35.7793 24.7515 33.952L21.3815 33.5925ZM48.0503 33.5925V31.1661H71.2811L71.5956 38.8947H67.8661L66.9674 33.6824H59.149C59.119 35.3898 59.089 37.1123 59.0591 38.8497C59.0591 40.5872 59.0591 42.3396 59.0591 44.107H64.0467L64.5859 40.6021H67.1921V50.7122H64.5859L64.0018 46.7581H59.0591C59.0591 48.7651 59.0591 50.6823 59.0591 52.5096C59.089 54.3069 59.119 56.0893 59.149 57.8567L63.1481 58.2611V60.6875H48.0503V58.2611L51.4204 57.9016C51.4803 56.0743 51.5102 54.232 51.5102 52.3748C51.5102 50.5175 51.5102 48.6453 51.5102 46.7581V45.0955C51.5102 43.2383 51.5102 41.381 51.5102 39.5237C51.5102 37.6365 51.4803 35.7793 51.4204 33.952L48.0503 33.5925Z" fill="black"/>
</g>
</g>
</g>
<path d="M121.911 23.6547H118.594C118.557 26.0138 118.52 28.4282 118.483 30.8979C118.483 33.3308 118.483 35.7821 118.483 38.2518V40.9058H122.132C125.487 40.9058 127.883 40.0948 129.32 38.4729C130.758 36.8142 131.477 34.6947 131.477 32.1144C131.477 29.4235 130.703 27.3408 129.154 25.8664C127.643 24.3919 125.229 23.6547 121.911 23.6547ZM108.033 23.3782V21.1113H122.906C127.588 21.1113 131.09 22.1434 133.412 24.2076C135.771 26.235 136.95 28.8706 136.95 32.1144C136.95 34.1786 136.434 36.077 135.402 37.8094C134.37 39.5419 132.711 40.9242 130.426 41.9563C128.178 42.9884 125.155 43.5045 121.358 43.5045H118.483C118.483 45.495 118.483 47.4487 118.483 49.3654C118.52 51.2822 118.557 53.2359 118.594 55.2264L123.736 55.8346V58.1016H108.033V55.8346L113.12 55.2264C113.193 52.9041 113.23 50.545 113.23 48.149C113.23 45.753 113.23 43.3571 113.23 40.9611V38.2518C113.23 35.8558 113.23 33.4782 113.23 31.1191C113.23 28.7231 113.193 26.3456 113.12 23.9865L108.033 23.3782ZM139.265 58.1016V56.1111L143.412 55.337C143.449 53.9362 143.468 52.4249 143.468 50.803C143.504 49.1443 143.523 47.7067 143.523 46.4903V22.2171L138.989 21.6642V19.729L147.449 17.2408L148.223 17.6832L148.002 25.5346V36.206C149.365 34.6947 150.95 33.4782 152.757 32.5567C154.563 31.5983 156.351 31.1191 158.12 31.1191C160.516 31.1191 162.285 31.9301 163.428 33.552C164.608 35.137 165.197 37.7357 165.197 41.3481V46.4903C165.197 47.7435 165.197 49.1811 165.197 50.803C165.234 52.4249 165.271 53.9362 165.308 55.337L169.178 56.1111V58.1016H156.351V56.1111L160.387 55.3923C160.424 53.9915 160.442 52.4802 160.442 50.8583C160.479 49.1996 160.497 47.7435 160.497 46.4903V41.7904C160.497 39.247 160.147 37.4961 159.447 36.5377C158.747 35.5793 157.585 35.1001 155.964 35.1001C154.6 35.1001 153.31 35.3766 152.093 35.9295C150.877 36.4824 149.568 37.404 148.167 38.6941V46.4903C148.167 47.7067 148.167 49.1443 148.167 50.803C148.204 52.4249 148.241 53.9362 148.278 55.337L152.093 56.1111V58.1016H139.265ZM185.411 58.8204C183.273 58.8204 181.227 58.3227 179.274 57.3275C177.357 56.2954 175.79 54.7656 174.574 52.7382C173.358 50.674 172.749 48.1306 172.749 45.108C172.749 42.0485 173.358 39.4866 174.574 37.4224C175.79 35.3213 177.357 33.7547 179.274 32.7226C181.227 31.6536 183.273 31.1191 185.411 31.1191C187.549 31.1191 189.577 31.6536 191.493 32.7226C193.447 33.7547 195.032 35.3213 196.248 37.4224C197.502 39.4866 198.128 42.0485 198.128 45.108C198.128 48.1306 197.502 50.674 196.248 52.7382C195.032 54.7656 193.447 56.2954 191.493 57.3275C189.577 58.3227 187.549 58.8204 185.411 58.8204ZM185.411 56.3322C187.807 56.3322 189.65 55.3923 190.94 53.5123C192.231 51.5955 192.876 48.7941 192.876 45.108C192.876 41.385 192.231 38.5467 190.94 36.593C189.65 34.6394 187.807 33.6625 185.411 33.6625C183.015 33.6625 181.172 34.6394 179.882 36.593C178.629 38.5467 178.002 41.385 178.002 45.108C178.002 48.7941 178.629 51.5955 179.882 53.5123C181.172 55.3923 183.015 56.3322 185.411 56.3322ZM210.849 58.8204C208.932 58.8204 207.402 58.3043 206.26 57.2722C205.117 56.2401 204.546 54.655 204.546 52.5171C204.546 51.8167 204.546 51.1348 204.546 50.4713C204.583 49.7709 204.601 48.8862 204.601 47.8173V34.7684H200.012V32.3355L204.933 31.7273L206.37 24.3182H209.688L209.356 31.8379H216.821V34.7684H209.301V51.9089C209.301 53.3096 209.577 54.3417 210.13 55.0052C210.683 55.6319 211.42 55.9452 212.342 55.9452C212.969 55.9452 213.558 55.8162 214.111 55.5581C214.701 55.3001 215.346 54.9315 216.046 54.4523L217.373 55.8899C215.862 57.8435 213.687 58.8204 210.849 58.8204ZM232.092 58.8204C229.954 58.8204 227.908 58.3227 225.954 57.3275C224.038 56.2954 222.471 54.7656 221.255 52.7382C220.038 50.674 219.43 48.1306 219.43 45.108C219.43 42.0485 220.038 39.4866 221.255 37.4224C222.471 35.3213 224.038 33.7547 225.954 32.7226C227.908 31.6536 229.954 31.1191 232.092 31.1191C234.23 31.1191 236.257 31.6536 238.174 32.7226C240.128 33.7547 241.713 35.3213 242.929 37.4224C244.182 39.4866 244.809 42.0485 244.809 45.108C244.809 48.1306 244.182 50.674 242.929 52.7382C241.713 54.7656 240.128 56.2954 238.174 57.3275C236.257 58.3227 234.23 58.8204 232.092 58.8204ZM232.092 56.3322C234.488 56.3322 236.331 55.3923 237.621 53.5123C238.911 51.5955 239.556 48.7941 239.556 45.108C239.556 41.385 238.911 38.5467 237.621 36.593C236.331 34.6394 234.488 33.6625 232.092 33.6625C229.696 33.6625 227.853 34.6394 226.563 36.593C225.309 38.5467 224.683 41.385 224.683 45.108C224.683 48.7941 225.309 51.5955 226.563 53.5123C227.853 55.3923 229.696 56.3322 232.092 56.3322ZM261.52 23.3782V21.1113H289.055L289.442 30.8979H286.29L285.074 23.8759H272.08C272.044 26.235 272.007 28.5941 271.97 30.9532C271.97 33.3124 271.97 35.6346 271.97 37.92H280.54L281.314 32.6673H283.858V46.2691H281.314L280.54 40.5187H271.97C271.97 43.2465 271.97 45.8083 271.97 48.2043C272.007 50.6003 272.044 52.941 272.08 55.2264L277.223 55.8346V58.1016H261.52V55.8346L266.607 55.2264C266.68 52.9041 266.717 50.545 266.717 48.149C266.717 45.753 266.717 43.3571 266.717 40.9611V38.2518C266.717 35.8558 266.717 33.4782 266.717 31.1191C266.717 28.7231 266.68 26.3456 266.607 23.9865L261.52 23.3782ZM303.436 58.8204C301.298 58.8204 299.252 58.3227 297.298 57.3275C295.382 56.2954 293.815 54.7656 292.598 52.7382C291.382 50.674 290.774 48.1306 290.774 45.108C290.774 42.0485 291.382 39.4866 292.598 37.4224C293.815 35.3213 295.382 33.7547 297.298 32.7226C299.252 31.6536 301.298 31.1191 303.436 31.1191C305.574 31.1191 307.601 31.6536 309.518 32.7226C311.471 33.7547 313.056 35.3213 314.273 37.4224C315.526 39.4866 316.153 42.0485 316.153 45.108C316.153 48.1306 315.526 50.674 314.273 52.7382C313.056 54.7656 311.471 56.2954 309.518 57.3275C307.601 58.3227 305.574 58.8204 303.436 58.8204ZM303.436 56.3322C305.832 56.3322 307.675 55.3923 308.965 53.5123C310.255 51.5955 310.9 48.7941 310.9 45.108C310.9 41.385 310.255 38.5467 308.965 36.593C307.675 34.6394 305.832 33.6625 303.436 33.6625C301.04 33.6625 299.197 34.6394 297.907 36.593C296.653 38.5467 296.027 41.385 296.027 45.108C296.027 48.7941 296.653 51.5955 297.907 53.5123C299.197 55.3923 301.04 56.3322 303.436 56.3322ZM318.921 58.1016V56.1111L323.344 55.337C323.381 53.8257 323.4 52.3512 323.4 50.9136C323.436 49.4392 323.455 47.9647 323.455 46.4903V22.2171L318.921 21.6642V19.729L327.546 17.2408L328.321 17.6832L328.099 25.5346V46.4903C328.099 47.9647 328.099 49.4392 328.099 50.9136C328.136 52.3881 328.173 53.8625 328.21 55.337L332.633 56.1111V58.1016H318.921ZM340.919 45.108C340.919 48.7204 341.638 51.3928 343.075 53.1253C344.55 54.8209 346.393 55.6687 348.604 55.6687C349.821 55.6687 350.89 55.4291 351.811 54.9499C352.77 54.4339 353.765 53.6045 354.797 52.4618V37.1459C353.544 36.0401 352.42 35.2844 351.424 34.879C350.429 34.4735 349.471 34.2708 348.549 34.2708C347.185 34.2708 345.914 34.6578 344.734 35.4319C343.591 36.1691 342.67 37.3487 341.969 38.9706C341.269 40.5556 340.919 42.6014 340.919 45.108ZM355.35 58.6545L354.963 54.8393C354.005 56.0926 352.899 57.0694 351.645 57.7698C350.429 58.4702 348.955 58.8204 347.222 58.8204C344.974 58.8204 343.002 58.249 341.306 57.1063C339.61 55.9636 338.283 54.3786 337.325 52.3512C336.403 50.287 335.943 47.9094 335.943 45.2185C335.943 42.3802 336.459 39.9105 337.491 37.8094C338.523 35.7083 339.924 34.068 341.693 32.8885C343.462 31.7089 345.471 31.1191 347.72 31.1191C349.01 31.1191 350.245 31.3771 351.424 31.8932C352.641 32.4093 353.82 33.3492 354.963 34.7131V22.2171L350.263 21.6642V19.729L358.889 17.2408L359.663 17.6832L359.442 25.5346V55.4476L363.92 56.1111V58.1016L355.35 58.6545ZM379.147 33.6625C378.115 33.6625 377.064 33.9574 375.995 34.5472C374.963 35.137 374.06 36.077 373.286 37.3671C372.549 38.6572 372.069 40.3713 371.848 42.5092H381.911C383.238 42.5092 384.105 42.2328 384.51 41.6799C384.952 41.1269 385.174 40.445 385.174 39.6341C385.174 38.5651 384.897 37.5883 384.344 36.7036C383.828 35.7821 383.109 35.0448 382.188 34.4919C381.303 33.939 380.289 33.6625 379.147 33.6625ZM379.091 58.8204C375.368 58.8204 372.383 57.6224 370.134 55.2264C367.886 52.7935 366.761 49.4576 366.761 45.2185C366.761 42.3802 367.333 39.9105 368.475 37.8094C369.655 35.7083 371.203 34.068 373.12 32.8885C375.074 31.7089 377.193 31.1191 379.478 31.1191C381.395 31.1191 383.128 31.543 384.676 32.3908C386.224 33.2386 387.459 34.4551 388.38 36.0401C389.302 37.5883 389.763 39.4866 389.763 41.7352C389.763 42.3618 389.726 42.9516 389.652 43.5045C389.578 44.0206 389.486 44.4629 389.376 44.8315H371.738C371.811 48.2227 372.659 50.803 374.281 52.5724C375.903 54.3417 378.041 55.2264 380.695 55.2264C382.464 55.2264 383.939 54.8762 385.118 54.1758C386.298 53.4386 387.385 52.4986 388.38 51.3559L389.708 52.4065C388.675 54.3601 387.275 55.9267 385.505 57.1063C383.736 58.249 381.598 58.8204 379.091 58.8204ZM394.228 58.1016V56.1111L398.209 55.3923C398.246 53.9915 398.265 52.4802 398.265 50.8583C398.302 49.1996 398.32 47.7435 398.32 46.4903V43.8363C398.32 42.3249 398.302 41.0717 398.265 40.0764C398.265 39.0811 398.228 38.0306 398.154 36.9248L393.786 36.4271V34.4919L401.527 31.1191L402.356 31.672L402.965 38.1965C403.886 35.9848 405.066 34.2523 406.503 32.999C407.978 31.7458 409.452 31.1191 410.927 31.1191C411.774 31.1191 412.567 31.3034 413.304 31.672C414.041 32.0406 414.576 32.5383 414.908 33.1649C414.908 35.8558 413.82 37.2012 411.645 37.2012C411.019 37.2012 410.429 37.0906 409.876 36.8695C409.323 36.6114 408.789 36.2613 408.273 35.8189L407.609 35.2107C406.503 36.0217 405.582 37.0169 404.845 38.1965C404.107 39.376 403.499 40.7583 403.02 42.3434V46.4903C403.02 47.7067 403.02 49.1258 403.02 50.7477C403.057 52.3696 403.094 53.8809 403.13 55.2817L407.664 56.1111V58.1016H394.228Z" fill="white"/>
<defs>
<filter id="filter0_dd_272_1798" x="0.354989" y="0.530549" width="91.89" height="83.3748" filterUnits="userSpaceOnUse" color-interpolation-filters="sRGB">
<feFlood flood-opacity="0" result="BackgroundImageFix"/>
<feColorMatrix in="SourceAlpha" type="matrix" values="0 0 0 0 0 0 0 0 0 0 0 0 0 0 0 0 0 0 127 0" result="hardAlpha"/>
<feMorphology radius="0.58778" operator="erode" in="SourceAlpha" result="effect1_dropShadow_272_1798"/>
<feOffset dy="2.35112"/>
<feGaussianBlur stdDeviation="1.46945"/>
<feComposite in2="hardAlpha" operator="out"/>
<feColorMatrix type="matrix" values="0 0 0 0 0.0313726 0 0 0 0 0.0156863 0 0 0 0 0.00784314 0 0 0 0.08 0"/>
<feBlend mode="normal" in2="BackgroundImageFix" result="effect1_dropShadow_272_1798"/>
<feColorMatrix in="SourceAlpha" type="matrix" values="0 0 0 0 0 0 0 0 0 0 0 0 0 0 0 0 0 0 127 0" result="hardAlpha"/>
<feMorphology radius="0.29389" operator="dilate" in="SourceAlpha" result="effect2_dropShadow_272_1798"/>
<feOffset dy="1.17556"/>
<feGaussianBlur stdDeviation="1.17556"/>
<feComposite in2="hardAlpha" operator="out"/>
<feColorMatrix type="matrix" values="0 0 0 0 0.0313726 0 0 0 0 0.014902 0 0 0 0 0.00784314 0 0 0 0.16 0"/>
<feBlend mode="normal" in2="effect1_dropShadow_272_1798" result="effect2_dropShadow_272_1798"/>
<feBlend mode="normal" in="SourceGraphic" in2="effect2_dropShadow_272_1798" result="shape"/>
</filter>
<filter id="filter1_dii_272_1798" x="-2.89617" y="6.97549" width="98.3923" height="72.2279" filterUnits="userSpaceOnUse" color-interpolation-filters="sRGB">
<feFlood flood-opacity="0" result="BackgroundImageFix"/>
<feColorMatrix in="SourceAlpha" type="matrix" values="0 0 0 0 0 0 0 0 0 0 0 0 0 0 0 0 0 0 127 0" result="hardAlpha"/>
<feOffset dy="-1.47404"/>
<feGaussianBlur stdDeviation="2.94809"/>
<feComposite in2="hardAlpha" operator="out"/>
<feColorMatrix type="matrix" values="0 0 0 0 0.372136 0 0 0 0 0.386451 0 0 0 0 0.394368 0 0 0 0.5 0"/>
<feBlend mode="multiply" in2="BackgroundImageFix" result="effect1_dropShadow_272_1798"/>
<feBlend mode="normal" in="SourceGraphic" in2="effect1_dropShadow_272_1798" result="shape"/>
<feColorMatrix in="SourceAlpha" type="matrix" values="0 0 0 0 0 0 0 0 0 0 0 0 0 0 0 0 0 0 127 0" result="hardAlpha"/>
<feOffset dy="-2.94809"/>
<feGaussianBlur stdDeviation="5.89617"/>
<feComposite in2="hardAlpha" operator="arithmetic" k2="-1" k3="1"/>
<feColorMatrix type="matrix" values="0 0 0 0 0.346679 0 0 0 0 0.356405 0 0 0 0 0.361785 0 0 0 0.3 0"/>
<feBlend mode="multiply" in2="shape" result="effect2_innerShadow_272_1798"/>
<feColorMatrix in="SourceAlpha" type="matrix" values="0 0 0 0 0 0 0 0 0 0 0 0 0 0 0 0 0 0 127 0" result="hardAlpha"/>
<feOffset dy="0.552766"/>
<feGaussianBlur stdDeviation="0.276383"/>
<feComposite in2="hardAlpha" operator="arithmetic" k2="-1" k3="1"/>
<feColorMatrix type="matrix" values="0 0 0 0 0 0 0 0 0 0 0 0 0 0 0 0 0 0 0.2 0"/>
<feBlend mode="normal" in2="effect2_innerShadow_272_1798" result="effect3_innerShadow_272_1798"/>
</filter>
<linearGradient id="paint0_linear_272_1798" x1="46.3" y1="6.42213" x2="46.3" y2="79.203" gradientUnits="userSpaceOnUse">
<stop stop-color="#5BB1E0"/>
<stop offset="0.229272" stop-color="#0591DE"/>
</linearGradient>
</defs>
</svg>
