<svg width="150" height="151" viewBox="0 0 150 151" fill="none" xmlns="http://www.w3.org/2000/svg">
<g filter="url(#filter0_dd_272_1731)">
<mask id="mask0_272_1731" style="mask-type:alpha" maskUnits="userSpaceOnUse" x="21" y="8" width="108" height="92">
<path d="M34.4369 99.2564H115.563C120.173 99.2564 122.478 99.2564 124.239 98.3563C125.788 97.5646 127.047 96.3012 127.836 94.7473C128.733 92.9808 128.733 90.6683 128.733 86.0432V30.3455C128.733 25.7204 128.733 23.4079 127.836 21.6413C127.047 20.0874 125.788 18.8241 124.239 18.0323C122.478 17.1322 120.173 17.1322 115.563 17.1322H71.0557C68.5977 17.1322 65.4537 16.9028 62.3669 14.5515C59.2801 12.2002 61.9096 14.2074 58.6513 11.684C55.3929 9.16068 53.7313 8.64453 50.8771 8.64453H34.4369C29.8268 8.64453 27.5218 8.64453 25.761 9.54463C24.2121 10.3364 22.9528 11.5997 22.1637 13.1536C21.2665 14.9202 21.2665 17.2327 21.2665 21.8578V86.0432C21.2665 90.6682 21.2665 92.9808 22.1637 94.7473C22.9528 96.3012 24.2121 97.5646 25.761 98.3563C27.5218 99.2564 29.8268 99.2564 34.4369 99.2564Z" fill="url(#paint0_linear_272_1731)"/>
</mask>
<g mask="url(#mask0_272_1731)">
<path d="M34.4369 99.2564H115.563C120.173 99.2564 122.478 99.2564 124.239 98.3563C125.788 97.5646 127.047 96.3012 127.836 94.7473C128.733 92.9808 128.733 90.6683 128.733 86.0432V30.3455C128.733 25.7204 128.733 23.4079 127.836 21.6413C127.047 20.0874 125.788 18.8241 124.239 18.0323C122.478 17.1322 120.173 17.1322 115.563 17.1322H71.0557C68.5977 17.1322 65.4537 16.9028 62.3669 14.5515C59.2801 12.2002 61.9096 14.2074 58.6513 11.684C55.3929 9.16068 53.7313 8.64453 50.8771 8.64453H34.4369C29.8268 8.64453 27.5218 8.64453 25.761 9.54463C24.2121 10.3364 22.9528 11.5997 22.1637 13.1536C21.2665 14.9202 21.2665 17.2327 21.2665 21.8578V86.0432C21.2665 90.6682 21.2665 92.9808 22.1637 94.7473C22.9528 96.3012 24.2121 97.5646 25.761 98.3563C27.5218 99.2564 29.8268 99.2564 34.4369 99.2564Z" fill="#1C1E23"/>
<g filter="url(#filter1_dii_272_1731)">
<rect x="21.2665" y="24.0156" width="107.467" height="75.2423" rx="8.2449" fill="#1C1E23"/>
</g>
<g style="mix-blend-mode:hard-light">
<path d="M58.6039 83.4401C56.2953 83.4401 54.0799 83.0491 51.9575 82.2672C49.8352 81.448 47.9362 80.2379 46.2607 78.6369C44.6224 76.9985 43.3192 74.9693 42.3511 72.549C41.383 70.1288 40.8989 67.2804 40.8989 64.0038C40.8989 60.8016 41.383 57.9904 42.3511 55.5702C43.3192 53.15 44.641 51.1393 46.3165 49.5382C47.9921 47.8999 49.891 46.6712 52.0134 45.852C54.1357 45.0329 56.3326 44.6233 58.6039 44.6233C60.9124 44.6233 63.1092 45.0329 65.1943 45.852C67.3167 46.634 69.2156 47.8255 70.8912 49.4265C72.5667 51.0276 73.8885 53.0569 74.8566 55.5144C75.8247 57.9346 76.3088 60.7644 76.3088 64.0038C76.3088 67.2432 75.8247 70.073 74.8566 72.4932C73.8885 74.9134 72.5667 76.9427 70.8912 78.581C69.2529 80.1821 67.3725 81.3922 65.2502 82.2114C63.1278 83.0305 60.9124 83.4401 58.6039 83.4401ZM58.6039 80.2007C60.5028 80.2007 62.0108 79.4932 63.1278 78.0783C64.2821 76.6634 65.1199 74.7459 65.6411 72.3256C66.1624 69.8682 66.4231 67.0942 66.4231 64.0038C66.4231 60.9133 66.1624 58.158 65.6411 55.7378C65.1199 53.3175 64.2821 51.4 63.1278 49.9851C62.0108 48.5702 60.5028 47.8627 58.6039 47.8627C56.7421 47.8627 55.2342 48.5702 54.0799 49.9851C52.9256 51.4 52.0879 53.3175 51.5666 55.7378C51.0453 58.158 50.7847 60.9133 50.7847 64.0038C50.7847 67.0942 51.0453 69.8682 51.5666 72.3256C52.0879 74.7459 52.9256 76.6634 54.0799 78.0783C55.2342 79.4932 56.7421 80.2007 58.6039 80.2007ZM78.737 48.7005V45.6845H107.612L108.003 55.2909H103.367L102.25 48.8122H92.5323C92.4951 50.9345 92.4578 53.0755 92.4206 55.2351C92.4206 57.3947 92.4206 59.5729 92.4206 61.7697H98.6201L99.2903 57.4133H102.53V69.9799H99.2903L98.5643 65.065H92.4206C92.4206 67.5597 92.4206 69.9426 92.4206 72.2139C92.4578 74.448 92.4951 76.6634 92.5323 78.8603L97.5031 79.3629V82.3789H78.737V79.3629L82.9259 78.9161C83.0003 76.6448 83.0376 74.3549 83.0376 72.0464C83.0376 69.7379 83.0376 67.4107 83.0376 65.065V62.9984C83.0376 60.6899 83.0376 58.3814 83.0376 56.0729C83.0376 53.7271 83.0003 51.4186 82.9259 49.1473L78.737 48.7005Z" fill="#F9F9F9" fill-opacity="0.97"/>
</g>
</g>
</g>
<path d="M25.1748 134.204C24.2121 134.204 23.2883 134.041 22.4033 133.715C21.5183 133.374 20.7264 132.869 20.0277 132.201C19.3445 131.518 18.8011 130.672 18.3974 129.663C17.9937 128.653 17.7919 127.466 17.7919 126.099C17.7919 124.764 17.9937 123.592 18.3974 122.583C18.8011 121.573 19.3523 120.735 20.051 120.067C20.7497 119.384 21.5416 118.872 22.4266 118.53C23.3116 118.188 24.2277 118.018 25.1748 118.018C26.1374 118.018 27.0535 118.188 27.923 118.53C28.808 118.856 29.5999 119.353 30.2986 120.021C30.9973 120.688 31.5485 121.534 31.9522 122.559C32.3559 123.568 32.5577 124.748 32.5577 126.099C32.5577 127.45 32.3559 128.63 31.9522 129.639C31.5485 130.649 30.9973 131.495 30.2986 132.178C29.6154 132.846 28.8313 133.35 27.9463 133.692C27.0613 134.033 26.1374 134.204 25.1748 134.204ZM25.1748 132.853C25.9667 132.853 26.5955 132.558 27.0613 131.968C27.5426 131.378 27.892 130.579 28.1093 129.57C28.3267 128.545 28.4354 127.388 28.4354 126.099C28.4354 124.811 28.3267 123.662 28.1093 122.652C27.892 121.643 27.5426 120.844 27.0613 120.254C26.5955 119.664 25.9667 119.368 25.1748 119.368C24.3985 119.368 23.7696 119.664 23.2883 120.254C22.807 120.844 22.4576 121.643 22.2403 122.652C22.0229 123.662 21.9142 124.811 21.9142 126.099C21.9142 127.388 22.0229 128.545 22.2403 129.57C22.4576 130.579 22.807 131.378 23.2883 131.968C23.7696 132.558 24.3985 132.853 25.1748 132.853ZM33.7723 133.762V132.667L35.0299 132.388C35.0454 131.829 35.0532 131.223 35.0532 130.571C35.0532 129.919 35.0532 129.352 35.0532 128.871V127.52C35.0532 126.883 35.0454 126.394 35.0299 126.053C35.0299 125.696 35.0144 125.284 34.9833 124.818L33.5626 124.609V123.7L38.1508 122.14L38.57 122.396L38.7097 124.073C39.3153 123.359 39.9131 122.862 40.5031 122.583C41.1086 122.288 41.753 122.14 42.4361 122.14C43.4454 122.14 44.2528 122.474 44.8583 123.141C45.4794 123.809 45.7899 124.811 45.7899 126.146V128.871C45.7899 129.383 45.7899 129.965 45.7899 130.618C45.7899 131.254 45.7977 131.86 45.8132 132.434L46.9777 132.667V133.762H40.8291V132.667L42.0402 132.411C42.0557 131.836 42.0635 131.231 42.0635 130.594C42.0635 129.942 42.0635 129.368 42.0635 128.871V126.425C42.0635 125.68 41.9626 125.16 41.7607 124.865C41.5589 124.554 41.2328 124.399 40.7825 124.399C40.177 124.399 39.5094 124.679 38.7796 125.238V128.871C38.7796 129.352 38.7796 129.927 38.7796 130.594C38.7796 131.246 38.7874 131.86 38.8029 132.434L39.8975 132.667V133.762H33.7723ZM53.6668 123.351C53.2321 123.351 52.8284 123.623 52.4558 124.166C52.0986 124.694 51.8968 125.672 51.8502 127.101H53.8299C54.3888 127.101 54.7615 126.992 54.9478 126.775C55.1496 126.542 55.2506 126.161 55.2506 125.634C55.2506 124.857 55.0953 124.283 54.7848 123.91C54.4742 123.537 54.1016 123.351 53.6668 123.351ZM53.7134 134.111C52.58 134.111 51.5785 133.878 50.709 133.412C49.8395 132.931 49.1563 132.248 48.6595 131.363C48.1626 130.462 47.9142 129.391 47.9142 128.149C47.9142 126.845 48.2014 125.75 48.7759 124.865C49.3659 123.964 50.119 123.289 51.0351 122.839C51.9511 122.373 52.906 122.14 53.8997 122.14C54.9245 122.14 55.794 122.357 56.5082 122.792C57.238 123.227 57.7892 123.817 58.1618 124.562C58.5344 125.292 58.7208 126.13 58.7208 127.077C58.7208 127.528 58.6742 127.939 58.581 128.312H51.8502C51.9278 129.538 52.2617 130.447 52.8517 131.037C53.4572 131.611 54.1637 131.899 54.9711 131.899C55.6077 131.899 56.1511 131.782 56.6014 131.549C57.0516 131.301 57.4476 130.998 57.7892 130.641L58.6043 131.386C58.123 132.302 57.4709 132.985 56.648 133.436C55.825 133.886 54.8469 134.111 53.7134 134.111ZM64.6679 119.718V118.46H76.7088L76.8719 122.466H74.9388L74.473 119.764H70.4205C70.405 120.649 70.3895 121.542 70.374 122.443C70.374 123.343 70.374 124.252 70.374 125.168H72.9591L73.2386 123.351H74.5894V128.591H73.2386L72.9359 126.542H70.374C70.374 127.582 70.374 128.576 70.374 129.523C70.3895 130.455 70.405 131.378 70.4205 132.294L72.4933 132.504V133.762H64.6679V132.504L66.4147 132.318C66.4457 131.371 66.4612 130.416 66.4612 129.453C66.4612 128.49 66.4612 127.52 66.4612 126.542V125.68C66.4612 124.717 66.4612 123.755 66.4612 122.792C66.4612 121.814 66.4457 120.851 66.4147 119.904L64.6679 119.718ZM82.5166 134.111C81.3055 134.111 80.2575 133.863 79.3724 133.366C78.4874 132.853 77.8042 132.147 77.3229 131.246C76.8416 130.33 76.6009 129.275 76.6009 128.079C76.6009 126.883 76.8571 125.843 77.3695 124.958C77.8974 124.073 78.6116 123.382 79.5122 122.885C80.4127 122.388 81.4142 122.14 82.5166 122.14C83.619 122.14 84.6127 122.381 85.4977 122.862C86.3983 123.343 87.1125 124.034 87.6404 124.935C88.1683 125.82 88.4323 126.868 88.4323 128.079C88.4323 129.29 88.1916 130.346 87.7103 131.246C87.2289 132.147 86.5458 132.853 85.6607 133.366C84.7757 133.863 83.7277 134.111 82.5166 134.111ZM82.5166 132.9C83.1687 132.9 83.6578 132.52 83.9839 131.759C84.3099 130.998 84.473 129.795 84.473 128.149C84.473 126.487 84.3099 125.276 83.9839 124.516C83.6578 123.755 83.1687 123.374 82.5166 123.374C81.8489 123.374 81.3521 123.755 81.026 124.516C80.7 125.276 80.5369 126.487 80.5369 128.149C80.5369 129.795 80.7 130.998 81.026 131.759C81.3521 132.52 81.8489 132.9 82.5166 132.9ZM89.3988 133.762V132.667L90.6797 132.388C90.6953 131.798 90.703 131.208 90.703 130.618C90.7186 130.028 90.7263 129.445 90.7263 128.871V119.112L89.2823 118.879V117.901L94.1732 116.853L94.5459 117.086L94.4527 120.347V128.871C94.4527 129.461 94.4527 130.051 94.4527 130.641C94.4682 131.231 94.4838 131.821 94.4993 132.411L95.7802 132.667V133.762H89.3988ZM100.7 128.195C100.7 129.469 100.925 130.439 101.375 131.107C101.826 131.759 102.408 132.085 103.122 132.085C103.65 132.085 104.131 131.906 104.566 131.549V124.609C104.147 124.283 103.689 124.12 103.192 124.12C102.478 124.12 101.88 124.453 101.399 125.121C100.933 125.789 100.7 126.814 100.7 128.195ZM104.869 134.018L104.683 132.69C103.782 133.638 102.687 134.111 101.399 134.111C100.529 134.111 99.7374 133.886 99.0232 133.436C98.3245 132.985 97.7733 132.326 97.3696 131.456C96.9659 130.571 96.7641 129.5 96.7641 128.242C96.7641 126.969 97.0047 125.882 97.4861 124.981C97.9829 124.065 98.6195 123.367 99.3958 122.885C100.188 122.388 101.018 122.14 101.888 122.14C102.493 122.14 103.021 122.249 103.472 122.466C103.922 122.668 104.333 122.971 104.706 123.374V119.112L103.076 118.879V117.901L107.99 116.853L108.362 117.086L108.269 120.347V132.434L109.411 132.667V133.762L104.869 134.018ZM116.112 123.351C115.677 123.351 115.274 123.623 114.901 124.166C114.544 124.694 114.342 125.672 114.296 127.101H116.275C116.834 127.101 117.207 126.992 117.393 126.775C117.595 126.542 117.696 126.161 117.696 125.634C117.696 124.857 117.541 124.283 117.23 123.91C116.92 123.537 116.547 123.351 116.112 123.351ZM116.159 134.111C115.025 134.111 114.024 133.878 113.154 133.412C112.285 132.931 111.602 132.248 111.105 131.363C110.608 130.462 110.36 129.391 110.36 128.149C110.36 126.845 110.647 125.75 111.221 124.865C111.811 123.964 112.564 123.289 113.48 122.839C114.397 122.373 115.351 122.14 116.345 122.14C117.37 122.14 118.239 122.357 118.954 122.792C119.683 123.227 120.235 123.817 120.607 124.562C120.98 125.292 121.166 126.13 121.166 127.077C121.166 127.528 121.12 127.939 121.026 128.312H114.296C114.373 129.538 114.707 130.447 115.297 131.037C115.903 131.611 116.609 131.899 117.416 131.899C118.053 131.899 118.597 131.782 119.047 131.549C119.497 131.301 119.893 130.998 120.235 130.641L121.05 131.386C120.568 132.302 119.916 132.985 119.093 133.436C118.27 133.886 117.292 134.111 116.159 134.111ZM122.225 133.762V132.667L123.506 132.411C123.522 131.836 123.53 131.223 123.53 130.571C123.53 129.919 123.53 129.352 123.53 128.871V127.497C123.53 127.062 123.522 126.705 123.506 126.425C123.506 126.146 123.499 125.89 123.483 125.657C123.483 125.408 123.475 125.129 123.46 124.818L122.039 124.609V123.7L126.627 122.14L127.047 122.396L127.256 125.144C127.582 124.151 128.04 123.405 128.63 122.909C129.22 122.396 129.803 122.14 130.377 122.14C130.889 122.14 131.332 122.288 131.705 122.583C132.077 122.862 132.31 123.289 132.403 123.863C132.388 124.469 132.225 124.943 131.914 125.284C131.604 125.61 131.215 125.773 130.75 125.773C130.098 125.773 129.5 125.408 128.956 124.679L128.817 124.492C128.475 124.818 128.157 125.23 127.862 125.727C127.582 126.224 127.38 126.744 127.256 127.287V128.871C127.256 129.352 127.256 129.903 127.256 130.524C127.256 131.145 127.264 131.728 127.279 132.271L129.119 132.667V133.762H122.225Z" fill="#161616"/>
<defs>
<filter id="filter0_dd_272_1731" x="17.9788" y="6.81804" width="114.042" height="98.2836" filterUnits="userSpaceOnUse" color-interpolation-filters="sRGB">
<feFlood flood-opacity="0" result="BackgroundImageFix"/>
<feColorMatrix in="SourceAlpha" type="matrix" values="0 0 0 0 0 0 0 0 0 0 0 0 0 0 0 0 0 0 127 0" result="hardAlpha"/>
<feMorphology radius="0.730596" operator="erode" in="SourceAlpha" result="effect1_dropShadow_272_1731"/>
<feOffset dy="2.92239"/>
<feGaussianBlur stdDeviation="1.82649"/>
<feComposite in2="hardAlpha" operator="out"/>
<feColorMatrix type="matrix" values="0 0 0 0 0.0313726 0 0 0 0 0.0156863 0 0 0 0 0.00784314 0 0 0 0.08 0"/>
<feBlend mode="normal" in2="BackgroundImageFix" result="effect1_dropShadow_272_1731"/>
<feColorMatrix in="SourceAlpha" type="matrix" values="0 0 0 0 0 0 0 0 0 0 0 0 0 0 0 0 0 0 127 0" result="hardAlpha"/>
<feMorphology radius="0.365298" operator="dilate" in="SourceAlpha" result="effect2_dropShadow_272_1731"/>
<feOffset dy="1.46119"/>
<feGaussianBlur stdDeviation="1.46119"/>
<feComposite in2="hardAlpha" operator="out"/>
<feColorMatrix type="matrix" values="0 0 0 0 0.0313726 0 0 0 0 0.014902 0 0 0 0 0.00784314 0 0 0 0.16 0"/>
<feBlend mode="normal" in2="effect1_dropShadow_272_1731" result="effect2_dropShadow_272_1731"/>
<feBlend mode="normal" in="SourceGraphic" in2="effect2_dropShadow_272_1731" result="shape"/>
</filter>
<filter id="filter1_dii_272_1731" x="13.9377" y="14.8546" width="122.125" height="89.8998" filterUnits="userSpaceOnUse" color-interpolation-filters="sRGB">
<feFlood flood-opacity="0" result="BackgroundImageFix"/>
<feColorMatrix in="SourceAlpha" type="matrix" values="0 0 0 0 0 0 0 0 0 0 0 0 0 0 0 0 0 0 127 0" result="hardAlpha"/>
<feOffset dy="-1.8322"/>
<feGaussianBlur stdDeviation="3.6644"/>
<feComposite in2="hardAlpha" operator="out"/>
<feColorMatrix type="matrix" values="0 0 0 0 0 0 0 0 0 0.517647 0 0 0 0 0.803922 0 0 0 0.5 0"/>
<feBlend mode="multiply" in2="BackgroundImageFix" result="effect1_dropShadow_272_1731"/>
<feBlend mode="normal" in="SourceGraphic" in2="effect1_dropShadow_272_1731" result="shape"/>
<feColorMatrix in="SourceAlpha" type="matrix" values="0 0 0 0 0 0 0 0 0 0 0 0 0 0 0 0 0 0 127 0" result="hardAlpha"/>
<feOffset dy="-3.6644"/>
<feGaussianBlur stdDeviation="7.3288"/>
<feComposite in2="hardAlpha" operator="arithmetic" k2="-1" k3="1"/>
<feColorMatrix type="matrix" values="0 0 0 0 0.0466319 0 0 0 0 0.440508 0 0 0 0 0.658333 0 0 0 0.3 0"/>
<feBlend mode="multiply" in2="shape" result="effect2_innerShadow_272_1731"/>
<feColorMatrix in="SourceAlpha" type="matrix" values="0 0 0 0 0 0 0 0 0 0 0 0 0 0 0 0 0 0 127 0" result="hardAlpha"/>
<feOffset dy="0.687075"/>
<feGaussianBlur stdDeviation="0.343537"/>
<feComposite in2="hardAlpha" operator="arithmetic" k2="-1" k3="1"/>
<feColorMatrix type="matrix" values="0 0 0 0 1 0 0 0 0 1 0 0 0 0 1 0 0 0 0.2 0"/>
<feBlend mode="normal" in2="effect2_innerShadow_272_1731" result="effect3_innerShadow_272_1731"/>
</filter>
<linearGradient id="paint0_linear_272_1731" x1="74.9999" y1="14.1501" x2="74.9999" y2="104.762" gradientUnits="userSpaceOnUse">
<stop stop-color="#5BB1E0"/>
<stop offset="0.229272" stop-color="#0591DE"/>
</linearGradient>
</defs>
</svg>
