<svg width="150" height="151" viewBox="0 0 150 151" fill="none" xmlns="http://www.w3.org/2000/svg">
<g filter="url(#filter0_dd_272_1731)">
<mask id="mask0_272_1731" style="mask-type:alpha" maskUnits="userSpaceOnUse" x="21" y="8" width="108" height="97">
<path d="M34.437 99.2564H115.563C120.173 99.2564 122.478 99.2564 124.239 98.3563C125.788 97.5646 127.047 96.3012 127.836 94.7473C128.733 92.9808 128.733 90.6682 128.733 86.0432V30.3455C128.733 25.7204 128.733 23.4079 127.836 21.6413C127.047 20.0874 125.788 18.8241 124.239 18.0323C122.478 17.1322 120.173 17.1322 115.563 17.1322H71.0557C68.5977 17.1322 65.4537 16.9028 62.3669 14.5515C59.2801 12.2002 61.9096 14.2074 58.6513 11.684C55.393 9.16068 53.7314 8.64453 50.8771 8.64453H34.437C29.8269 8.64453 27.5218 8.64453 25.761 9.54463C24.2122 10.3364 22.9529 11.5997 22.1637 13.1536C21.2665 14.9202 21.2665 17.2327 21.2665 21.8578V86.0432C21.2665 90.6682 21.2665 92.9808 22.1637 94.7473C22.9529 96.3012 24.2122 97.5646 25.761 98.3563C27.5218 99.2564 29.8269 99.2564 34.437 99.2564Z" fill="url(#paint0_linear_272_1731)"/>
</mask>
<g mask="url(#mask0_272_1731)">
<path d="M34.437 99.2564H115.563C120.173 99.2564 122.478 99.2564 124.239 98.3563C125.788 97.5646 127.047 96.3012 127.836 94.7473C128.733 92.9808 128.733 90.6682 128.733 86.0432V30.3455C128.733 25.7204 128.733 23.4079 127.836 21.6413C127.047 20.0874 125.788 18.8241 124.239 18.0323C122.478 17.1322 120.173 17.1322 115.563 17.1322H71.0557C68.5977 17.1322 65.4537 16.9028 62.3669 14.5515C59.2801 12.2002 61.9096 14.2074 58.6513 11.684C55.393 9.16068 53.7314 8.64453 50.8771 8.64453H34.437C29.8269 8.64453 27.5218 8.64453 25.761 9.54463C24.2122 10.3364 22.9529 11.5997 22.1637 13.1536C21.2665 14.9202 21.2665 17.2327 21.2665 21.8578V86.0432C21.2665 90.6682 21.2665 92.9808 22.1637 94.7473C22.9529 96.3012 24.2122 97.5646 25.761 98.3563C27.5218 99.2564 29.8269 99.2564 34.437 99.2564Z" fill="#1C1E23"/>
<g filter="url(#filter1_dii_272_1731)">
<rect x="21.2665" y="24.0156" width="107.467" height="75.2423" rx="8.2449" fill="#1C1E23"/>
</g>
<g style="mix-blend-mode:hard-light">
<path d="M59.1601 48.9239H57.8755C57.8383 51.2324 57.8011 53.5596 57.7638 55.9053C57.7638 58.2511 57.7638 60.6155 57.7638 62.9984V65.2325H59.3835C61.841 65.2325 63.6841 64.4506 64.9128 62.8867C66.1415 61.2857 66.7559 59.2192 66.7559 56.6872C66.7559 54.1181 66.0857 52.1819 64.7453 50.8787C63.4421 49.5755 61.5803 48.9239 59.1601 48.9239ZM44.0802 48.7005V45.6845H59.2718C63.1442 45.6845 66.2719 46.1499 68.6549 47.0808C71.0379 47.9744 72.7693 49.259 73.8491 50.9345C74.9661 52.5728 75.5246 54.509 75.5246 56.7431C75.5246 58.8654 75.0033 60.8202 73.9608 62.6075C72.9554 64.3575 71.2799 65.7538 68.9341 66.7963C66.5884 67.8389 63.3862 68.3602 59.3277 68.3602H57.7638C57.7638 69.9613 57.7638 71.6554 57.7638 73.4427C57.8011 75.1927 57.8383 76.9985 57.8755 78.8603L62.8463 79.3629V82.3789H44.0802V79.3629L48.2691 78.9161C48.3435 76.6448 48.3808 74.3549 48.3808 72.0464C48.3808 69.7379 48.3808 67.4107 48.3808 65.065V62.9984C48.3808 60.6899 48.3808 58.3814 48.3808 56.0729C48.3808 53.7271 48.3435 51.4186 48.2691 49.1473L44.0802 48.7005ZM77.2289 48.7005V45.6845H106.104L106.495 55.2909H101.859L100.742 48.8122H91.0242C90.987 50.9345 90.9498 53.0755 90.9125 55.2351C90.9125 57.3947 90.9125 59.5729 90.9125 61.7697H97.1121L97.7823 57.4133H101.022V69.9799H97.7823L97.0562 65.065H90.9125C90.9125 67.5597 90.9125 69.9426 90.9125 72.2139C90.9498 74.448 90.987 76.6634 91.0242 78.8603L95.995 79.3629V82.3789H77.2289V79.3629L81.4178 78.9161C81.4923 76.6448 81.5295 74.3549 81.5295 72.0464C81.5295 69.7379 81.5295 67.4107 81.5295 65.065V62.9984C81.5295 60.6899 81.5295 58.3814 81.5295 56.0729C81.5295 53.7271 81.4923 51.4186 81.4178 49.1473L77.2289 48.7005Z" fill="#F9F9F9" fill-opacity="0.97"/>
</g>
</g>
</g>
<path d="M14.5569 119.811H14.0212C14.0057 120.774 13.9901 121.744 13.9746 122.722C13.9746 123.7 13.9746 124.686 13.9746 125.68V126.612H14.65C15.6748 126.612 16.4434 126.286 16.9557 125.634C17.4681 124.966 17.7243 124.104 17.7243 123.048C17.7243 121.977 17.4448 121.17 16.8859 120.626C16.3424 120.083 15.5661 119.811 14.5569 119.811ZM8.26857 119.718V118.46H14.6035C16.2182 118.46 17.5225 118.654 18.5162 119.042C19.5099 119.415 20.2319 119.951 20.6821 120.649C21.1479 121.333 21.3808 122.14 21.3808 123.072C21.3808 123.957 21.1635 124.772 20.7287 125.517C20.3095 126.247 19.6108 126.829 18.6326 127.264C17.6544 127.699 16.3191 127.916 14.6267 127.916H13.9746C13.9746 128.584 13.9746 129.29 13.9746 130.035C13.9901 130.765 14.0057 131.518 14.0212 132.294L16.094 132.504V133.762H8.26857V132.504L10.0153 132.318C10.0464 131.371 10.0619 130.416 10.0619 129.453C10.0619 128.49 10.0619 127.52 10.0619 126.542V125.68C10.0619 124.717 10.0619 123.755 10.0619 122.792C10.0619 121.814 10.0464 120.851 10.0153 119.904L8.26857 119.718ZM21.8841 133.762V132.667L23.1418 132.388C23.1573 131.829 23.1651 131.223 23.1651 130.571C23.1651 129.919 23.1651 129.352 23.1651 128.871V119.112L21.7211 118.879V117.901L26.5421 116.853L26.9148 117.086L26.8216 120.347V124.096C27.4427 123.367 28.0404 122.862 28.6149 122.583C29.2049 122.288 29.8415 122.14 30.5247 122.14C31.5495 122.14 32.3724 122.474 32.9935 123.141C33.6145 123.809 33.9251 124.811 33.9251 126.146V128.871C33.9251 129.383 33.9251 129.965 33.9251 130.618C33.9251 131.254 33.9328 131.86 33.9483 132.434L35.1128 132.667V133.762H28.9876V132.667L30.1987 132.411C30.2142 131.836 30.2219 131.231 30.2219 130.594C30.2219 129.942 30.2219 129.368 30.2219 128.871V126.425C30.2219 125.665 30.1288 125.137 29.9425 124.842C29.7717 124.547 29.4456 124.399 28.9643 124.399C28.6538 124.399 28.3199 124.492 27.9628 124.679C27.6057 124.865 27.2486 125.129 26.8915 125.47V128.871C26.8915 129.352 26.8915 129.927 26.8915 130.594C26.8915 131.246 26.8992 131.86 26.9148 132.434L28.0094 132.667V133.762H21.8841ZM41.9645 134.111C40.7534 134.111 39.7053 133.863 38.8203 133.366C37.9353 132.853 37.2521 132.147 36.7708 131.246C36.2895 130.33 36.0488 129.275 36.0488 128.079C36.0488 126.883 36.305 125.843 36.8174 124.958C37.3453 124.073 38.0595 123.382 38.9601 122.885C39.8606 122.388 40.8621 122.14 41.9645 122.14C43.0669 122.14 44.0606 122.381 44.9456 122.862C45.8461 123.343 46.5604 124.034 47.0883 124.935C47.6162 125.82 47.8801 126.868 47.8801 128.079C47.8801 129.29 47.6395 130.346 47.1581 131.246C46.6768 132.147 45.9936 132.853 45.1086 133.366C44.2236 133.863 43.1756 134.111 41.9645 134.111ZM41.9645 132.9C42.6166 132.9 43.1057 132.52 43.4317 131.759C43.7578 130.998 43.9208 129.795 43.9208 128.149C43.9208 126.487 43.7578 125.276 43.4317 124.516C43.1057 123.755 42.6166 123.374 41.9645 123.374C41.2968 123.374 40.8 123.755 40.4739 124.516C40.1479 125.276 39.9848 126.487 39.9848 128.149C39.9848 129.795 40.1479 130.998 40.4739 131.759C40.8 132.52 41.2968 132.9 41.9645 132.9ZM53.3183 134.111C52.2781 134.111 51.4629 133.863 50.8729 133.366C50.2829 132.853 49.9879 132.023 49.9879 130.874C49.9879 130.47 49.9879 130.097 49.9879 129.756C50.0034 129.399 50.0112 128.995 50.0112 128.545V124.096H48.4973V122.722L50.2208 122.489L51.3853 119.229H53.7609L53.7143 122.513H56.1597V124.096H53.7143V130.618C53.7143 131.161 53.823 131.565 54.0403 131.829C54.2732 132.077 54.5605 132.201 54.9021 132.201C55.3058 132.201 55.725 132.03 56.1597 131.689L56.742 132.248C56.4314 132.838 55.9967 133.296 55.4377 133.622C54.8943 133.948 54.1878 134.111 53.3183 134.111ZM62.8554 134.111C61.6443 134.111 60.5963 133.863 59.7113 133.366C58.8263 132.853 58.1431 132.147 57.6618 131.246C57.1804 130.33 56.9398 129.275 56.9398 128.079C56.9398 126.883 57.196 125.843 57.7083 124.958C58.2362 124.073 58.9505 123.382 59.851 122.885C60.7516 122.388 61.753 122.14 62.8554 122.14C63.9578 122.14 64.9515 122.381 65.8365 122.862C66.7371 123.343 67.4513 124.034 67.9792 124.935C68.5071 125.82 68.7711 126.868 68.7711 128.079C68.7711 129.29 68.5304 130.346 68.0491 131.246C67.5678 132.147 66.8846 132.853 65.9996 133.366C65.1146 133.863 64.0665 134.111 62.8554 134.111ZM62.8554 132.9C63.5075 132.9 63.9966 132.52 64.3227 131.759C64.6488 130.998 64.8118 129.795 64.8118 128.149C64.8118 126.487 64.6488 125.276 64.3227 124.516C63.9966 123.755 63.5075 123.374 62.8554 123.374C62.1878 123.374 61.6909 123.755 61.3649 124.516C61.0388 125.276 60.8758 126.487 60.8758 128.149C60.8758 129.795 61.0388 130.998 61.3649 131.759C61.6909 132.52 62.1878 132.9 62.8554 132.9ZM74.7169 119.718V118.46H86.7579L86.9209 122.466H84.9878L84.522 119.764H80.4696C80.454 120.649 80.4385 121.542 80.423 122.443C80.423 123.343 80.423 124.252 80.423 125.168H83.0082L83.2877 123.351H84.6385V128.591H83.2877L82.9849 126.542H80.423C80.423 127.582 80.423 128.576 80.423 129.523C80.4385 130.455 80.454 131.378 80.4696 132.294L82.5424 132.504V133.762H74.7169V132.504L76.4637 132.318C76.4947 131.371 76.5103 130.416 76.5103 129.453C76.5103 128.49 76.5103 127.52 76.5103 126.542V125.68C76.5103 124.717 76.5103 123.755 76.5103 122.792C76.5103 121.814 76.4947 120.851 76.4637 119.904L74.7169 119.718ZM92.5656 134.111C91.3546 134.111 90.3065 133.863 89.4215 133.366C88.5365 132.853 87.8533 132.147 87.372 131.246C86.8906 130.33 86.65 129.275 86.65 128.079C86.65 126.883 86.9062 125.843 87.4185 124.958C87.9465 124.073 88.6607 123.382 89.5612 122.885C90.4618 122.388 91.4632 122.14 92.5656 122.14C93.668 122.14 94.6617 122.381 95.5468 122.862C96.4473 123.343 97.1615 124.034 97.6894 124.935C98.2173 125.82 98.4813 126.868 98.4813 128.079C98.4813 129.29 98.2406 130.346 97.7593 131.246C97.278 132.147 96.5948 132.853 95.7098 133.366C94.8248 133.863 93.7767 134.111 92.5656 134.111ZM92.5656 132.9C93.2178 132.9 93.7068 132.52 94.0329 131.759C94.359 130.998 94.522 129.795 94.522 128.149C94.522 126.487 94.359 125.276 94.0329 124.516C93.7068 123.755 93.2178 123.374 92.5656 123.374C91.898 123.374 91.4011 123.755 91.0751 124.516C90.749 125.276 90.586 126.487 90.586 128.149C90.586 129.795 90.749 130.998 91.0751 131.759C91.4011 132.52 91.898 132.9 92.5656 132.9ZM99.4478 133.762V132.667L100.729 132.388C100.744 131.798 100.752 131.208 100.752 130.618C100.768 130.028 100.775 129.445 100.775 128.871V119.112L99.3314 118.879V117.901L104.222 116.853L104.595 117.086L104.502 120.347V128.871C104.502 129.461 104.502 130.051 104.502 130.641C104.517 131.231 104.533 131.821 104.548 132.411L105.829 132.667V133.762H99.4478ZM110.749 128.195C110.749 129.469 110.974 130.439 111.425 131.107C111.875 131.759 112.457 132.085 113.171 132.085C113.699 132.085 114.181 131.906 114.615 131.549V124.609C114.196 124.283 113.738 124.12 113.241 124.12C112.527 124.12 111.929 124.453 111.448 125.121C110.982 125.789 110.749 126.814 110.749 128.195ZM114.918 134.018L114.732 132.69C113.831 133.638 112.737 134.111 111.448 134.111C110.578 134.111 109.786 133.886 109.072 133.436C108.374 132.985 107.822 132.326 107.419 131.456C107.015 130.571 106.813 129.5 106.813 128.242C106.813 126.969 107.054 125.882 107.535 124.981C108.032 124.065 108.669 123.367 109.445 122.885C110.237 122.388 111.067 122.14 111.937 122.14C112.542 122.14 113.07 122.249 113.521 122.466C113.971 122.668 114.382 122.971 114.755 123.374V119.112L113.125 118.879V117.901L118.039 116.853L118.412 117.086L118.318 120.347V132.434L119.46 132.667V133.762L114.918 134.018ZM126.161 123.351C125.727 123.351 125.323 123.623 124.95 124.166C124.593 124.694 124.391 125.672 124.345 127.101H126.324C126.883 127.101 127.256 126.992 127.442 126.775C127.644 126.542 127.745 126.161 127.745 125.634C127.745 124.857 127.59 124.283 127.279 123.91C126.969 123.537 126.596 123.351 126.161 123.351ZM126.208 134.111C125.074 134.111 124.073 133.878 123.203 133.412C122.334 132.931 121.651 132.248 121.154 131.363C120.657 130.462 120.409 129.391 120.409 128.149C120.409 126.845 120.696 125.75 121.27 124.865C121.86 123.964 122.613 123.289 123.53 122.839C124.446 122.373 125.4 122.14 126.394 122.14C127.419 122.14 128.288 122.357 129.003 122.792C129.732 123.227 130.284 123.817 130.656 124.562C131.029 125.292 131.215 126.13 131.215 127.077C131.215 127.528 131.169 127.939 131.075 128.312H124.345C124.422 129.538 124.756 130.447 125.346 131.037C125.952 131.611 126.658 131.899 127.466 131.899C128.102 131.899 128.646 131.782 129.096 131.549C129.546 131.301 129.942 130.998 130.284 130.641L131.099 131.386C130.617 132.302 129.965 132.985 129.142 133.436C128.319 133.886 127.341 134.111 126.208 134.111ZM132.275 133.762V132.667L133.555 132.411C133.571 131.836 133.579 131.223 133.579 130.571C133.579 129.919 133.579 129.352 133.579 128.871V127.497C133.579 127.062 133.571 126.705 133.555 126.425C133.555 126.146 133.548 125.89 133.532 125.657C133.532 125.408 133.524 125.129 133.509 124.818L132.088 124.609V123.7L136.676 122.14L137.096 122.396L137.305 125.144C137.631 124.151 138.089 123.405 138.679 122.909C139.269 122.396 139.852 122.14 140.426 122.14C140.938 122.14 141.381 122.288 141.754 122.583C142.126 122.862 142.359 123.289 142.452 123.863C142.437 124.469 142.274 124.943 141.963 125.284C141.653 125.61 141.264 125.773 140.799 125.773C140.147 125.773 139.549 125.408 139.005 124.679L138.866 124.492C138.524 124.818 138.206 125.23 137.911 125.727C137.631 126.224 137.429 126.744 137.305 127.287V128.871C137.305 129.352 137.305 129.903 137.305 130.524C137.305 131.145 137.313 131.728 137.328 132.271L139.168 132.667V133.762H132.275Z" fill="#161616"/>
<defs>
<filter id="filter0_dd_272_1731" x="17.9789" y="6.81804" width="114.042" height="103.788" filterUnits="userSpaceOnUse" color-interpolation-filters="sRGB">
<feFlood flood-opacity="0" result="BackgroundImageFix"/>
<feColorMatrix in="SourceAlpha" type="matrix" values="0 0 0 0 0 0 0 0 0 0 0 0 0 0 0 0 0 0 127 0" result="hardAlpha"/>
<feMorphology radius="0.730596" operator="erode" in="SourceAlpha" result="effect1_dropShadow_272_1731"/>
<feOffset dy="2.92239"/>
<feGaussianBlur stdDeviation="1.82649"/>
<feComposite in2="hardAlpha" operator="out"/>
<feColorMatrix type="matrix" values="0 0 0 0 0.0313726 0 0 0 0 0.0156863 0 0 0 0 0.00784314 0 0 0 0.08 0"/>
<feBlend mode="normal" in2="BackgroundImageFix" result="effect1_dropShadow_272_1731"/>
<feColorMatrix in="SourceAlpha" type="matrix" values="0 0 0 0 0 0 0 0 0 0 0 0 0 0 0 0 0 0 127 0" result="hardAlpha"/>
<feMorphology radius="0.365298" operator="dilate" in="SourceAlpha" result="effect2_dropShadow_272_1731"/>
<feOffset dy="1.46119"/>
<feGaussianBlur stdDeviation="1.46119"/>
<feComposite in2="hardAlpha" operator="out"/>
<feColorMatrix type="matrix" values="0 0 0 0 0.0313726 0 0 0 0 0.014902 0 0 0 0 0.00784314 0 0 0 0.16 0"/>
<feBlend mode="normal" in2="effect1_dropShadow_272_1731" result="effect2_dropShadow_272_1731"/>
<feBlend mode="normal" in="SourceGraphic" in2="effect2_dropShadow_272_1731" result="shape"/>
</filter>
<filter id="filter1_dii_272_1731" x="13.9377" y="14.8546" width="122.125" height="89.8998" filterUnits="userSpaceOnUse" color-interpolation-filters="sRGB">
<feFlood flood-opacity="0" result="BackgroundImageFix"/>
<feColorMatrix in="SourceAlpha" type="matrix" values="0 0 0 0 0 0 0 0 0 0 0 0 0 0 0 0 0 0 127 0" result="hardAlpha"/>
<feOffset dy="-1.8322"/>
<feGaussianBlur stdDeviation="3.6644"/>
<feComposite in2="hardAlpha" operator="out"/>
<feColorMatrix type="matrix" values="0 0 0 0 0 0 0 0 0 0.517647 0 0 0 0 0.803922 0 0 0 0.5 0"/>
<feBlend mode="multiply" in2="BackgroundImageFix" result="effect1_dropShadow_272_1731"/>
<feBlend mode="normal" in="SourceGraphic" in2="effect1_dropShadow_272_1731" result="shape"/>
<feColorMatrix in="SourceAlpha" type="matrix" values="0 0 0 0 0 0 0 0 0 0 0 0 0 0 0 0 0 0 127 0" result="hardAlpha"/>
<feOffset dy="-3.6644"/>
<feGaussianBlur stdDeviation="7.3288"/>
<feComposite in2="hardAlpha" operator="arithmetic" k2="-1" k3="1"/>
<feColorMatrix type="matrix" values="0 0 0 0 0.0466319 0 0 0 0 0.440508 0 0 0 0 0.658333 0 0 0 0.3 0"/>
<feBlend mode="multiply" in2="shape" result="effect2_innerShadow_272_1731"/>
<feColorMatrix in="SourceAlpha" type="matrix" values="0 0 0 0 0 0 0 0 0 0 0 0 0 0 0 0 0 0 127 0" result="hardAlpha"/>
<feOffset dy="0.687075"/>
<feGaussianBlur stdDeviation="0.343537"/>
<feComposite in2="hardAlpha" operator="arithmetic" k2="-1" k3="1"/>
<feColorMatrix type="matrix" values="0 0 0 0 1 0 0 0 0 1 0 0 0 0 1 0 0 0 0.2 0"/>
<feBlend mode="normal" in2="effect2_innerShadow_272_1731" result="effect3_innerShadow_272_1731"/>
</filter>
<linearGradient id="paint0_linear_272_1731" x1="75" y1="14.1501" x2="75" y2="104.762" gradientUnits="userSpaceOnUse">
<stop stop-color="#5BB1E0"/>
<stop offset="0.229272" stop-color="#0591DE"/>
</linearGradient>
</defs>
</svg>
