<svg width="150" height="151" viewBox="0 0 150 151" fill="none" xmlns="http://www.w3.org/2000/svg">
<g filter="url(#filter0_dd_272_1777)">
<mask id="mask0_272_1777" style="mask-type:alpha" maskUnits="userSpaceOnUse" x="6" y="13" width="138" height="124">
<path d="M22.9123 129.669H127.088C133.008 129.669 135.967 129.669 138.229 128.516C140.217 127.503 141.835 125.886 142.848 123.897C144 121.636 144 118.676 144 112.756V41.4664C144 35.5466 144 32.5867 142.848 30.3256C141.835 28.3367 140.217 26.7197 138.229 25.7063C135.967 24.5542 133.008 24.5542 127.088 24.5542H69.9351C66.7787 24.5542 62.7415 24.2606 58.7777 21.251C54.8138 18.2415 58.1904 20.8106 54.0064 17.5808C49.8223 14.3511 47.6887 13.6904 44.0234 13.6904H22.9123C16.9925 13.6904 14.0325 13.6904 11.7714 14.8425C9.78252 15.8559 8.16549 17.4729 7.15208 19.4618C6 21.7229 6 24.6828 6 30.6027V112.756C6 118.676 6 121.636 7.15208 123.897C8.16549 125.886 9.78252 127.503 11.7714 128.516C14.0325 129.669 16.9925 129.669 22.9123 129.669Z" fill="url(#paint0_linear_272_1777)"/>
</mask>
<g mask="url(#mask0_272_1777)">
<path d="M22.9123 129.669H127.088C133.008 129.669 135.967 129.669 138.229 128.516C140.217 127.503 141.835 125.886 142.848 123.897C144 121.636 144 118.676 144 112.756V41.4664C144 35.5466 144 32.5867 142.848 30.3256C141.835 28.3367 140.217 26.7197 138.229 25.7063C135.967 24.5542 133.008 24.5542 127.088 24.5542H69.9351C66.7787 24.5542 62.7415 24.2606 58.7777 21.251C54.8138 18.2415 58.1904 20.8106 54.0064 17.5808C49.8223 14.3511 47.6887 13.6904 44.0234 13.6904H22.9123C16.9925 13.6904 14.0325 13.6904 11.7714 14.8425C9.78252 15.8559 8.16549 17.4729 7.15208 19.4618C6 21.7229 6 24.6828 6 30.6027V112.756C6 118.676 6 121.636 7.15208 123.897C8.16549 125.886 9.78252 127.503 11.7714 128.516C14.0325 129.669 16.9925 129.669 22.9123 129.669Z" fill="#1C1E23"/>
<g filter="url(#filter1_dii_272_1777)">
<rect x="6" y="33.3643" width="138" height="96.3059" rx="10.5702" fill="#1C1E23"/>
</g>
<g style="mix-blend-mode:hard-light">
<path d="M54.6245 65.139H52.9776C52.9298 68.0986 52.8821 71.0821 52.8344 74.0894C52.8344 77.0967 52.8344 80.1279 52.8344 83.183V86.0471H54.9109C58.0614 86.0471 60.4243 85.0447 61.9996 83.0398C63.5748 80.9872 64.3625 78.3379 64.3625 75.0919C64.3625 71.7981 63.5032 69.3159 61.7848 67.6451C60.114 65.9744 57.7273 65.139 54.6245 65.139ZM35.2916 64.8526V60.986H54.7677C59.7321 60.986 63.7419 61.5827 66.797 62.7761C69.8521 63.9218 72.0718 65.5686 73.4561 67.7167C74.8881 69.8171 75.6042 72.2993 75.6042 75.1635C75.6042 77.8844 74.9359 80.3905 73.5993 82.6818C72.3104 84.9254 70.1623 86.7154 67.155 88.052C64.1477 89.3886 60.0424 90.0569 54.8393 90.0569H52.8344C52.8344 92.1095 52.8344 94.2815 52.8344 96.5728C52.8821 98.8164 52.9298 101.132 52.9776 103.518L59.3503 104.163V108.029H35.2916V104.163L40.6618 103.59C40.7573 100.678 40.8051 97.7423 40.8051 94.7827C40.8051 91.8231 40.8051 88.8397 40.8051 85.8323V83.183C40.8051 80.2234 40.8051 77.2638 40.8051 74.3042C40.8051 71.2969 40.7573 68.3373 40.6618 65.4254L35.2916 64.8526ZM77.7892 64.8526V60.986H114.808L115.309 73.3018H109.366L107.934 64.9958H95.4752C95.4274 67.7167 95.3797 70.4615 95.3319 73.2302C95.3319 75.9988 95.3319 78.7914 95.3319 81.6077H103.28L104.139 76.0227H108.292V92.1334H104.139L103.208 85.8323H95.3319C95.3319 89.0306 95.3319 92.0857 95.3319 94.9975C95.3797 97.8617 95.4274 100.702 95.4752 103.518L101.848 104.163V108.029H77.7892V104.163L83.1594 103.59C83.2549 100.678 83.3026 97.7423 83.3026 94.7827C83.3026 91.8231 83.3026 88.8397 83.3026 85.8323V83.183C83.3026 80.2234 83.3026 77.2638 83.3026 74.3042C83.3026 71.2969 83.2549 68.3373 83.1594 65.4254L77.7892 64.8526Z" fill="#F9F9F9" fill-opacity="0.97"/>
</g>
</g>
</g>
<defs>
<filter id="filter0_dd_272_1777" x="-4.2149" y="-2.13849" width="158.43" height="159.835" filterUnits="userSpaceOnUse" color-interpolation-filters="sRGB">
<feFlood flood-opacity="0" result="BackgroundImageFix"/>
<feColorMatrix in="SourceAlpha" type="matrix" values="0 0 0 0 0 0 0 0 0 0 0 0 0 0 0 0 0 0 127 0" result="hardAlpha"/>
<feMorphology radius="0.936645" operator="erode" in="SourceAlpha" result="effect1_dropShadow_272_1777"/>
<feOffset dy="3.74658"/>
<feGaussianBlur stdDeviation="2.34161"/>
<feComposite in2="hardAlpha" operator="out"/>
<feColorMatrix type="matrix" values="0 0 0 0 0.0313726 0 0 0 0 0.0156863 0 0 0 0 0.00784314 0 0 0 0.08 0"/>
<feBlend mode="normal" in2="BackgroundImageFix" result="effect1_dropShadow_272_1777"/>
<feColorMatrix in="SourceAlpha" type="matrix" values="0 0 0 0 0 0 0 0 0 0 0 0 0 0 0 0 0 0 127 0" result="hardAlpha"/>
<feMorphology radius="0.468322" operator="dilate" in="SourceAlpha" result="effect2_dropShadow_272_1777"/>
<feOffset dy="1.87329"/>
<feGaussianBlur stdDeviation="1.87329"/>
<feComposite in2="hardAlpha" operator="out"/>
<feColorMatrix type="matrix" values="0 0 0 0 0.0313726 0 0 0 0 0.014902 0 0 0 0 0.00784314 0 0 0 0.16 0"/>
<feBlend mode="normal" in2="effect1_dropShadow_272_1777" result="effect2_dropShadow_272_1777"/>
<feBlend mode="normal" in="SourceGraphic" in2="effect2_dropShadow_272_1777" result="shape"/>
</filter>
<filter id="filter1_dii_272_1777" x="-3.39572" y="21.6196" width="156.791" height="115.097" filterUnits="userSpaceOnUse" color-interpolation-filters="sRGB">
<feFlood flood-opacity="0" result="BackgroundImageFix"/>
<feColorMatrix in="SourceAlpha" type="matrix" values="0 0 0 0 0 0 0 0 0 0 0 0 0 0 0 0 0 0 127 0" result="hardAlpha"/>
<feOffset dy="-2.34893"/>
<feGaussianBlur stdDeviation="4.69786"/>
<feComposite in2="hardAlpha" operator="out"/>
<feColorMatrix type="matrix" values="0 0 0 0 0 0 0 0 0 0.517647 0 0 0 0 0.803922 0 0 0 0.5 0"/>
<feBlend mode="multiply" in2="BackgroundImageFix" result="effect1_dropShadow_272_1777"/>
<feBlend mode="normal" in="SourceGraphic" in2="effect1_dropShadow_272_1777" result="shape"/>
<feColorMatrix in="SourceAlpha" type="matrix" values="0 0 0 0 0 0 0 0 0 0 0 0 0 0 0 0 0 0 127 0" result="hardAlpha"/>
<feOffset dy="-4.69786"/>
<feGaussianBlur stdDeviation="9.39572"/>
<feComposite in2="hardAlpha" operator="arithmetic" k2="-1" k3="1"/>
<feColorMatrix type="matrix" values="0 0 0 0 0.0466319 0 0 0 0 0.440508 0 0 0 0 0.658333 0 0 0 0.3 0"/>
<feBlend mode="multiply" in2="shape" result="effect2_innerShadow_272_1777"/>
<feColorMatrix in="SourceAlpha" type="matrix" values="0 0 0 0 0 0 0 0 0 0 0 0 0 0 0 0 0 0 127 0" result="hardAlpha"/>
<feOffset dy="0.880849"/>
<feGaussianBlur stdDeviation="0.440424"/>
<feComposite in2="hardAlpha" operator="arithmetic" k2="-1" k3="1"/>
<feColorMatrix type="matrix" values="0 0 0 0 1 0 0 0 0 1 0 0 0 0 1 0 0 0 0.2 0"/>
<feBlend mode="normal" in2="effect2_innerShadow_272_1777" result="effect3_innerShadow_272_1777"/>
</filter>
<linearGradient id="paint0_linear_272_1777" x1="75" y1="20.7372" x2="75" y2="136.715" gradientUnits="userSpaceOnUse">
<stop stop-color="#5BB1E0"/>
<stop offset="0.229272" stop-color="#0591DE"/>
</linearGradient>
</defs>
</svg>
