<svg width="150" height="150" viewBox="0 0 150 150" fill="none" xmlns="http://www.w3.org/2000/svg">
<g filter="url(#filter0_dd_272_1740)">
<mask id="mask0_272_1740" style="mask-type:alpha" maskUnits="userSpaceOnUse" x="21" y="8" width="108" height="97">
<path d="M34.437 99.0533H115.563C120.173 99.0533 122.478 99.0533 124.239 98.1532C125.788 97.3615 127.047 96.0981 127.836 94.5442C128.733 92.7777 128.733 90.4651 128.733 85.84V30.1424C128.733 25.5173 128.733 23.2048 127.836 21.4382C127.047 19.8843 125.788 18.621 124.239 17.8292C122.478 16.9291 120.173 16.9291 115.563 16.9291H71.0557C68.5977 16.9291 65.4537 16.6997 62.3669 14.3484C59.2801 11.9971 61.9096 14.0043 58.6513 11.4809C55.393 8.95755 53.7314 8.44141 50.8771 8.44141H34.437C29.8269 8.44141 27.5218 8.44141 25.761 9.34151C24.2122 10.1333 22.9529 11.3966 22.1637 12.9505C21.2665 14.7171 21.2665 17.0296 21.2665 21.6547V85.84C21.2665 90.4651 21.2665 92.7777 22.1637 94.5442C22.9529 96.0981 24.2122 97.3615 25.761 98.1532C27.5218 99.0533 29.8269 99.0533 34.437 99.0533Z" fill="url(#paint0_linear_272_1740)"/>
</mask>
<g mask="url(#mask0_272_1740)">
<path d="M34.437 99.0533H115.563C120.173 99.0533 122.478 99.0533 124.239 98.1532C125.788 97.3615 127.047 96.0981 127.836 94.5442C128.733 92.7777 128.733 90.4651 128.733 85.84V30.1424C128.733 25.5173 128.733 23.2048 127.836 21.4382C127.047 19.8843 125.788 18.621 124.239 17.8292C122.478 16.9291 120.173 16.9291 115.563 16.9291H71.0557C68.5977 16.9291 65.4537 16.6997 62.3669 14.3484C59.2801 11.9971 61.9096 14.0043 58.6513 11.4809C55.393 8.95755 53.7314 8.44141 50.8771 8.44141H34.437C29.8269 8.44141 27.5218 8.44141 25.761 9.34151C24.2122 10.1333 22.9529 11.3966 22.1637 12.9505C21.2665 14.7171 21.2665 17.0296 21.2665 21.6547V85.84C21.2665 90.4651 21.2665 92.7777 22.1637 94.5442C22.9529 96.0981 24.2122 97.3615 25.761 98.1532C27.5218 99.0533 29.8269 99.0533 34.437 99.0533Z" fill="url(#paint1_radial_272_1740)"/>
<g filter="url(#filter1_dii_272_1740)">
<rect x="21.2665" y="23.8125" width="107.467" height="75.2423" rx="8.2449" fill="url(#paint2_radial_272_1740)"/>
</g>
<g style="mix-blend-mode:hard-light">
<path d="M59.1601 48.7208H57.8755C57.8383 51.0293 57.8011 53.3564 57.7638 55.7022C57.7638 58.0479 57.7638 60.4123 57.7638 62.7953V65.0294H59.3835C61.841 65.0294 63.6841 64.2475 64.9128 62.6836C66.1415 61.0825 66.7559 59.016 66.7559 56.4841C66.7559 53.9149 66.0857 51.9788 64.7453 50.6756C63.4421 49.3724 61.5803 48.7208 59.1601 48.7208ZM44.0802 48.4973V45.4814H59.2718C63.1442 45.4814 66.2719 45.9468 68.6549 46.8777C71.0379 47.7713 72.7693 49.0559 73.8491 50.7314C74.9661 52.3697 75.5246 54.3059 75.5246 56.54C75.5246 58.6623 75.0033 60.6171 73.9608 62.4044C72.9554 64.1544 71.2799 65.5507 68.9341 66.5932C66.5884 67.6358 63.3862 68.1571 59.3277 68.1571H57.7638C57.7638 69.7581 57.7638 71.4523 57.7638 73.2395C57.8011 74.9896 57.8383 76.7954 57.8755 78.6571L62.8463 79.1598V82.1758H44.0802V79.1598L48.2691 78.713C48.3435 76.4417 48.3808 74.1518 48.3808 71.8433C48.3808 69.5347 48.3808 67.2076 48.3808 64.8618V62.7953C48.3808 60.4868 48.3808 58.1783 48.3808 55.8697C48.3808 53.524 48.3435 51.2155 48.2691 48.9442L44.0802 48.4973ZM77.2289 48.4973V45.4814H106.104L106.495 55.0878H101.859L100.742 48.6091H91.0242C90.987 50.7314 90.9498 52.8724 90.9125 55.032C90.9125 57.1916 90.9125 59.3698 90.9125 61.5666H97.1121L97.7823 57.2102H101.022V69.7768H97.7823L97.0562 64.8618H90.9125C90.9125 67.3565 90.9125 69.7395 90.9125 72.0108C90.9498 74.2449 90.987 76.4603 91.0242 78.6571L95.995 79.1598V82.1758H77.2289V79.1598L81.4178 78.713C81.4923 76.4417 81.5295 74.1518 81.5295 71.8433C81.5295 69.5347 81.5295 67.2076 81.5295 64.8618V62.7953C81.5295 60.4868 81.5295 58.1783 81.5295 55.8697C81.5295 53.524 81.4923 51.2155 81.4178 48.9442L77.2289 48.4973Z" fill="#F9F9F9" fill-opacity="0.97"/>
</g>
</g>
</g>
<path d="M14.5569 119.608H14.0212C14.0057 120.571 13.9901 121.541 13.9746 122.519C13.9746 123.497 13.9746 124.483 13.9746 125.477V126.409H14.65C15.6748 126.409 16.4434 126.083 16.9557 125.43C17.4681 124.763 17.7243 123.901 17.7243 122.845C17.7243 121.774 17.4448 120.966 16.8859 120.423C16.3424 119.88 15.5661 119.608 14.5569 119.608ZM8.26857 119.515V118.257H14.6035C16.2182 118.257 17.5225 118.451 18.5162 118.839C19.5099 119.212 20.2319 119.748 20.6821 120.446C21.1479 121.129 21.3808 121.937 21.3808 122.868C21.3808 123.754 21.1635 124.569 20.7287 125.314C20.3095 126.044 19.6108 126.626 18.6326 127.061C17.6544 127.495 16.3191 127.713 14.6267 127.713H13.9746C13.9746 128.38 13.9746 129.087 13.9746 129.832C13.9901 130.562 14.0057 131.315 14.0212 132.091L16.094 132.301V133.559H8.26857V132.301L10.0153 132.115C10.0464 131.167 10.0619 130.213 10.0619 129.25C10.0619 128.287 10.0619 127.317 10.0619 126.339V125.477C10.0619 124.514 10.0619 123.552 10.0619 122.589C10.0619 121.611 10.0464 120.648 10.0153 119.701L8.26857 119.515ZM21.8841 133.559V132.464L23.1418 132.184C23.1573 131.626 23.1651 131.02 23.1651 130.368C23.1651 129.716 23.1651 129.149 23.1651 128.668V118.909L21.7211 118.676V117.698L26.5421 116.65L26.9148 116.883L26.8216 120.144V123.893C27.4427 123.163 28.0404 122.659 28.6149 122.379C29.2049 122.084 29.8415 121.937 30.5247 121.937C31.5495 121.937 32.3724 122.271 32.9935 122.938C33.6145 123.606 33.9251 124.607 33.9251 125.943V128.668C33.9251 129.18 33.9251 129.762 33.9251 130.414C33.9251 131.051 33.9328 131.657 33.9483 132.231L35.1128 132.464V133.559H28.9876V132.464L30.1987 132.208C30.2142 131.633 30.2219 131.028 30.2219 130.391C30.2219 129.739 30.2219 129.165 30.2219 128.668V126.222C30.2219 125.461 30.1288 124.934 29.9425 124.639C29.7717 124.344 29.4456 124.196 28.9643 124.196C28.6538 124.196 28.3199 124.289 27.9628 124.475C27.6057 124.662 27.2486 124.926 26.8915 125.267V128.668C26.8915 129.149 26.8915 129.724 26.8915 130.391C26.8915 131.043 26.8992 131.657 26.9148 132.231L28.0094 132.464V133.559H21.8841ZM41.9645 133.908C40.7534 133.908 39.7053 133.66 38.8203 133.163C37.9353 132.65 37.2521 131.944 36.7708 131.043C36.2895 130.127 36.0488 129.071 36.0488 127.876C36.0488 126.68 36.305 125.64 36.8174 124.755C37.3453 123.87 38.0595 123.179 38.9601 122.682C39.8606 122.185 40.8621 121.937 41.9645 121.937C43.0669 121.937 44.0606 122.178 44.9456 122.659C45.8461 123.14 46.5604 123.831 47.0883 124.732C47.6162 125.617 47.8801 126.665 47.8801 127.876C47.8801 129.087 47.6395 130.143 47.1581 131.043C46.6768 131.944 45.9936 132.65 45.1086 133.163C44.2236 133.66 43.1756 133.908 41.9645 133.908ZM41.9645 132.697C42.6166 132.697 43.1057 132.316 43.4317 131.556C43.7578 130.795 43.9208 129.592 43.9208 127.946C43.9208 126.284 43.7578 125.073 43.4317 124.312C43.1057 123.552 42.6166 123.171 41.9645 123.171C41.2968 123.171 40.8 123.552 40.4739 124.312C40.1479 125.073 39.9848 126.284 39.9848 127.946C39.9848 129.592 40.1479 130.795 40.4739 131.556C40.8 132.316 41.2968 132.697 41.9645 132.697ZM53.3183 133.908C52.2781 133.908 51.4629 133.66 50.8729 133.163C50.2829 132.65 49.9879 131.82 49.9879 130.671C49.9879 130.267 49.9879 129.894 49.9879 129.553C50.0034 129.196 50.0112 128.792 50.0112 128.342V123.893H48.4973V122.519L50.2208 122.286L51.3853 119.026H53.7609L53.7143 122.31H56.1597V123.893H53.7143V130.414C53.7143 130.958 53.823 131.362 54.0403 131.626C54.2732 131.874 54.5605 131.998 54.9021 131.998C55.3058 131.998 55.725 131.827 56.1597 131.486L56.742 132.045C56.4314 132.635 55.9967 133.093 55.4377 133.419C54.8943 133.745 54.1878 133.908 53.3183 133.908ZM62.8554 133.908C61.6443 133.908 60.5963 133.66 59.7113 133.163C58.8263 132.65 58.1431 131.944 57.6618 131.043C57.1804 130.127 56.9398 129.071 56.9398 127.876C56.9398 126.68 57.196 125.64 57.7083 124.755C58.2362 123.87 58.9505 123.179 59.851 122.682C60.7516 122.185 61.753 121.937 62.8554 121.937C63.9578 121.937 64.9515 122.178 65.8365 122.659C66.7371 123.14 67.4513 123.831 67.9792 124.732C68.5071 125.617 68.7711 126.665 68.7711 127.876C68.7711 129.087 68.5304 130.143 68.0491 131.043C67.5678 131.944 66.8846 132.65 65.9996 133.163C65.1146 133.66 64.0665 133.908 62.8554 133.908ZM62.8554 132.697C63.5075 132.697 63.9966 132.316 64.3227 131.556C64.6488 130.795 64.8118 129.592 64.8118 127.946C64.8118 126.284 64.6488 125.073 64.3227 124.312C63.9966 123.552 63.5075 123.171 62.8554 123.171C62.1878 123.171 61.6909 123.552 61.3649 124.312C61.0388 125.073 60.8758 126.284 60.8758 127.946C60.8758 129.592 61.0388 130.795 61.3649 131.556C61.6909 132.316 62.1878 132.697 62.8554 132.697ZM74.7169 119.515V118.257H86.7579L86.9209 122.263H84.9878L84.522 119.561H80.4696C80.454 120.446 80.4385 121.339 80.423 122.24C80.423 123.14 80.423 124.049 80.423 124.965H83.0082L83.2877 123.148H84.6385V128.388H83.2877L82.9849 126.339H80.423C80.423 127.379 80.423 128.373 80.423 129.32C80.4385 130.251 80.454 131.175 80.4696 132.091L82.5424 132.301V133.559H74.7169V132.301L76.4637 132.115C76.4947 131.167 76.5103 130.213 76.5103 129.25C76.5103 128.287 76.5103 127.317 76.5103 126.339V125.477C76.5103 124.514 76.5103 123.552 76.5103 122.589C76.5103 121.611 76.4947 120.648 76.4637 119.701L74.7169 119.515ZM92.5656 133.908C91.3546 133.908 90.3065 133.66 89.4215 133.163C88.5365 132.65 87.8533 131.944 87.372 131.043C86.8906 130.127 86.65 129.071 86.65 127.876C86.65 126.68 86.9062 125.64 87.4185 124.755C87.9465 123.87 88.6607 123.179 89.5612 122.682C90.4618 122.185 91.4632 121.937 92.5656 121.937C93.668 121.937 94.6617 122.178 95.5468 122.659C96.4473 123.14 97.1615 123.831 97.6894 124.732C98.2173 125.617 98.4813 126.665 98.4813 127.876C98.4813 129.087 98.2406 130.143 97.7593 131.043C97.278 131.944 96.5948 132.65 95.7098 133.163C94.8248 133.66 93.7767 133.908 92.5656 133.908ZM92.5656 132.697C93.2178 132.697 93.7068 132.316 94.0329 131.556C94.359 130.795 94.522 129.592 94.522 127.946C94.522 126.284 94.359 125.073 94.0329 124.312C93.7068 123.552 93.2178 123.171 92.5656 123.171C91.898 123.171 91.4011 123.552 91.0751 124.312C90.749 125.073 90.586 126.284 90.586 127.946C90.586 129.592 90.749 130.795 91.0751 131.556C91.4011 132.316 91.898 132.697 92.5656 132.697ZM99.4478 133.559V132.464L100.729 132.184C100.744 131.594 100.752 131.004 100.752 130.414C100.768 129.824 100.775 129.242 100.775 128.668V118.909L99.3314 118.676V117.698L104.222 116.65L104.595 116.883L104.502 120.144V128.668C104.502 129.258 104.502 129.848 104.502 130.438C104.517 131.028 104.533 131.618 104.548 132.208L105.829 132.464V133.559H99.4478ZM110.749 127.992C110.749 129.265 110.974 130.236 111.425 130.904C111.875 131.556 112.457 131.882 113.171 131.882C113.699 131.882 114.181 131.703 114.615 131.346V124.406C114.196 124.08 113.738 123.917 113.241 123.917C112.527 123.917 111.929 124.25 111.448 124.918C110.982 125.586 110.749 126.61 110.749 127.992ZM114.918 133.815L114.732 132.487C113.831 133.434 112.737 133.908 111.448 133.908C110.578 133.908 109.786 133.683 109.072 133.233C108.374 132.782 107.822 132.122 107.419 131.253C107.015 130.368 106.813 129.297 106.813 128.039C106.813 126.766 107.054 125.679 107.535 124.778C108.032 123.862 108.669 123.163 109.445 122.682C110.237 122.185 111.067 121.937 111.937 121.937C112.542 121.937 113.07 122.046 113.521 122.263C113.971 122.465 114.382 122.768 114.755 123.171V118.909L113.125 118.676V117.698L118.039 116.65L118.412 116.883L118.318 120.144V132.231L119.46 132.464V133.559L114.918 133.815ZM126.161 123.148C125.727 123.148 125.323 123.42 124.95 123.963C124.593 124.491 124.391 125.469 124.345 126.898H126.324C126.883 126.898 127.256 126.789 127.442 126.572C127.644 126.339 127.745 125.958 127.745 125.43C127.745 124.654 127.59 124.08 127.279 123.707C126.969 123.334 126.596 123.148 126.161 123.148ZM126.208 133.908C125.074 133.908 124.073 133.675 123.203 133.209C122.334 132.728 121.651 132.045 121.154 131.16C120.657 130.259 120.409 129.188 120.409 127.946C120.409 126.641 120.696 125.547 121.27 124.662C121.86 123.761 122.613 123.086 123.53 122.636C124.446 122.17 125.4 121.937 126.394 121.937C127.419 121.937 128.288 122.154 129.003 122.589C129.732 123.024 130.284 123.614 130.656 124.359C131.029 125.089 131.215 125.927 131.215 126.874C131.215 127.325 131.169 127.736 131.075 128.109H124.345C124.422 129.335 124.756 130.244 125.346 130.834C125.952 131.408 126.658 131.695 127.466 131.695C128.102 131.695 128.646 131.579 129.096 131.346C129.546 131.098 129.942 130.795 130.284 130.438L131.099 131.183C130.617 132.099 129.965 132.782 129.142 133.233C128.319 133.683 127.341 133.908 126.208 133.908ZM132.275 133.559V132.464L133.555 132.208C133.571 131.633 133.579 131.02 133.579 130.368C133.579 129.716 133.579 129.149 133.579 128.668V127.294C133.579 126.859 133.571 126.502 133.555 126.222C133.555 125.943 133.548 125.687 133.532 125.454C133.532 125.205 133.524 124.926 133.509 124.615L132.088 124.406V123.497L136.676 121.937L137.096 122.193L137.305 124.941C137.631 123.948 138.089 123.202 138.679 122.705C139.269 122.193 139.852 121.937 140.426 121.937C140.938 121.937 141.381 122.084 141.754 122.379C142.126 122.659 142.359 123.086 142.452 123.66C142.437 124.266 142.274 124.739 141.963 125.081C141.653 125.407 141.264 125.57 140.799 125.57C140.147 125.57 139.549 125.205 139.005 124.475L138.866 124.289C138.524 124.615 138.206 125.027 137.911 125.524C137.631 126.02 137.429 126.541 137.305 127.084V128.668C137.305 129.149 137.305 129.7 137.305 130.321C137.305 130.942 137.313 131.525 137.328 132.068L139.168 132.464V133.559H132.275Z" fill="white"/>
<defs>
<filter id="filter0_dd_272_1740" x="17.9789" y="6.61492" width="114.042" height="103.788" filterUnits="userSpaceOnUse" color-interpolation-filters="sRGB">
<feFlood flood-opacity="0" result="BackgroundImageFix"/>
<feColorMatrix in="SourceAlpha" type="matrix" values="0 0 0 0 0 0 0 0 0 0 0 0 0 0 0 0 0 0 127 0" result="hardAlpha"/>
<feMorphology radius="0.730596" operator="erode" in="SourceAlpha" result="effect1_dropShadow_272_1740"/>
<feOffset dy="2.92239"/>
<feGaussianBlur stdDeviation="1.82649"/>
<feComposite in2="hardAlpha" operator="out"/>
<feColorMatrix type="matrix" values="0 0 0 0 0.0313726 0 0 0 0 0.0156863 0 0 0 0 0.00784314 0 0 0 0.08 0"/>
<feBlend mode="normal" in2="BackgroundImageFix" result="effect1_dropShadow_272_1740"/>
<feColorMatrix in="SourceAlpha" type="matrix" values="0 0 0 0 0 0 0 0 0 0 0 0 0 0 0 0 0 0 127 0" result="hardAlpha"/>
<feMorphology radius="0.365298" operator="dilate" in="SourceAlpha" result="effect2_dropShadow_272_1740"/>
<feOffset dy="1.46119"/>
<feGaussianBlur stdDeviation="1.46119"/>
<feComposite in2="hardAlpha" operator="out"/>
<feColorMatrix type="matrix" values="0 0 0 0 0.0313726 0 0 0 0 0.014902 0 0 0 0 0.00784314 0 0 0 0.16 0"/>
<feBlend mode="normal" in2="effect1_dropShadow_272_1740" result="effect2_dropShadow_272_1740"/>
<feBlend mode="normal" in="SourceGraphic" in2="effect2_dropShadow_272_1740" result="shape"/>
</filter>
<filter id="filter1_dii_272_1740" x="13.9377" y="14.6515" width="122.125" height="89.8998" filterUnits="userSpaceOnUse" color-interpolation-filters="sRGB">
<feFlood flood-opacity="0" result="BackgroundImageFix"/>
<feColorMatrix in="SourceAlpha" type="matrix" values="0 0 0 0 0 0 0 0 0 0 0 0 0 0 0 0 0 0 127 0" result="hardAlpha"/>
<feOffset dy="-1.8322"/>
<feGaussianBlur stdDeviation="3.6644"/>
<feComposite in2="hardAlpha" operator="out"/>
<feColorMatrix type="matrix" values="0 0 0 0 0 0 0 0 0 0.517647 0 0 0 0 0.803922 0 0 0 0.5 0"/>
<feBlend mode="multiply" in2="BackgroundImageFix" result="effect1_dropShadow_272_1740"/>
<feBlend mode="normal" in="SourceGraphic" in2="effect1_dropShadow_272_1740" result="shape"/>
<feColorMatrix in="SourceAlpha" type="matrix" values="0 0 0 0 0 0 0 0 0 0 0 0 0 0 0 0 0 0 127 0" result="hardAlpha"/>
<feOffset dy="-3.6644"/>
<feGaussianBlur stdDeviation="7.3288"/>
<feComposite in2="hardAlpha" operator="arithmetic" k2="-1" k3="1"/>
<feColorMatrix type="matrix" values="0 0 0 0 0.0466319 0 0 0 0 0.440508 0 0 0 0 0.658333 0 0 0 0.3 0"/>
<feBlend mode="multiply" in2="shape" result="effect2_innerShadow_272_1740"/>
<feColorMatrix in="SourceAlpha" type="matrix" values="0 0 0 0 0 0 0 0 0 0 0 0 0 0 0 0 0 0 127 0" result="hardAlpha"/>
<feOffset dy="0.687075"/>
<feGaussianBlur stdDeviation="0.343537"/>
<feComposite in2="hardAlpha" operator="arithmetic" k2="-1" k3="1"/>
<feColorMatrix type="matrix" values="0 0 0 0 1 0 0 0 0 1 0 0 0 0 1 0 0 0 0.2 0"/>
<feBlend mode="normal" in2="effect2_innerShadow_272_1740" result="effect3_innerShadow_272_1740"/>
</filter>
<linearGradient id="paint0_linear_272_1740" x1="75" y1="13.9469" x2="75" y2="104.559" gradientUnits="userSpaceOnUse">
<stop stop-color="#5BB1E0"/>
<stop offset="0.229272" stop-color="#0591DE"/>
</linearGradient>
<radialGradient id="paint1_radial_272_1740" cx="0" cy="0" r="1" gradientUnits="userSpaceOnUse" gradientTransform="translate(128.733 104.559) rotate(-138.191) scale(144.179 191.173)">
<stop stop-color="#0164E3"/>
<stop offset="1" stop-color="#3394F0"/>
</radialGradient>
<radialGradient id="paint2_radial_272_1740" cx="0" cy="0" r="1" gradientUnits="userSpaceOnUse" gradientTransform="translate(128.733 99.0549) rotate(-145.002) scale(131.189 164.472)">
<stop stop-color="#0164E3"/>
<stop offset="1" stop-color="#3394F0"/>
</radialGradient>
</defs>
</svg>
