<svg width="416" height="80" viewBox="0 0 416 80" fill="none" xmlns="http://www.w3.org/2000/svg">
<g filter="url(#filter0_dd_272_1684)">
<mask id="mask0_272_1684" style="mask-type:alpha" maskUnits="userSpaceOnUse" x="3" y="2" width="87" height="73">
<path d="M13.6131 74.7809H78.9869C82.7018 74.7809 84.5593 74.7809 85.9782 74.0579C87.2263 73.4219 88.2411 72.4072 88.877 71.1591C89.6 69.7402 89.6 67.8827 89.6 64.1678V19.4306C89.6 15.7156 89.6 13.8582 88.877 12.4392C88.2411 11.1911 87.2263 10.1764 85.9782 9.54042C84.5593 8.81745 82.7018 8.81745 78.9869 8.81745H43.1216C41.1409 8.81745 38.6073 8.63319 36.1199 6.74458C33.6324 4.85596 35.7514 6.46819 33.1257 4.44138C30.5001 2.41457 29.1611 2 26.8611 2H13.6131C9.89817 2 8.0407 2 6.62179 2.72298C5.37367 3.35892 4.35892 4.37367 3.72297 5.62179C3 7.0407 3 8.89817 3 12.6131V64.1678C3 67.8827 3 69.7402 3.72297 71.1591C4.35892 72.4072 5.37367 73.4219 6.62179 74.0579C8.0407 74.7809 9.89817 74.7809 13.6131 74.7809Z" fill="url(#paint0_linear_272_1684)"/>
</mask>
<g mask="url(#mask0_272_1684)">
<path d="M13.6131 74.7809H78.9869C82.7018 74.7809 84.5593 74.7809 85.9782 74.0579C87.2263 73.4219 88.2411 72.4072 88.877 71.1591C89.6 69.7402 89.6 67.8827 89.6 64.1678V19.4306C89.6 15.7156 89.6 13.8582 88.877 12.4392C88.2411 11.1911 87.2263 10.1764 85.9782 9.54042C84.5593 8.81745 82.7018 8.81745 78.9869 8.81745H43.1216C41.1409 8.81745 38.6073 8.63319 36.1199 6.74458C33.6324 4.85596 35.7514 6.46819 33.1257 4.44138C30.5001 2.41457 29.1611 2 26.8611 2H13.6131C9.89817 2 8.0407 2 6.62179 2.72298C5.37367 3.35892 4.35892 4.37367 3.72297 5.62179C3 7.0407 3 8.89817 3 12.6131V64.1678C3 67.8827 3 69.7402 3.72297 71.1591C4.35892 72.4072 5.37367 73.4219 6.62179 74.0579C8.0407 74.7809 9.89817 74.7809 13.6131 74.7809Z" fill="url(#paint1_radial_272_1684)"/>
<g filter="url(#filter1_dii_272_1684)">
<rect x="3" y="14.3457" width="86.6" height="60.4358" rx="6.63319" fill="url(#paint2_radial_272_1684)"/>
</g>
<g style="mix-blend-mode:hard-light">
<path d="M35.6704 61.5412C33.8131 61.5412 32.0308 61.2267 30.3233 60.5976C28.6158 59.9386 27.0881 58.965 25.7401 57.6769C24.422 56.3589 23.3736 54.7263 22.5947 52.7792C21.8159 50.832 21.4264 48.5404 21.4264 45.9043C21.4264 43.3281 21.8159 41.0665 22.5947 39.1193C23.3736 37.1722 24.437 35.5546 25.785 34.2665C27.133 32.9484 28.6608 31.9599 30.3682 31.3009C32.0757 30.6418 33.8431 30.3123 35.6704 30.3123C37.5277 30.3123 39.2951 30.6418 40.9726 31.3009C42.6801 31.9299 44.2078 32.8885 45.5558 34.1766C46.9038 35.4647 47.9673 37.0973 48.7461 39.0744C49.525 41.0215 49.9144 43.2982 49.9144 45.9043C49.9144 48.5105 49.525 50.7871 48.7461 52.7342C47.9673 54.6814 46.9038 56.314 45.5558 57.632C44.2378 58.9201 42.725 59.8937 41.0175 60.5527C39.31 61.2117 37.5277 61.5412 35.6704 61.5412ZM35.6704 58.9351C37.1982 58.9351 38.4114 58.3659 39.31 57.2276C40.2387 56.0893 40.9127 54.5466 41.3321 52.5994C41.7514 50.6224 41.9611 48.3906 41.9611 45.9043C41.9611 43.418 41.7514 41.2013 41.3321 39.2541C40.9127 37.307 40.2387 35.7643 39.31 34.626C38.4114 33.4876 37.1982 32.9185 35.6704 32.9185C34.1726 32.9185 32.9594 33.4876 32.0308 34.626C31.1021 35.7643 30.4281 37.307 30.0088 39.2541C29.5894 41.2013 29.3797 43.418 29.3797 45.9043C29.3797 48.3906 29.5894 50.6224 30.0088 52.5994C30.4281 54.5466 31.1021 56.0893 32.0308 57.2276C32.9594 58.3659 34.1726 58.9351 35.6704 58.9351ZM51.8679 33.5925V31.1661H75.0987L75.4132 38.8947H71.6837L70.785 33.6824H62.9666C62.9366 35.3898 62.9067 37.1123 62.8767 38.8497C62.8767 40.5872 62.8767 42.3396 62.8767 44.107H67.8643L68.4035 40.6021H71.0097V50.7122H68.4035L67.8194 46.7581H62.8767C62.8767 48.7651 62.8767 50.6823 62.8767 52.5096C62.9067 54.3069 62.9366 56.0893 62.9666 57.8567L66.9657 58.2611V60.6875H51.8679V58.2611L55.238 57.9016C55.2979 56.0743 55.3278 54.232 55.3278 52.3748C55.3278 50.5175 55.3278 48.6453 55.3278 46.7581V45.0955C55.3278 43.2383 55.3278 41.381 55.3278 39.5237C55.3278 37.6365 55.2979 35.7793 55.238 33.952L51.8679 33.5925Z" fill="#F9F9F9" fill-opacity="0.97"/>
</g>
</g>
</g>
<path d="M125.173 58.9309C123.035 58.9309 120.953 58.5255 118.925 57.7145C116.898 56.8667 115.073 55.6319 113.451 54.01C111.83 52.3881 110.539 50.3791 109.581 47.9831C108.659 45.5503 108.199 42.7488 108.199 39.5788C108.199 36.5561 108.678 33.8468 109.636 31.4509C110.595 29.0549 111.866 27.0275 113.451 25.3688C115.073 23.71 116.898 22.4567 118.925 21.6089C120.953 20.7242 123.035 20.2819 125.173 20.2819C127.311 20.2819 129.375 20.7058 131.366 21.5536C133.393 22.3646 135.2 23.581 136.785 25.2029C138.407 26.8248 139.697 28.8337 140.655 31.2297C141.613 33.6257 142.093 36.4087 142.093 39.5788C142.093 42.6014 141.613 45.3107 140.655 47.7067C139.734 50.1027 138.462 52.1485 136.84 53.8441C135.255 55.5028 133.449 56.7746 131.421 57.6592C129.394 58.507 127.311 58.9309 125.173 58.9309ZM125.173 56.1663C127.09 56.1663 128.73 55.7056 130.094 54.784C131.495 53.8257 132.619 52.5724 133.467 51.0242C134.352 49.4392 134.997 47.6698 135.402 45.7162C135.808 43.7257 136.011 41.6799 136.011 39.5788C136.011 37.5145 135.808 35.5056 135.402 33.552C134.997 31.5614 134.352 29.7737 133.467 28.1886C132.619 26.6036 131.495 25.3503 130.094 24.4288C128.73 23.5073 127.09 23.0465 125.173 23.0465C123.257 23.0465 121.598 23.5073 120.197 24.4288C118.833 25.3503 117.709 26.6036 116.824 28.1886C115.94 29.7737 115.276 31.5614 114.834 33.552C114.428 35.5056 114.226 37.5145 114.226 39.5788C114.226 41.6799 114.428 43.7257 114.834 45.7162C115.276 47.6698 115.94 49.4392 116.824 51.0242C117.709 52.5724 118.833 53.8257 120.197 54.784C121.598 55.7056 123.257 56.1663 125.173 56.1663ZM146.352 58.1016V56.1111L150.443 55.337C150.48 53.9362 150.499 52.4249 150.499 50.803C150.536 49.1811 150.554 47.7435 150.554 46.4903V43.8363C150.554 42.3249 150.536 41.0717 150.499 40.0764C150.499 39.0811 150.462 38.0306 150.388 36.9248L146.02 36.4271V34.4919L153.761 31.1191L154.59 31.672L155.033 36.0954C156.397 34.6209 157.963 33.4229 159.732 32.5014C161.502 31.5799 163.234 31.1191 164.93 31.1191C167.326 31.1191 169.095 31.9301 170.238 33.552C171.418 35.137 172.007 37.7357 172.007 41.3481V46.4903C172.007 47.7435 172.007 49.1811 172.007 50.803C172.044 52.4249 172.081 53.9362 172.118 55.337L175.988 56.1111V58.1016H163.161V56.1111L167.252 55.337C167.289 53.9731 167.307 52.4802 167.307 50.8583C167.344 49.1996 167.363 47.7435 167.363 46.4903V41.7904C167.363 39.247 166.994 37.4961 166.257 36.5377C165.557 35.5793 164.395 35.1001 162.774 35.1001C161.52 35.1001 160.304 35.3582 159.124 35.8742C157.945 36.3903 156.655 37.2381 155.254 38.4176V46.4903C155.254 47.7067 155.254 49.1443 155.254 50.803C155.291 52.4249 155.328 53.9362 155.364 55.337L159.18 56.1111V58.1016H146.352ZM191.992 33.6625C190.96 33.6625 189.91 33.9574 188.841 34.5472C187.809 35.137 186.905 36.077 186.131 37.3671C185.394 38.6572 184.915 40.3713 184.694 42.5092H194.757C196.084 42.5092 196.95 42.2328 197.356 41.6799C197.798 41.1269 198.019 40.445 198.019 39.6341C198.019 38.5651 197.743 37.5883 197.19 36.7036C196.674 35.7821 195.955 35.0448 195.033 34.4919C194.149 33.939 193.135 33.6625 191.992 33.6625ZM191.937 58.8204C188.214 58.8204 185.228 57.6224 182.98 55.2264C180.731 52.7935 179.607 49.4576 179.607 45.2185C179.607 42.3802 180.178 39.9105 181.321 37.8094C182.501 35.7083 184.049 34.068 185.965 32.8885C187.919 31.7089 190.039 31.1191 192.324 31.1191C194.241 31.1191 195.973 31.543 197.521 32.3908C199.07 33.2386 200.304 34.4551 201.226 36.0401C202.148 37.5883 202.608 39.4866 202.608 41.7352C202.608 42.3618 202.571 42.9516 202.498 43.5045C202.424 44.0206 202.332 44.4629 202.221 44.8315H184.583C184.657 48.2227 185.505 50.803 187.127 52.5724C188.748 54.3417 190.886 55.2264 193.54 55.2264C195.31 55.2264 196.784 54.8762 197.964 54.1758C199.143 53.4386 200.231 52.4986 201.226 51.3559L202.553 52.4065C201.521 54.3601 200.12 55.9267 198.351 57.1063C196.582 58.249 194.444 58.8204 191.937 58.8204ZM219.537 23.3782V21.1113H247.072L247.459 30.8979H244.307L243.091 23.8759H230.097C230.061 26.235 230.024 28.5941 229.987 30.9532C229.987 33.3124 229.987 35.6346 229.987 37.92H238.557L239.331 32.6673H241.875V46.2691H239.331L238.557 40.5187H229.987C229.987 43.2465 229.987 45.8083 229.987 48.2043C230.024 50.6003 230.061 52.941 230.097 55.2264L235.24 55.8346V58.1016H219.537V55.8346L224.624 55.2264C224.697 52.9041 224.734 50.545 224.734 48.149C224.734 45.753 224.734 43.3571 224.734 40.9611V38.2518C224.734 35.8558 224.734 33.4782 224.734 31.1191C224.734 28.7231 224.697 26.3456 224.624 23.9865L219.537 23.3782ZM261.453 58.8204C259.315 58.8204 257.269 58.3227 255.315 57.3275C253.399 56.2954 251.832 54.7656 250.616 52.7382C249.399 50.674 248.791 48.1306 248.791 45.108C248.791 42.0485 249.399 39.4866 250.616 37.4224C251.832 35.3213 253.399 33.7547 255.315 32.7226C257.269 31.6536 259.315 31.1191 261.453 31.1191C263.591 31.1191 265.618 31.6536 267.535 32.7226C269.488 33.7547 271.074 35.3213 272.29 37.4224C273.543 39.4866 274.17 42.0485 274.17 45.108C274.17 48.1306 273.543 50.674 272.29 52.7382C271.074 54.7656 269.488 56.2954 267.535 57.3275C265.618 58.3227 263.591 58.8204 261.453 58.8204ZM261.453 56.3322C263.849 56.3322 265.692 55.3923 266.982 53.5123C268.272 51.5955 268.917 48.7941 268.917 45.108C268.917 41.385 268.272 38.5467 266.982 36.593C265.692 34.6394 263.849 33.6625 261.453 33.6625C259.057 33.6625 257.214 34.6394 255.924 36.593C254.67 38.5467 254.044 41.385 254.044 45.108C254.044 48.7941 254.67 51.5955 255.924 53.5123C257.214 55.3923 259.057 56.3322 261.453 56.3322ZM276.938 58.1016V56.1111L281.361 55.337C281.398 53.8257 281.417 52.3512 281.417 50.9136C281.453 49.4392 281.472 47.9647 281.472 46.4903V22.2171L276.938 21.6642V19.729L285.563 17.2408L286.338 17.6832L286.116 25.5346V46.4903C286.116 47.9647 286.116 49.4392 286.116 50.9136C286.153 52.3881 286.19 53.8625 286.227 55.337L290.65 56.1111V58.1016H276.938ZM298.936 45.108C298.936 48.7204 299.655 51.3928 301.092 53.1253C302.567 54.8209 304.41 55.6687 306.621 55.6687C307.838 55.6687 308.907 55.4291 309.828 54.9499C310.787 54.4339 311.782 53.6045 312.814 52.4618V37.1459C311.561 36.0401 310.437 35.2844 309.441 34.879C308.446 34.4735 307.488 34.2708 306.566 34.2708C305.202 34.2708 303.931 34.6578 302.751 35.4319C301.608 36.1691 300.687 37.3487 299.986 38.9706C299.286 40.5556 298.936 42.6014 298.936 45.108ZM313.367 58.6545L312.98 54.8393C312.022 56.0926 310.916 57.0694 309.663 57.7698C308.446 58.4702 306.972 58.8204 305.239 58.8204C302.991 58.8204 301.019 58.249 299.323 57.1063C297.627 55.9636 296.3 54.3786 295.342 52.3512C294.42 50.287 293.96 47.9094 293.96 45.2185C293.96 42.3802 294.476 39.9105 295.508 37.8094C296.54 35.7083 297.941 34.068 299.71 32.8885C301.479 31.7089 303.488 31.1191 305.737 31.1191C307.027 31.1191 308.262 31.3771 309.441 31.8932C310.658 32.4093 311.837 33.3492 312.98 34.7131V22.2171L308.28 21.6642V19.729L316.906 17.2408L317.68 17.6832L317.459 25.5346V55.4476L321.937 56.1111V58.1016L313.367 58.6545ZM337.164 33.6625C336.132 33.6625 335.081 33.9574 334.012 34.5472C332.98 35.137 332.077 36.077 331.303 37.3671C330.566 38.6572 330.086 40.3713 329.865 42.5092H339.928C341.255 42.5092 342.122 42.2328 342.527 41.6799C342.969 41.1269 343.191 40.445 343.191 39.6341C343.191 38.5651 342.914 37.5883 342.361 36.7036C341.845 35.7821 341.126 35.0448 340.205 34.4919C339.32 33.939 338.306 33.6625 337.164 33.6625ZM337.108 58.8204C333.385 58.8204 330.4 57.6224 328.151 55.2264C325.903 52.7935 324.778 49.4576 324.778 45.2185C324.778 42.3802 325.35 39.9105 326.492 37.8094C327.672 35.7083 329.22 34.068 331.137 32.8885C333.091 31.7089 335.21 31.1191 337.496 31.1191C339.412 31.1191 341.145 31.543 342.693 32.3908C344.241 33.2386 345.476 34.4551 346.398 36.0401C347.319 37.5883 347.78 39.4866 347.78 41.7352C347.78 42.3618 347.743 42.9516 347.669 43.5045C347.596 44.0206 347.503 44.4629 347.393 44.8315H329.755C329.828 48.2227 330.676 50.803 332.298 52.5724C333.92 54.3417 336.058 55.2264 338.712 55.2264C340.481 55.2264 341.956 54.8762 343.135 54.1758C344.315 53.4386 345.402 52.4986 346.398 51.3559L347.725 52.4065C346.692 54.3601 345.292 55.9267 343.522 57.1063C341.753 58.249 339.615 58.8204 337.108 58.8204ZM352.246 58.1016V56.1111L356.227 55.3923C356.263 53.9915 356.282 52.4802 356.282 50.8583C356.319 49.1996 356.337 47.7435 356.337 46.4903V43.8363C356.337 42.3249 356.319 41.0717 356.282 40.0764C356.282 39.0811 356.245 38.0306 356.171 36.9248L351.803 36.4271V34.4919L359.544 31.1191L360.373 31.672L360.982 38.1965C361.903 35.9848 363.083 34.2523 364.52 32.999C365.995 31.7458 367.469 31.1191 368.944 31.1191C369.791 31.1191 370.584 31.3034 371.321 31.672C372.058 32.0406 372.593 32.5383 372.925 33.1649C372.925 35.8558 371.837 37.2012 369.662 37.2012C369.036 37.2012 368.446 37.0906 367.893 36.8695C367.34 36.6114 366.806 36.2613 366.29 35.8189L365.626 35.2107C364.52 36.0217 363.599 37.0169 362.862 38.1965C362.124 39.376 361.516 40.7583 361.037 42.3434V46.4903C361.037 47.7067 361.037 49.1258 361.037 50.7477C361.074 52.3696 361.111 53.8809 361.148 55.2817L365.681 56.1111V58.1016H352.246Z" fill="#161616"/>
<defs>
<filter id="filter0_dd_272_1684" x="0.354989" y="0.530549" width="91.89" height="78.9529" filterUnits="userSpaceOnUse" color-interpolation-filters="sRGB">
<feFlood flood-opacity="0" result="BackgroundImageFix"/>
<feColorMatrix in="SourceAlpha" type="matrix" values="0 0 0 0 0 0 0 0 0 0 0 0 0 0 0 0 0 0 127 0" result="hardAlpha"/>
<feMorphology radius="0.58778" operator="erode" in="SourceAlpha" result="effect1_dropShadow_272_1684"/>
<feOffset dy="2.35112"/>
<feGaussianBlur stdDeviation="1.46945"/>
<feComposite in2="hardAlpha" operator="out"/>
<feColorMatrix type="matrix" values="0 0 0 0 0.0313726 0 0 0 0 0.0156863 0 0 0 0 0.00784314 0 0 0 0.08 0"/>
<feBlend mode="normal" in2="BackgroundImageFix" result="effect1_dropShadow_272_1684"/>
<feColorMatrix in="SourceAlpha" type="matrix" values="0 0 0 0 0 0 0 0 0 0 0 0 0 0 0 0 0 0 127 0" result="hardAlpha"/>
<feMorphology radius="0.29389" operator="dilate" in="SourceAlpha" result="effect2_dropShadow_272_1684"/>
<feOffset dy="1.17556"/>
<feGaussianBlur stdDeviation="1.17556"/>
<feComposite in2="hardAlpha" operator="out"/>
<feColorMatrix type="matrix" values="0 0 0 0 0.0313726 0 0 0 0 0.014902 0 0 0 0 0.00784314 0 0 0 0.16 0"/>
<feBlend mode="normal" in2="effect1_dropShadow_272_1684" result="effect2_dropShadow_272_1684"/>
<feBlend mode="normal" in="SourceGraphic" in2="effect2_dropShadow_272_1684" result="shape"/>
</filter>
<filter id="filter1_dii_272_1684" x="-2.89617" y="6.97549" width="98.3923" height="72.2279" filterUnits="userSpaceOnUse" color-interpolation-filters="sRGB">
<feFlood flood-opacity="0" result="BackgroundImageFix"/>
<feColorMatrix in="SourceAlpha" type="matrix" values="0 0 0 0 0 0 0 0 0 0 0 0 0 0 0 0 0 0 127 0" result="hardAlpha"/>
<feOffset dy="-1.47404"/>
<feGaussianBlur stdDeviation="2.94809"/>
<feComposite in2="hardAlpha" operator="out"/>
<feColorMatrix type="matrix" values="0 0 0 0 0 0 0 0 0 0.517647 0 0 0 0 0.803922 0 0 0 0.5 0"/>
<feBlend mode="multiply" in2="BackgroundImageFix" result="effect1_dropShadow_272_1684"/>
<feBlend mode="normal" in="SourceGraphic" in2="effect1_dropShadow_272_1684" result="shape"/>
<feColorMatrix in="SourceAlpha" type="matrix" values="0 0 0 0 0 0 0 0 0 0 0 0 0 0 0 0 0 0 127 0" result="hardAlpha"/>
<feOffset dy="-2.94809"/>
<feGaussianBlur stdDeviation="5.89617"/>
<feComposite in2="hardAlpha" operator="arithmetic" k2="-1" k3="1"/>
<feColorMatrix type="matrix" values="0 0 0 0 0.0466319 0 0 0 0 0.440508 0 0 0 0 0.658333 0 0 0 0.3 0"/>
<feBlend mode="multiply" in2="shape" result="effect2_innerShadow_272_1684"/>
<feColorMatrix in="SourceAlpha" type="matrix" values="0 0 0 0 0 0 0 0 0 0 0 0 0 0 0 0 0 0 127 0" result="hardAlpha"/>
<feOffset dy="0.552766"/>
<feGaussianBlur stdDeviation="0.276383"/>
<feComposite in2="hardAlpha" operator="arithmetic" k2="-1" k3="1"/>
<feColorMatrix type="matrix" values="0 0 0 0 1 0 0 0 0 1 0 0 0 0 1 0 0 0 0.2 0"/>
<feBlend mode="normal" in2="effect2_innerShadow_272_1684" result="effect3_innerShadow_272_1684"/>
</filter>
<linearGradient id="paint0_linear_272_1684" x1="46.3" y1="6.42213" x2="46.3" y2="79.203" gradientUnits="userSpaceOnUse">
<stop stop-color="#5BB1E0"/>
<stop offset="0.229272" stop-color="#0591DE"/>
</linearGradient>
<radialGradient id="paint1_radial_272_1684" cx="0" cy="0" r="1" gradientUnits="userSpaceOnUse" gradientTransform="translate(89.6 79.2031) rotate(-138.283) scale(116.017 153.775)">
<stop stop-color="#0164E3"/>
<stop offset="1" stop-color="#3394F0"/>
</radialGradient>
<radialGradient id="paint2_radial_272_1684" cx="0" cy="0" r="1" gradientUnits="userSpaceOnUse" gradientTransform="translate(89.6 74.7815) rotate(-145.09) scale(105.603 132.247)">
<stop stop-color="#0164E3"/>
<stop offset="1" stop-color="#3394F0"/>
</radialGradient>
</defs>
</svg>
