<svg width="150" height="151" viewBox="0 0 150 151" fill="none" xmlns="http://www.w3.org/2000/svg">
<g filter="url(#filter0_dd_272_1706)">
<mask id="mask0_272_1706" style="mask-type:alpha" maskUnits="userSpaceOnUse" x="21" y="9" width="108" height="97">
<path d="M34.437 100.01H115.563C120.173 100.01 122.478 100.01 124.239 99.1103C125.788 98.3185 127.047 97.0551 127.836 95.5012C128.733 93.7347 128.733 91.4222 128.733 86.7971V31.0994C128.733 26.4743 128.733 24.1618 127.836 22.3952C127.047 20.8413 125.788 19.578 124.239 18.7862C122.478 17.8861 120.173 17.8861 115.563 17.8861H71.0557C68.5977 17.8861 65.4537 17.6567 62.3669 15.3054C59.2801 12.9541 61.9096 14.9613 58.6513 12.438C55.393 9.91458 53.7314 9.39844 50.8771 9.39844H34.437C29.8269 9.39844 27.5218 9.39844 25.761 10.2985C24.2122 11.0903 22.9529 12.3536 22.1637 13.9075C21.2665 15.6741 21.2665 17.9866 21.2665 22.6117V86.7971C21.2665 91.4222 21.2665 93.7347 22.1637 95.5012C22.9529 97.0551 24.2122 98.3185 25.761 99.1103C27.5218 100.01 29.8269 100.01 34.437 100.01Z" fill="url(#paint0_linear_272_1706)"/>
</mask>
<g mask="url(#mask0_272_1706)">
<path d="M34.437 100.01H115.563C120.173 100.01 122.478 100.01 124.239 99.1103C125.788 98.3185 127.047 97.0551 127.836 95.5012C128.733 93.7347 128.733 91.4222 128.733 86.7971V31.0994C128.733 26.4743 128.733 24.1618 127.836 22.3952C127.047 20.8413 125.788 19.578 124.239 18.7862C122.478 17.8861 120.173 17.8861 115.563 17.8861H71.0557C68.5977 17.8861 65.4537 17.6567 62.3669 15.3054C59.2801 12.9541 61.9096 14.9613 58.6513 12.438C55.393 9.91458 53.7314 9.39844 50.8771 9.39844H34.437C29.8269 9.39844 27.5218 9.39844 25.761 10.2985C24.2122 11.0903 22.9529 12.3536 22.1637 13.9075C21.2665 15.6741 21.2665 17.9866 21.2665 22.6117V86.7971C21.2665 91.4222 21.2665 93.7347 22.1637 95.5012C22.9529 97.0551 24.2122 98.3185 25.761 99.1103C27.5218 100.01 29.8269 100.01 34.437 100.01Z" fill="url(#paint1_radial_272_1706)"/>
<g filter="url(#filter1_dii_272_1706)">
<rect x="21.2665" y="24.7695" width="107.467" height="75.2423" rx="8.2449" fill="url(#paint2_radial_272_1706)"/>
</g>
<g style="mix-blend-mode:hard-light">
<path d="M59.1601 49.6778H57.8755C57.8383 51.9863 57.8011 54.3135 57.7638 56.6592C57.7638 59.005 57.7638 61.3694 57.7638 63.7524V65.9864H59.3835C61.841 65.9864 63.6841 65.2045 64.9128 63.6407C66.1415 62.0396 66.7559 59.9731 66.7559 57.4411C66.7559 54.872 66.0857 52.9358 64.7453 51.6326C63.4421 50.3294 61.5803 49.6778 59.1601 49.6778ZM44.0802 49.4544V46.4384H59.2718C63.1442 46.4384 66.2719 46.9038 68.6549 47.8347C71.0379 48.7283 72.7693 50.0129 73.8491 51.6884C74.9661 53.3267 75.5246 55.2629 75.5246 57.497C75.5246 59.6193 75.0033 61.5741 73.9608 63.3614C72.9554 65.1114 71.2799 66.5077 68.9341 67.5503C66.5884 68.5928 63.3862 69.1141 59.3277 69.1141H57.7638C57.7638 70.7152 57.7638 72.4093 57.7638 74.1966C57.8011 75.9466 57.8383 77.7525 57.8755 79.6142L62.8463 80.1168V83.1328H44.0802V80.1168L48.2691 79.67C48.3435 77.3987 48.3808 75.1088 48.3808 72.8003C48.3808 70.4918 48.3808 68.1646 48.3808 65.8189V63.7524C48.3808 61.4438 48.3808 59.1353 48.3808 56.8268C48.3808 54.481 48.3435 52.1725 48.2691 49.9012L44.0802 49.4544ZM77.2289 49.4544V46.4384H106.104L106.495 56.0449H101.859L100.742 49.5661H91.0242C90.987 51.6884 90.9498 53.8294 90.9125 55.989C90.9125 58.1486 90.9125 60.3268 90.9125 62.5236H97.1121L97.7823 58.1672H101.022V70.7338H97.7823L97.0562 65.8189H90.9125C90.9125 68.3136 90.9125 70.6966 90.9125 72.9678C90.9498 75.2019 90.987 77.4173 91.0242 79.6142L95.995 80.1168V83.1328H77.2289V80.1168L81.4178 79.67C81.4923 77.3987 81.5295 75.1088 81.5295 72.8003C81.5295 70.4918 81.5295 68.1646 81.5295 65.8189V63.7524C81.5295 61.4438 81.5295 59.1353 81.5295 56.8268C81.5295 54.481 81.4923 52.1725 81.4178 49.9012L77.2289 49.4544Z" fill="#F9F9F9" fill-opacity="0.97"/>
</g>
</g>
</g>
<path d="M14.5569 120.565H14.0212C14.0057 121.528 13.9901 122.498 13.9746 123.476C13.9746 124.454 13.9746 125.44 13.9746 126.434V127.366H14.65C15.6748 127.366 16.4434 127.04 16.9557 126.387C17.4681 125.72 17.7243 124.858 17.7243 123.802C17.7243 122.731 17.4448 121.923 16.8859 121.38C16.3424 120.837 15.5661 120.565 14.5569 120.565ZM8.26857 120.472V119.214H14.6035C16.2182 119.214 17.5225 119.408 18.5162 119.796C19.5099 120.169 20.2319 120.705 20.6821 121.403C21.1479 122.087 21.3808 122.894 21.3808 123.826C21.3808 124.711 21.1635 125.526 20.7287 126.271C20.3095 127.001 19.6108 127.583 18.6326 128.018C17.6544 128.452 16.3191 128.67 14.6267 128.67H13.9746C13.9746 129.337 13.9746 130.044 13.9746 130.789C13.9901 131.519 14.0057 132.272 14.0212 133.048L16.094 133.258V134.516H8.26857V133.258L10.0153 133.072C10.0464 132.125 10.0619 131.17 10.0619 130.207C10.0619 129.244 10.0619 128.274 10.0619 127.296V126.434C10.0619 125.471 10.0619 124.509 10.0619 123.546C10.0619 122.568 10.0464 121.605 10.0153 120.658L8.26857 120.472ZM21.8841 134.516V133.421L23.1418 133.142C23.1573 132.583 23.1651 131.977 23.1651 131.325C23.1651 130.673 23.1651 130.106 23.1651 129.625V119.866L21.7211 119.633V118.655L26.5421 117.607L26.9148 117.84L26.8216 121.101V124.85C27.4427 124.121 28.0404 123.616 28.6149 123.336C29.2049 123.041 29.8415 122.894 30.5247 122.894C31.5495 122.894 32.3724 123.228 32.9935 123.895C33.6145 124.563 33.9251 125.565 33.9251 126.9V129.625C33.9251 130.137 33.9251 130.719 33.9251 131.371C33.9251 132.008 33.9328 132.614 33.9483 133.188L35.1128 133.421V134.516H28.9876V133.421L30.1987 133.165C30.2142 132.59 30.2219 131.985 30.2219 131.348C30.2219 130.696 30.2219 130.122 30.2219 129.625V127.179C30.2219 126.418 30.1288 125.891 29.9425 125.596C29.7717 125.301 29.4456 125.153 28.9643 125.153C28.6538 125.153 28.3199 125.246 27.9628 125.433C27.6057 125.619 27.2486 125.883 26.8915 126.224V129.625C26.8915 130.106 26.8915 130.681 26.8915 131.348C26.8915 132 26.8992 132.614 26.9148 133.188L28.0094 133.421V134.516H21.8841ZM41.9645 134.865C40.7534 134.865 39.7053 134.617 38.8203 134.12C37.9353 133.607 37.2521 132.901 36.7708 132C36.2895 131.084 36.0488 130.028 36.0488 128.833C36.0488 127.637 36.305 126.597 36.8174 125.712C37.3453 124.827 38.0595 124.136 38.9601 123.639C39.8606 123.142 40.8621 122.894 41.9645 122.894C43.0669 122.894 44.0606 123.135 44.9456 123.616C45.8461 124.097 46.5604 124.788 47.0883 125.689C47.6162 126.574 47.8801 127.622 47.8801 128.833C47.8801 130.044 47.6395 131.1 47.1581 132C46.6768 132.901 45.9936 133.607 45.1086 134.12C44.2236 134.617 43.1756 134.865 41.9645 134.865ZM41.9645 133.654C42.6166 133.654 43.1057 133.273 43.4317 132.513C43.7578 131.752 43.9208 130.549 43.9208 128.903C43.9208 127.241 43.7578 126.03 43.4317 125.269C43.1057 124.509 42.6166 124.128 41.9645 124.128C41.2968 124.128 40.8 124.509 40.4739 125.269C40.1479 126.03 39.9848 127.241 39.9848 128.903C39.9848 130.549 40.1479 131.752 40.4739 132.513C40.8 133.273 41.2968 133.654 41.9645 133.654ZM53.3183 134.865C52.2781 134.865 51.4629 134.617 50.8729 134.12C50.2829 133.607 49.9879 132.777 49.9879 131.628C49.9879 131.224 49.9879 130.851 49.9879 130.51C50.0034 130.153 50.0112 129.749 50.0112 129.299V124.85H48.4973V123.476L50.2208 123.243L51.3853 119.983H53.7609L53.7143 123.267H56.1597V124.85H53.7143V131.371C53.7143 131.915 53.823 132.319 54.0403 132.583C54.2732 132.831 54.5605 132.955 54.9021 132.955C55.3058 132.955 55.725 132.784 56.1597 132.443L56.742 133.002C56.4314 133.592 55.9967 134.05 55.4377 134.376C54.8943 134.702 54.1878 134.865 53.3183 134.865ZM62.8554 134.865C61.6443 134.865 60.5963 134.617 59.7113 134.12C58.8263 133.607 58.1431 132.901 57.6618 132C57.1804 131.084 56.9398 130.028 56.9398 128.833C56.9398 127.637 57.196 126.597 57.7083 125.712C58.2362 124.827 58.9505 124.136 59.851 123.639C60.7516 123.142 61.753 122.894 62.8554 122.894C63.9578 122.894 64.9515 123.135 65.8365 123.616C66.7371 124.097 67.4513 124.788 67.9792 125.689C68.5071 126.574 68.7711 127.622 68.7711 128.833C68.7711 130.044 68.5304 131.1 68.0491 132C67.5678 132.901 66.8846 133.607 65.9996 134.12C65.1146 134.617 64.0665 134.865 62.8554 134.865ZM62.8554 133.654C63.5075 133.654 63.9966 133.273 64.3227 132.513C64.6488 131.752 64.8118 130.549 64.8118 128.903C64.8118 127.241 64.6488 126.03 64.3227 125.269C63.9966 124.509 63.5075 124.128 62.8554 124.128C62.1878 124.128 61.6909 124.509 61.3649 125.269C61.0388 126.03 60.8758 127.241 60.8758 128.903C60.8758 130.549 61.0388 131.752 61.3649 132.513C61.6909 133.273 62.1878 133.654 62.8554 133.654ZM74.7169 120.472V119.214H86.7579L86.9209 123.22H84.9878L84.522 120.518H80.4696C80.454 121.403 80.4385 122.296 80.423 123.197C80.423 124.097 80.423 125.006 80.423 125.922H83.0082L83.2877 124.105H84.6385V129.345H83.2877L82.9849 127.296H80.423C80.423 128.336 80.423 129.33 80.423 130.277C80.4385 131.208 80.454 132.132 80.4696 133.048L82.5424 133.258V134.516H74.7169V133.258L76.4637 133.072C76.4947 132.125 76.5103 131.17 76.5103 130.207C76.5103 129.244 76.5103 128.274 76.5103 127.296V126.434C76.5103 125.471 76.5103 124.509 76.5103 123.546C76.5103 122.568 76.4947 121.605 76.4637 120.658L74.7169 120.472ZM92.5656 134.865C91.3546 134.865 90.3065 134.617 89.4215 134.12C88.5365 133.607 87.8533 132.901 87.372 132C86.8906 131.084 86.65 130.028 86.65 128.833C86.65 127.637 86.9062 126.597 87.4185 125.712C87.9465 124.827 88.6607 124.136 89.5612 123.639C90.4618 123.142 91.4632 122.894 92.5656 122.894C93.668 122.894 94.6617 123.135 95.5468 123.616C96.4473 124.097 97.1615 124.788 97.6894 125.689C98.2173 126.574 98.4813 127.622 98.4813 128.833C98.4813 130.044 98.2406 131.1 97.7593 132C97.278 132.901 96.5948 133.607 95.7098 134.12C94.8248 134.617 93.7767 134.865 92.5656 134.865ZM92.5656 133.654C93.2178 133.654 93.7068 133.273 94.0329 132.513C94.359 131.752 94.522 130.549 94.522 128.903C94.522 127.241 94.359 126.03 94.0329 125.269C93.7068 124.509 93.2178 124.128 92.5656 124.128C91.898 124.128 91.4011 124.509 91.0751 125.269C90.749 126.03 90.586 127.241 90.586 128.903C90.586 130.549 90.749 131.752 91.0751 132.513C91.4011 133.273 91.898 133.654 92.5656 133.654ZM99.4478 134.516V133.421L100.729 133.142C100.744 132.552 100.752 131.961 100.752 131.371C100.768 130.781 100.775 130.199 100.775 129.625V119.866L99.3314 119.633V118.655L104.222 117.607L104.595 117.84L104.502 121.101V129.625C104.502 130.215 104.502 130.805 104.502 131.395C104.517 131.985 104.533 132.575 104.548 133.165L105.829 133.421V134.516H99.4478ZM110.749 128.949C110.749 130.223 110.974 131.193 111.425 131.861C111.875 132.513 112.457 132.839 113.171 132.839C113.699 132.839 114.181 132.66 114.615 132.303V125.363C114.196 125.037 113.738 124.874 113.241 124.874C112.527 124.874 111.929 125.207 111.448 125.875C110.982 126.543 110.749 127.567 110.749 128.949ZM114.918 134.772L114.732 133.444C113.831 134.391 112.737 134.865 111.448 134.865C110.578 134.865 109.786 134.64 109.072 134.19C108.374 133.739 107.822 133.079 107.419 132.21C107.015 131.325 106.813 130.254 106.813 128.996C106.813 127.723 107.054 126.636 107.535 125.735C108.032 124.819 108.669 124.121 109.445 123.639C110.237 123.142 111.067 122.894 111.937 122.894C112.542 122.894 113.07 123.003 113.521 123.22C113.971 123.422 114.382 123.725 114.755 124.128V119.866L113.125 119.633V118.655L118.039 117.607L118.412 117.84L118.318 121.101V133.188L119.46 133.421V134.516L114.918 134.772ZM126.161 124.105C125.727 124.105 125.323 124.377 124.95 124.92C124.593 125.448 124.391 126.426 124.345 127.855H126.324C126.883 127.855 127.256 127.746 127.442 127.529C127.644 127.296 127.745 126.915 127.745 126.387C127.745 125.611 127.59 125.037 127.279 124.664C126.969 124.291 126.596 124.105 126.161 124.105ZM126.208 134.865C125.074 134.865 124.073 134.632 123.203 134.166C122.334 133.685 121.651 133.002 121.154 132.117C120.657 131.216 120.409 130.145 120.409 128.903C120.409 127.598 120.696 126.504 121.27 125.619C121.86 124.718 122.613 124.043 123.53 123.593C124.446 123.127 125.4 122.894 126.394 122.894C127.419 122.894 128.288 123.111 129.003 123.546C129.732 123.981 130.284 124.571 130.656 125.316C131.029 126.046 131.215 126.884 131.215 127.831C131.215 128.282 131.169 128.693 131.075 129.066H124.345C124.422 130.292 124.756 131.201 125.346 131.791C125.952 132.365 126.658 132.652 127.466 132.652C128.102 132.652 128.646 132.536 129.096 132.303C129.546 132.055 129.942 131.752 130.284 131.395L131.099 132.14C130.617 133.056 129.965 133.739 129.142 134.19C128.319 134.64 127.341 134.865 126.208 134.865ZM132.275 134.516V133.421L133.555 133.165C133.571 132.59 133.579 131.977 133.579 131.325C133.579 130.673 133.579 130.106 133.579 129.625V128.251C133.579 127.816 133.571 127.459 133.555 127.179C133.555 126.9 133.548 126.644 133.532 126.411C133.532 126.162 133.524 125.883 133.509 125.572L132.088 125.363V124.454L136.676 122.894L137.096 123.15L137.305 125.898C137.631 124.905 138.089 124.159 138.679 123.662C139.269 123.15 139.852 122.894 140.426 122.894C140.938 122.894 141.381 123.041 141.754 123.336C142.126 123.616 142.359 124.043 142.452 124.617C142.437 125.223 142.274 125.696 141.963 126.038C141.653 126.364 141.264 126.527 140.799 126.527C140.147 126.527 139.549 126.162 139.005 125.433L138.866 125.246C138.524 125.572 138.206 125.984 137.911 126.481C137.631 126.977 137.429 127.498 137.305 128.041V129.625C137.305 130.106 137.305 130.657 137.305 131.278C137.305 131.899 137.313 132.482 137.328 133.025L139.168 133.421V134.516H132.275Z" fill="#161616"/>
<defs>
<filter id="filter0_dd_272_1706" x="17.9789" y="7.57195" width="114.042" height="103.788" filterUnits="userSpaceOnUse" color-interpolation-filters="sRGB">
<feFlood flood-opacity="0" result="BackgroundImageFix"/>
<feColorMatrix in="SourceAlpha" type="matrix" values="0 0 0 0 0 0 0 0 0 0 0 0 0 0 0 0 0 0 127 0" result="hardAlpha"/>
<feMorphology radius="0.730596" operator="erode" in="SourceAlpha" result="effect1_dropShadow_272_1706"/>
<feOffset dy="2.92239"/>
<feGaussianBlur stdDeviation="1.82649"/>
<feComposite in2="hardAlpha" operator="out"/>
<feColorMatrix type="matrix" values="0 0 0 0 0.0313726 0 0 0 0 0.0156863 0 0 0 0 0.00784314 0 0 0 0.08 0"/>
<feBlend mode="normal" in2="BackgroundImageFix" result="effect1_dropShadow_272_1706"/>
<feColorMatrix in="SourceAlpha" type="matrix" values="0 0 0 0 0 0 0 0 0 0 0 0 0 0 0 0 0 0 127 0" result="hardAlpha"/>
<feMorphology radius="0.365298" operator="dilate" in="SourceAlpha" result="effect2_dropShadow_272_1706"/>
<feOffset dy="1.46119"/>
<feGaussianBlur stdDeviation="1.46119"/>
<feComposite in2="hardAlpha" operator="out"/>
<feColorMatrix type="matrix" values="0 0 0 0 0.0313726 0 0 0 0 0.014902 0 0 0 0 0.00784314 0 0 0 0.16 0"/>
<feBlend mode="normal" in2="effect1_dropShadow_272_1706" result="effect2_dropShadow_272_1706"/>
<feBlend mode="normal" in="SourceGraphic" in2="effect2_dropShadow_272_1706" result="shape"/>
</filter>
<filter id="filter1_dii_272_1706" x="13.9377" y="15.6085" width="122.125" height="89.8998" filterUnits="userSpaceOnUse" color-interpolation-filters="sRGB">
<feFlood flood-opacity="0" result="BackgroundImageFix"/>
<feColorMatrix in="SourceAlpha" type="matrix" values="0 0 0 0 0 0 0 0 0 0 0 0 0 0 0 0 0 0 127 0" result="hardAlpha"/>
<feOffset dy="-1.8322"/>
<feGaussianBlur stdDeviation="3.6644"/>
<feComposite in2="hardAlpha" operator="out"/>
<feColorMatrix type="matrix" values="0 0 0 0 0 0 0 0 0 0.517647 0 0 0 0 0.803922 0 0 0 0.5 0"/>
<feBlend mode="multiply" in2="BackgroundImageFix" result="effect1_dropShadow_272_1706"/>
<feBlend mode="normal" in="SourceGraphic" in2="effect1_dropShadow_272_1706" result="shape"/>
<feColorMatrix in="SourceAlpha" type="matrix" values="0 0 0 0 0 0 0 0 0 0 0 0 0 0 0 0 0 0 127 0" result="hardAlpha"/>
<feOffset dy="-3.6644"/>
<feGaussianBlur stdDeviation="7.3288"/>
<feComposite in2="hardAlpha" operator="arithmetic" k2="-1" k3="1"/>
<feColorMatrix type="matrix" values="0 0 0 0 0.0466319 0 0 0 0 0.440508 0 0 0 0 0.658333 0 0 0 0.3 0"/>
<feBlend mode="multiply" in2="shape" result="effect2_innerShadow_272_1706"/>
<feColorMatrix in="SourceAlpha" type="matrix" values="0 0 0 0 0 0 0 0 0 0 0 0 0 0 0 0 0 0 127 0" result="hardAlpha"/>
<feOffset dy="0.687075"/>
<feGaussianBlur stdDeviation="0.343537"/>
<feComposite in2="hardAlpha" operator="arithmetic" k2="-1" k3="1"/>
<feColorMatrix type="matrix" values="0 0 0 0 1 0 0 0 0 1 0 0 0 0 1 0 0 0 0.2 0"/>
<feBlend mode="normal" in2="effect2_innerShadow_272_1706" result="effect3_innerShadow_272_1706"/>
</filter>
<linearGradient id="paint0_linear_272_1706" x1="75" y1="14.904" x2="75" y2="105.516" gradientUnits="userSpaceOnUse">
<stop stop-color="#5BB1E0"/>
<stop offset="0.229272" stop-color="#0591DE"/>
</linearGradient>
<radialGradient id="paint1_radial_272_1706" cx="0" cy="0" r="1" gradientUnits="userSpaceOnUse" gradientTransform="translate(128.733 105.516) rotate(-138.191) scale(144.179 191.173)">
<stop stop-color="#0164E3"/>
<stop offset="1" stop-color="#3394F0"/>
</radialGradient>
<radialGradient id="paint2_radial_272_1706" cx="0" cy="0" r="1" gradientUnits="userSpaceOnUse" gradientTransform="translate(128.733 100.012) rotate(-145.002) scale(131.189 164.472)">
<stop stop-color="#0164E3"/>
<stop offset="1" stop-color="#3394F0"/>
</radialGradient>
</defs>
</svg>
