<svg width="150" height="151" viewBox="0 0 150 151" fill="none" xmlns="http://www.w3.org/2000/svg">
<g filter="url(#filter0_dd_272_1706)">
<mask id="mask0_272_1706" style="mask-type:alpha" maskUnits="userSpaceOnUse" x="21" y="8" width="108" height="92">
<path d="M34.437 99.4596H115.563C120.173 99.4596 122.478 99.4596 124.239 98.5595C125.788 97.7677 127.047 96.5044 127.836 94.9505C128.733 93.1839 128.733 90.8714 128.733 86.2463V30.5486C128.733 25.9236 128.733 23.611 127.836 21.8445C127.047 20.2906 125.788 19.0272 124.239 18.2355C122.478 17.3354 120.173 17.3354 115.563 17.3354H71.0557C68.5977 17.3354 65.4537 17.106 62.3669 14.7546C59.2801 12.4033 61.9096 14.4105 58.6513 11.8872C55.393 9.3638 53.7314 8.84766 50.8771 8.84766H34.437C29.8269 8.84766 27.5218 8.84766 25.761 9.74776C24.2122 10.5395 22.9529 11.8029 22.1637 13.3568C21.2665 15.1233 21.2665 17.4359 21.2665 22.0609V86.2463C21.2665 90.8714 21.2665 93.1839 22.1637 94.9505C22.9529 96.5044 24.2122 97.7677 25.761 98.5595C27.5218 99.4596 29.8269 99.4596 34.437 99.4596Z" fill="url(#paint0_linear_272_1706)"/>
</mask>
<g mask="url(#mask0_272_1706)">
<path d="M34.437 99.4596H115.563C120.173 99.4596 122.478 99.4596 124.239 98.5595C125.788 97.7677 127.047 96.5044 127.836 94.9505C128.733 93.1839 128.733 90.8714 128.733 86.2463V30.5486C128.733 25.9236 128.733 23.611 127.836 21.8445C127.047 20.2906 125.788 19.0272 124.239 18.2355C122.478 17.3354 120.173 17.3354 115.563 17.3354H71.0557C68.5977 17.3354 65.4537 17.106 62.3669 14.7546C59.2801 12.4033 61.9096 14.4105 58.6513 11.8872C55.393 9.3638 53.7314 8.84766 50.8771 8.84766H34.437C29.8269 8.84766 27.5218 8.84766 25.761 9.74776C24.2122 10.5395 22.9529 11.8029 22.1637 13.3568C21.2665 15.1233 21.2665 17.4359 21.2665 22.0609V86.2463C21.2665 90.8714 21.2665 93.1839 22.1637 94.9505C22.9529 96.5044 24.2122 97.7677 25.761 98.5595C27.5218 99.4596 29.8269 99.4596 34.437 99.4596Z" fill="url(#paint1_radial_272_1706)"/>
<g filter="url(#filter1_dii_272_1706)">
<rect x="21.2665" y="24.2188" width="107.467" height="75.2423" rx="8.2449" fill="url(#paint2_radial_272_1706)"/>
</g>
<g style="mix-blend-mode:hard-light">
<path d="M61.841 83.6432C59.5325 83.6432 57.317 83.2522 55.1947 82.4703C53.0723 81.6512 51.1734 80.4411 49.4978 78.84C47.8595 77.2017 46.5563 75.1724 45.5882 72.7522C44.6201 70.3319 44.1361 67.4835 44.1361 64.2069C44.1361 61.0047 44.6201 58.1936 45.5882 55.7733C46.5563 53.3531 47.8781 51.3424 49.5537 49.7414C51.2292 48.1031 53.1282 46.8743 55.2505 46.0552C57.3729 45.236 59.5697 44.8264 61.841 44.8264C64.1495 44.8264 66.3463 45.236 68.4315 46.0552C70.5538 46.8371 72.4528 48.0286 74.1283 49.6297C75.8039 51.2307 77.1257 53.26 78.0938 55.7175C79.0619 58.1377 79.5459 60.9675 79.5459 64.2069C79.5459 67.4463 79.0619 70.2761 78.0938 72.6963C77.1257 75.1166 75.8039 77.1458 74.1283 78.7841C72.49 80.3852 70.6097 81.5953 68.4873 82.4145C66.365 83.2336 64.1495 83.6432 61.841 83.6432ZM61.841 80.4038C63.7399 80.4038 65.2479 79.6964 66.365 78.2815C67.5192 76.8666 68.357 74.949 68.8783 72.5288C69.3995 70.0713 69.6602 67.2973 69.6602 64.2069C69.6602 61.1165 69.3995 58.3611 68.8783 55.9409C68.357 53.5207 67.5192 51.6031 66.365 50.1882C65.2479 48.7733 63.7399 48.0658 61.841 48.0658C59.9793 48.0658 58.4713 48.7733 57.317 50.1882C56.1628 51.6031 55.325 53.5207 54.8037 55.9409C54.2824 58.3611 54.0218 61.1165 54.0218 64.2069C54.0218 67.2973 54.2824 70.0713 54.8037 72.5288C55.325 74.949 56.1628 76.8666 57.317 78.2815C58.4713 79.6964 59.9793 80.4038 61.841 80.4038ZM81.9741 48.9036V45.8876H110.849L111.24 55.4941H106.605L105.488 49.0153H95.7694C95.7322 51.1377 95.695 53.2786 95.6577 55.4382C95.6577 57.5978 95.6577 59.776 95.6577 61.9728H101.857L102.527 57.6164H105.767V70.183H102.527L101.801 65.2681H95.6577C95.6577 67.7628 95.6577 70.1458 95.6577 72.4171C95.695 74.6511 95.7322 76.8666 95.7694 79.0634L100.74 79.5661V82.582H81.9741V79.5661L86.163 79.1192C86.2375 76.8479 86.2747 74.558 86.2747 72.2495C86.2747 69.941 86.2747 67.6138 86.2747 65.2681V63.2016C86.2747 60.893 86.2747 58.5845 86.2747 56.276C86.2747 53.9302 86.2375 51.6217 86.163 49.3504L81.9741 48.9036Z" fill="#F9F9F9" fill-opacity="0.97"/>
</g>
</g>
</g>
<path d="M25.1748 134.407C24.2121 134.407 23.2883 134.244 22.4033 133.918C21.5183 133.577 20.7264 133.072 20.0277 132.404C19.3445 131.721 18.8011 130.875 18.3974 129.866C17.9937 128.857 17.7919 127.669 17.7919 126.302C17.7919 124.967 17.9937 123.795 18.3974 122.786C18.8011 121.776 19.3523 120.938 20.051 120.27C20.7497 119.587 21.5416 119.075 22.4266 118.733C23.3116 118.392 24.2277 118.221 25.1748 118.221C26.1374 118.221 27.0535 118.392 27.923 118.733C28.808 119.059 29.5999 119.556 30.2986 120.224C30.9973 120.891 31.5485 121.738 31.9522 122.762C32.3559 123.772 32.5577 124.952 32.5577 126.302C32.5577 127.653 32.3559 128.833 31.9522 129.843C31.5485 130.852 30.9973 131.698 30.2986 132.381C29.6154 133.049 28.8313 133.553 27.9463 133.895C27.0613 134.237 26.1374 134.407 25.1748 134.407ZM25.1748 133.057C25.9667 133.057 26.5955 132.762 27.0613 132.172C27.5426 131.582 27.892 130.782 28.1093 129.773C28.3267 128.748 28.4354 127.591 28.4354 126.302C28.4354 125.014 28.3267 123.865 28.1093 122.856C27.892 121.846 27.5426 121.047 27.0613 120.457C26.5955 119.867 25.9667 119.572 25.1748 119.572C24.3985 119.572 23.7696 119.867 23.2883 120.457C22.807 121.047 22.4576 121.846 22.2403 122.856C22.0229 123.865 21.9142 125.014 21.9142 126.302C21.9142 127.591 22.0229 128.748 22.2403 129.773C22.4576 130.782 22.807 131.582 23.2883 132.172C23.7696 132.762 24.3985 133.057 25.1748 133.057ZM33.7723 133.965V132.87L35.0299 132.591C35.0454 132.032 35.0532 131.426 35.0532 130.774C35.0532 130.122 35.0532 129.555 35.0532 129.074V127.723C35.0532 127.087 35.0454 126.597 35.0299 126.256C35.0299 125.899 35.0144 125.487 34.9833 125.021L33.5626 124.812V123.904L38.1508 122.343L38.57 122.599L38.7097 124.276C39.3153 123.562 39.9131 123.065 40.5031 122.786C41.1086 122.491 41.753 122.343 42.4361 122.343C43.4454 122.343 44.2528 122.677 44.8583 123.345C45.4794 124.012 45.7899 125.014 45.7899 126.349V129.074C45.7899 129.586 45.7899 130.169 45.7899 130.821C45.7899 131.457 45.7977 132.063 45.8132 132.637L46.9777 132.87V133.965H40.8291V132.87L42.0402 132.614C42.0557 132.04 42.0635 131.434 42.0635 130.797C42.0635 130.145 42.0635 129.571 42.0635 129.074V126.628C42.0635 125.883 41.9626 125.363 41.7607 125.068C41.5589 124.758 41.2328 124.602 40.7825 124.602C40.177 124.602 39.5094 124.882 38.7796 125.441V129.074C38.7796 129.555 38.7796 130.13 38.7796 130.797C38.7796 131.45 38.7874 132.063 38.8029 132.637L39.8975 132.87V133.965H33.7723ZM53.6668 123.554C53.2321 123.554 52.8284 123.826 52.4558 124.369C52.0986 124.897 51.8968 125.875 51.8502 127.304H53.8299C54.3888 127.304 54.7615 127.195 54.9478 126.978C55.1496 126.745 55.2506 126.365 55.2506 125.837C55.2506 125.06 55.0953 124.486 54.7848 124.113C54.4742 123.741 54.1016 123.554 53.6668 123.554ZM53.7134 134.314C52.58 134.314 51.5785 134.081 50.709 133.615C49.8395 133.134 49.1563 132.451 48.6595 131.566C48.1626 130.665 47.9142 129.594 47.9142 128.352C47.9142 127.048 48.2014 125.953 48.7759 125.068C49.3659 124.168 50.119 123.492 51.0351 123.042C51.9511 122.576 52.906 122.343 53.8997 122.343C54.9245 122.343 55.794 122.561 56.5082 122.995C57.238 123.43 57.7892 124.02 58.1618 124.765C58.5344 125.495 58.7208 126.333 58.7208 127.281C58.7208 127.731 58.6742 128.142 58.581 128.515H51.8502C51.9278 129.742 52.2617 130.65 52.8517 131.24C53.4572 131.814 54.1637 132.102 54.9711 132.102C55.6077 132.102 56.1511 131.985 56.6014 131.752C57.0516 131.504 57.4476 131.201 57.7892 130.844L58.6043 131.589C58.123 132.505 57.4709 133.189 56.648 133.639C55.825 134.089 54.8469 134.314 53.7134 134.314ZM64.6679 119.921V118.663H76.7088L76.8719 122.669H74.9388L74.473 119.968H70.4205C70.405 120.853 70.3895 121.745 70.374 122.646C70.374 123.546 70.374 124.455 70.374 125.371H72.9591L73.2386 123.554H74.5894V128.794H73.2386L72.9359 126.745H70.374C70.374 127.785 70.374 128.779 70.374 129.726C70.3895 130.658 70.405 131.582 70.4205 132.498L72.4933 132.707V133.965H64.6679V132.707L66.4147 132.521C66.4457 131.574 66.4612 130.619 66.4612 129.656C66.4612 128.694 66.4612 127.723 66.4612 126.745V125.883C66.4612 124.921 66.4612 123.958 66.4612 122.995C66.4612 122.017 66.4457 121.054 66.4147 120.107L64.6679 119.921ZM82.5166 134.314C81.3055 134.314 80.2575 134.066 79.3724 133.569C78.4874 133.057 77.8042 132.35 77.3229 131.45C76.8416 130.533 76.6009 129.478 76.6009 128.282C76.6009 127.087 76.8571 126.046 77.3695 125.161C77.8974 124.276 78.6116 123.585 79.5122 123.088C80.4127 122.592 81.4142 122.343 82.5166 122.343C83.619 122.343 84.6127 122.584 85.4977 123.065C86.3983 123.546 87.1125 124.237 87.6404 125.138C88.1683 126.023 88.4323 127.071 88.4323 128.282C88.4323 129.493 88.1916 130.549 87.7103 131.45C87.2289 132.35 86.5458 133.057 85.6607 133.569C84.7757 134.066 83.7277 134.314 82.5166 134.314ZM82.5166 133.103C83.1687 133.103 83.6578 132.723 83.9839 131.962C84.3099 131.201 84.473 129.998 84.473 128.352C84.473 126.691 84.3099 125.48 83.9839 124.719C83.6578 123.958 83.1687 123.578 82.5166 123.578C81.8489 123.578 81.3521 123.958 81.026 124.719C80.7 125.48 80.5369 126.691 80.5369 128.352C80.5369 129.998 80.7 131.201 81.026 131.962C81.3521 132.723 81.8489 133.103 82.5166 133.103ZM89.3988 133.965V132.87L90.6797 132.591C90.6953 132.001 90.703 131.411 90.703 130.821C90.7186 130.231 90.7263 129.648 90.7263 129.074V119.315L89.2823 119.083V118.104L94.1732 117.056L94.5459 117.289L94.4527 120.55V129.074C94.4527 129.664 94.4527 130.254 94.4527 130.844C94.4682 131.434 94.4838 132.024 94.4993 132.614L95.7802 132.87V133.965H89.3988ZM100.7 128.399C100.7 129.672 100.925 130.642 101.375 131.31C101.826 131.962 102.408 132.288 103.122 132.288C103.65 132.288 104.131 132.109 104.566 131.752V124.812C104.147 124.486 103.689 124.323 103.192 124.323C102.478 124.323 101.88 124.657 101.399 125.324C100.933 125.992 100.7 127.017 100.7 128.399ZM104.869 134.221L104.683 132.894C103.782 133.841 102.687 134.314 101.399 134.314C100.529 134.314 99.7374 134.089 99.0232 133.639C98.3245 133.189 97.7733 132.529 97.3696 131.659C96.9659 130.774 96.7641 129.703 96.7641 128.445C96.7641 127.172 97.0047 126.085 97.4861 125.185C97.9829 124.268 98.6195 123.57 99.3958 123.088C100.188 122.592 101.018 122.343 101.888 122.343C102.493 122.343 103.021 122.452 103.472 122.669C103.922 122.871 104.333 123.174 104.706 123.578V119.315L103.076 119.083V118.104L107.99 117.056L108.362 117.289L108.269 120.55V132.637L109.411 132.87V133.965L104.869 134.221ZM116.112 123.554C115.677 123.554 115.274 123.826 114.901 124.369C114.544 124.897 114.342 125.875 114.296 127.304H116.275C116.834 127.304 117.207 127.195 117.393 126.978C117.595 126.745 117.696 126.365 117.696 125.837C117.696 125.06 117.541 124.486 117.23 124.113C116.92 123.741 116.547 123.554 116.112 123.554ZM116.159 134.314C115.025 134.314 114.024 134.081 113.154 133.615C112.285 133.134 111.602 132.451 111.105 131.566C110.608 130.665 110.36 129.594 110.36 128.352C110.36 127.048 110.647 125.953 111.221 125.068C111.811 124.168 112.564 123.492 113.48 123.042C114.397 122.576 115.351 122.343 116.345 122.343C117.37 122.343 118.239 122.561 118.954 122.995C119.683 123.43 120.235 124.02 120.607 124.765C120.98 125.495 121.166 126.333 121.166 127.281C121.166 127.731 121.12 128.142 121.026 128.515H114.296C114.373 129.742 114.707 130.65 115.297 131.24C115.903 131.814 116.609 132.102 117.416 132.102C118.053 132.102 118.597 131.985 119.047 131.752C119.497 131.504 119.893 131.201 120.235 130.844L121.05 131.589C120.568 132.505 119.916 133.189 119.093 133.639C118.27 134.089 117.292 134.314 116.159 134.314ZM122.225 133.965V132.87L123.506 132.614C123.522 132.04 123.53 131.426 123.53 130.774C123.53 130.122 123.53 129.555 123.53 129.074V127.7C123.53 127.265 123.522 126.908 123.506 126.628C123.506 126.349 123.499 126.093 123.483 125.86C123.483 125.611 123.475 125.332 123.46 125.021L122.039 124.812V123.904L126.627 122.343L127.047 122.599L127.256 125.348C127.582 124.354 128.04 123.609 128.63 123.112C129.22 122.599 129.803 122.343 130.377 122.343C130.889 122.343 131.332 122.491 131.705 122.786C132.077 123.065 132.31 123.492 132.403 124.067C132.388 124.672 132.225 125.146 131.914 125.487C131.604 125.813 131.215 125.976 130.75 125.976C130.098 125.976 129.5 125.611 128.956 124.882L128.817 124.695C128.475 125.021 128.157 125.433 127.862 125.93C127.582 126.427 127.38 126.947 127.256 127.49V129.074C127.256 129.555 127.256 130.106 127.256 130.728C127.256 131.349 127.264 131.931 127.279 132.474L129.119 132.87V133.965H122.225Z" fill="#161616"/>
<defs>
<filter id="filter0_dd_272_1706" x="17.9789" y="7.02117" width="114.042" height="98.2836" filterUnits="userSpaceOnUse" color-interpolation-filters="sRGB">
<feFlood flood-opacity="0" result="BackgroundImageFix"/>
<feColorMatrix in="SourceAlpha" type="matrix" values="0 0 0 0 0 0 0 0 0 0 0 0 0 0 0 0 0 0 127 0" result="hardAlpha"/>
<feMorphology radius="0.730596" operator="erode" in="SourceAlpha" result="effect1_dropShadow_272_1706"/>
<feOffset dy="2.92239"/>
<feGaussianBlur stdDeviation="1.82649"/>
<feComposite in2="hardAlpha" operator="out"/>
<feColorMatrix type="matrix" values="0 0 0 0 0.0313726 0 0 0 0 0.0156863 0 0 0 0 0.00784314 0 0 0 0.08 0"/>
<feBlend mode="normal" in2="BackgroundImageFix" result="effect1_dropShadow_272_1706"/>
<feColorMatrix in="SourceAlpha" type="matrix" values="0 0 0 0 0 0 0 0 0 0 0 0 0 0 0 0 0 0 127 0" result="hardAlpha"/>
<feMorphology radius="0.365298" operator="dilate" in="SourceAlpha" result="effect2_dropShadow_272_1706"/>
<feOffset dy="1.46119"/>
<feGaussianBlur stdDeviation="1.46119"/>
<feComposite in2="hardAlpha" operator="out"/>
<feColorMatrix type="matrix" values="0 0 0 0 0.0313726 0 0 0 0 0.014902 0 0 0 0 0.00784314 0 0 0 0.16 0"/>
<feBlend mode="normal" in2="effect1_dropShadow_272_1706" result="effect2_dropShadow_272_1706"/>
<feBlend mode="normal" in="SourceGraphic" in2="effect2_dropShadow_272_1706" result="shape"/>
</filter>
<filter id="filter1_dii_272_1706" x="13.9377" y="15.0578" width="122.125" height="89.8998" filterUnits="userSpaceOnUse" color-interpolation-filters="sRGB">
<feFlood flood-opacity="0" result="BackgroundImageFix"/>
<feColorMatrix in="SourceAlpha" type="matrix" values="0 0 0 0 0 0 0 0 0 0 0 0 0 0 0 0 0 0 127 0" result="hardAlpha"/>
<feOffset dy="-1.8322"/>
<feGaussianBlur stdDeviation="3.6644"/>
<feComposite in2="hardAlpha" operator="out"/>
<feColorMatrix type="matrix" values="0 0 0 0 0 0 0 0 0 0.517647 0 0 0 0 0.803922 0 0 0 0.5 0"/>
<feBlend mode="multiply" in2="BackgroundImageFix" result="effect1_dropShadow_272_1706"/>
<feBlend mode="normal" in="SourceGraphic" in2="effect1_dropShadow_272_1706" result="shape"/>
<feColorMatrix in="SourceAlpha" type="matrix" values="0 0 0 0 0 0 0 0 0 0 0 0 0 0 0 0 0 0 127 0" result="hardAlpha"/>
<feOffset dy="-3.6644"/>
<feGaussianBlur stdDeviation="7.3288"/>
<feComposite in2="hardAlpha" operator="arithmetic" k2="-1" k3="1"/>
<feColorMatrix type="matrix" values="0 0 0 0 0.0466319 0 0 0 0 0.440508 0 0 0 0 0.658333 0 0 0 0.3 0"/>
<feBlend mode="multiply" in2="shape" result="effect2_innerShadow_272_1706"/>
<feColorMatrix in="SourceAlpha" type="matrix" values="0 0 0 0 0 0 0 0 0 0 0 0 0 0 0 0 0 0 127 0" result="hardAlpha"/>
<feOffset dy="0.687075"/>
<feGaussianBlur stdDeviation="0.343537"/>
<feComposite in2="hardAlpha" operator="arithmetic" k2="-1" k3="1"/>
<feColorMatrix type="matrix" values="0 0 0 0 1 0 0 0 0 1 0 0 0 0 1 0 0 0 0.2 0"/>
<feBlend mode="normal" in2="effect2_innerShadow_272_1706" result="effect3_innerShadow_272_1706"/>
</filter>
<linearGradient id="paint0_linear_272_1706" x1="75" y1="14.3532" x2="75" y2="104.965" gradientUnits="userSpaceOnUse">
<stop stop-color="#5BB1E0"/>
<stop offset="0.229272" stop-color="#0591DE"/>
</linearGradient>
<radialGradient id="paint1_radial_272_1706" cx="0" cy="0" r="1" gradientUnits="userSpaceOnUse" gradientTransform="translate(128.733 104.965) rotate(-138.191) scale(144.179 191.173)">
<stop stop-color="#0164E3"/>
<stop offset="1" stop-color="#3394F0"/>
</radialGradient>
<radialGradient id="paint2_radial_272_1706" cx="0" cy="0" r="1" gradientUnits="userSpaceOnUse" gradientTransform="translate(128.733 99.4611) rotate(-145.002) scale(131.189 164.472)">
<stop stop-color="#0164E3"/>
<stop offset="1" stop-color="#3394F0"/>
</radialGradient>
</defs>
</svg>
