<svg width="416" height="80" viewBox="0 0 416 80" fill="none" xmlns="http://www.w3.org/2000/svg">
<g filter="url(#filter0_dd_272_1695)">
<mask id="mask0_272_1695" style="mask-type:alpha" maskUnits="userSpaceOnUse" x="3" y="2" width="87" height="73">
<path d="M13.6131 74.984H78.9869C82.7018 74.984 84.5593 74.984 85.9782 74.261C87.2263 73.6251 88.2411 72.6103 88.877 71.3622C89.6 69.9433 89.6 68.0858 89.6 64.3709V19.6337C89.6 15.9187 89.6 14.0613 88.877 12.6424C88.2411 11.3942 87.2263 10.3795 85.9782 9.74355C84.5593 9.02057 82.7018 9.02057 78.9869 9.02057H43.1216C41.1409 9.02057 38.6073 8.83632 36.1199 6.9477C33.6324 5.05908 35.7514 6.67132 33.1257 4.64451C30.5001 2.6177 29.1611 2.20312 26.8611 2.20312H13.6131C9.89817 2.20312 8.0407 2.20313 6.62179 2.9261C5.37367 3.56205 4.35892 4.5768 3.72297 5.82491C3 7.24383 3 9.1013 3 12.8162V64.3709C3 68.0858 3 69.9433 3.72297 71.3622C4.35892 72.6103 5.37367 73.6251 6.62179 74.261C8.0407 74.984 9.89817 74.984 13.6131 74.984Z" fill="url(#paint0_linear_272_1695)"/>
</mask>
<g mask="url(#mask0_272_1695)">
<path d="M13.6131 74.984H78.9869C82.7018 74.984 84.5593 74.984 85.9782 74.261C87.2263 73.6251 88.2411 72.6103 88.877 71.3622C89.6 69.9433 89.6 68.0858 89.6 64.3709V19.6337C89.6 15.9187 89.6 14.0613 88.877 12.6424C88.2411 11.3942 87.2263 10.3795 85.9782 9.74355C84.5593 9.02057 82.7018 9.02057 78.9869 9.02057H43.1216C41.1409 9.02057 38.6073 8.83632 36.1199 6.9477C33.6324 5.05908 35.7514 6.67132 33.1257 4.64451C30.5001 2.6177 29.1611 2.20312 26.8611 2.20312H13.6131C9.89817 2.20312 8.0407 2.20313 6.62179 2.9261C5.37367 3.56205 4.35892 4.5768 3.72297 5.82491C3 7.24383 3 9.1013 3 12.8162V64.3709C3 68.0858 3 69.9433 3.72297 71.3622C4.35892 72.6103 5.37367 73.6251 6.62179 74.261C8.0407 74.984 9.89817 74.984 13.6131 74.984Z" fill="url(#paint1_radial_272_1695)"/>
<g filter="url(#filter1_dii_272_1695)">
<rect x="3" y="14.5488" width="86.6" height="60.4358" rx="6.63319" fill="url(#paint2_radial_272_1695)"/>
</g>
<g style="mix-blend-mode:hard-light">
<path d="M35.6704 61.7444C33.8131 61.7444 32.0308 61.4298 30.3233 60.8008C28.6158 60.1417 27.0881 59.1682 25.7401 57.8801C24.422 56.562 23.3736 54.9294 22.5947 52.9823C21.8159 51.0352 21.4264 48.7436 21.4264 46.1074C21.4264 43.5312 21.8159 41.2696 22.5947 39.3225C23.3736 37.3753 24.437 35.7577 25.785 34.4696C27.133 33.1516 28.6608 32.163 30.3682 31.504C32.0757 30.845 33.8431 30.5155 35.6704 30.5155C37.5277 30.5155 39.2951 30.845 40.9726 31.504C42.6801 32.1331 44.2078 33.0917 45.5558 34.3797C46.9038 35.6678 47.9673 37.3004 48.7461 39.2775C49.525 41.2246 49.9144 43.5013 49.9144 46.1074C49.9144 48.7136 49.525 50.9902 48.7461 52.9374C47.9673 54.8845 46.9038 56.5171 45.5558 57.8351C44.2378 59.1232 42.725 60.0968 41.0175 60.7558C39.31 61.4149 37.5277 61.7444 35.6704 61.7444ZM35.6704 59.1382C37.1982 59.1382 38.4114 58.5691 39.31 57.4307C40.2387 56.2924 40.9127 54.7497 41.3321 52.8026C41.7514 50.8255 41.9611 48.5938 41.9611 46.1074C41.9611 43.6211 41.7514 41.4044 41.3321 39.4573C40.9127 37.5101 40.2387 35.9674 39.31 34.8291C38.4114 33.6908 37.1982 33.1216 35.6704 33.1216C34.1726 33.1216 32.9594 33.6908 32.0308 34.8291C31.1021 35.9674 30.4281 37.5101 30.0088 39.4573C29.5894 41.4044 29.3797 43.6211 29.3797 46.1074C29.3797 48.5938 29.5894 50.8255 30.0088 52.8026C30.4281 54.7497 31.1021 56.2924 32.0308 57.4307C32.9594 58.5691 34.1726 59.1382 35.6704 59.1382ZM51.8679 33.7956V31.3692H75.0987L75.4132 39.0978H71.6837L70.785 33.8855H62.9666C62.9366 35.593 62.9067 37.3154 62.8767 39.0529C62.8767 40.7903 62.8767 42.5427 62.8767 44.3101H67.8643L68.4035 40.8053H71.0097V50.9153H68.4035L67.8194 46.9612H62.8767C62.8767 48.9682 62.8767 50.8854 62.8767 52.7127C62.9067 54.51 62.9366 56.2924 62.9666 58.0598L66.9657 58.4642V60.8906H51.8679V58.4642L55.238 58.1047C55.2979 56.2774 55.3278 54.4352 55.3278 52.5779C55.3278 50.7206 55.3278 48.8484 55.3278 46.9612V45.2986C55.3278 43.4414 55.3278 41.5841 55.3278 39.7269C55.3278 37.8396 55.2979 35.9824 55.238 34.1551L51.8679 33.7956Z" fill="#F9F9F9" fill-opacity="0.97"/>
</g>
</g>
</g>
<path d="M125.173 59.1341C123.035 59.1341 120.953 58.7286 118.925 57.9176C116.898 57.0698 115.073 55.835 113.451 54.2131C111.83 52.5912 110.539 50.5823 109.581 48.1863C108.659 45.7534 108.199 42.952 108.199 39.7819C108.199 36.7593 108.678 34.05 109.636 31.654C110.595 29.258 111.866 27.2306 113.451 25.5719C115.073 23.9131 116.898 22.6598 118.925 21.812C120.953 20.9274 123.035 20.485 125.173 20.485C127.311 20.485 129.375 20.9089 131.366 21.7567C133.393 22.5677 135.2 23.7841 136.785 25.406C138.407 27.0279 139.697 29.0368 140.655 31.4328C141.613 33.8288 142.093 36.6118 142.093 39.7819C142.093 42.8045 141.613 45.5138 140.655 47.9098C139.734 50.3058 138.462 52.3516 136.84 54.0472C135.255 55.706 133.449 56.9777 131.421 57.8624C129.394 58.7102 127.311 59.1341 125.173 59.1341ZM125.173 56.3695C127.09 56.3695 128.73 55.9087 130.094 54.9872C131.495 54.0288 132.619 52.7755 133.467 51.2273C134.352 49.6423 134.997 47.8729 135.402 45.9193C135.808 43.9288 136.011 41.883 136.011 39.7819C136.011 37.7177 135.808 35.7087 135.402 33.7551C134.997 31.7646 134.352 29.9768 133.467 28.3918C132.619 26.8067 131.495 25.5534 130.094 24.6319C128.73 23.7104 127.09 23.2496 125.173 23.2496C123.257 23.2496 121.598 23.7104 120.197 24.6319C118.833 25.5534 117.709 26.8067 116.824 28.3918C115.94 29.9768 115.276 31.7646 114.834 33.7551C114.428 35.7087 114.226 37.7177 114.226 39.7819C114.226 41.883 114.428 43.9288 114.834 45.9193C115.276 47.8729 115.94 49.6423 116.824 51.2273C117.709 52.7755 118.833 54.0288 120.197 54.9872C121.598 55.9087 123.257 56.3695 125.173 56.3695ZM146.352 58.3047V56.3142L150.443 55.5401C150.48 54.1394 150.499 52.6281 150.499 51.0062C150.536 49.3843 150.554 47.9467 150.554 46.6934V44.0394C150.554 42.5281 150.536 41.2748 150.499 40.2795C150.499 39.2843 150.462 38.2337 150.388 37.1279L146.02 36.6303V34.695L153.761 31.3222L154.59 31.8752L155.033 36.2985C156.397 34.8241 157.963 33.6261 159.732 32.7045C161.502 31.783 163.234 31.3222 164.93 31.3222C167.326 31.3222 169.095 32.1332 170.238 33.7551C171.418 35.3401 172.007 37.9388 172.007 41.5512V46.6934C172.007 47.9467 172.007 49.3843 172.007 51.0062C172.044 52.6281 172.081 54.1394 172.118 55.5401L175.988 56.3142V58.3047H163.161V56.3142L167.252 55.5401C167.289 54.1762 167.307 52.6833 167.307 51.0614C167.344 49.4027 167.363 47.9467 167.363 46.6934V41.9936C167.363 39.4501 166.994 37.6992 166.257 36.7408C165.557 35.7825 164.395 35.3033 162.774 35.3033C161.52 35.3033 160.304 35.5613 159.124 36.0773C157.945 36.5934 156.655 37.4412 155.254 38.6208V46.6934C155.254 47.9098 155.254 49.3474 155.254 51.0062C155.291 52.6281 155.328 54.1394 155.364 55.5401L159.18 56.3142V58.3047H146.352ZM191.992 33.8657C190.96 33.8657 189.91 34.1606 188.841 34.7503C187.809 35.3401 186.905 36.2801 186.131 37.5702C185.394 38.8604 184.915 40.5744 184.694 42.7124H194.757C196.084 42.7124 196.95 42.4359 197.356 41.883C197.798 41.3301 198.019 40.6481 198.019 39.8372C198.019 38.7682 197.743 37.7914 197.19 36.9067C196.674 35.9852 195.955 35.248 195.033 34.695C194.149 34.1421 193.135 33.8657 191.992 33.8657ZM191.937 59.0235C188.214 59.0235 185.228 57.8255 182.98 55.4295C180.731 52.9967 179.607 49.6607 179.607 45.4217C179.607 42.5834 180.178 40.1137 181.321 38.0126C182.501 35.9115 184.049 34.2711 185.965 33.0916C187.919 31.912 190.039 31.3222 192.324 31.3222C194.241 31.3222 195.973 31.7461 197.521 32.594C199.07 33.4418 200.304 34.6582 201.226 36.2432C202.148 37.7914 202.608 39.6897 202.608 41.9383C202.608 42.5649 202.571 43.1547 202.498 43.7076C202.424 44.2237 202.332 44.666 202.221 45.0346H184.583C184.657 48.4259 185.505 51.0062 187.127 52.7755C188.748 54.5448 190.886 55.4295 193.54 55.4295C195.31 55.4295 196.784 55.0793 197.964 54.379C199.143 53.6417 200.231 52.7018 201.226 51.5591L202.553 52.6096C201.521 54.5633 200.12 56.1299 198.351 57.3094C196.582 58.4521 194.444 59.0235 191.937 59.0235ZM219.537 23.5814V21.3144H247.072L247.459 31.1011H244.307L243.091 24.079H230.097C230.061 26.4381 230.024 28.7972 229.987 31.1564C229.987 33.5155 229.987 35.8377 229.987 38.1231H238.557L239.331 32.8704H241.875V46.4722H239.331L238.557 40.7219H229.987C229.987 43.4496 229.987 46.0115 229.987 48.4074C230.024 50.8034 230.061 53.1441 230.097 55.4295L235.24 56.0377V58.3047H219.537V56.0377L224.624 55.4295C224.697 53.1072 224.734 50.7481 224.734 48.3521C224.734 45.9562 224.734 43.5602 224.734 41.1642V38.4549C224.734 36.0589 224.734 33.6814 224.734 31.3222C224.734 28.9263 224.697 26.5487 224.624 24.1896L219.537 23.5814ZM261.453 59.0235C259.315 59.0235 257.269 58.5259 255.315 57.5306C253.399 56.4985 251.832 54.9687 250.616 52.9414C249.399 50.8771 248.791 48.3337 248.791 45.3111C248.791 42.2516 249.399 39.6897 250.616 37.6255C251.832 35.5244 253.399 33.9578 255.315 32.9257C257.269 31.8567 259.315 31.3222 261.453 31.3222C263.591 31.3222 265.618 31.8567 267.535 32.9257C269.488 33.9578 271.074 35.5244 272.29 37.6255C273.543 39.6897 274.17 42.2516 274.17 45.3111C274.17 48.3337 273.543 50.8771 272.29 52.9414C271.074 54.9687 269.488 56.4985 267.535 57.5306C265.618 58.5259 263.591 59.0235 261.453 59.0235ZM261.453 56.5353C263.849 56.5353 265.692 55.5954 266.982 53.7155C268.272 51.7987 268.917 48.9972 268.917 45.3111C268.917 41.5881 268.272 38.7498 266.982 36.7961C265.692 34.8425 263.849 33.8657 261.453 33.8657C259.057 33.8657 257.214 34.8425 255.924 36.7961C254.67 38.7498 254.044 41.5881 254.044 45.3111C254.044 48.9972 254.67 51.7987 255.924 53.7155C257.214 55.5954 259.057 56.5353 261.453 56.5353ZM276.938 58.3047V56.3142L281.361 55.5401C281.398 54.0288 281.417 52.5543 281.417 51.1167C281.453 49.6423 281.472 48.1678 281.472 46.6934V22.4202L276.938 21.8673V19.9321L285.563 17.444L286.338 17.8863L286.116 25.7378V46.6934C286.116 48.1678 286.116 49.6423 286.116 51.1167C286.153 52.5912 286.19 54.0656 286.227 55.5401L290.65 56.3142V58.3047H276.938ZM298.936 45.3111C298.936 48.9235 299.655 51.5959 301.092 53.3284C302.567 55.024 304.41 55.8718 306.621 55.8718C307.838 55.8718 308.907 55.6322 309.828 55.153C310.787 54.637 311.782 53.8076 312.814 52.6649V37.3491C311.561 36.2432 310.437 35.4876 309.441 35.0821C308.446 34.6766 307.488 34.4739 306.566 34.4739C305.202 34.4739 303.931 34.8609 302.751 35.635C301.608 36.3722 300.687 37.5518 299.986 39.1737C299.286 40.7587 298.936 42.8045 298.936 45.3111ZM313.367 58.8576L312.98 55.0425C312.022 56.2957 310.916 57.2726 309.663 57.9729C308.446 58.6733 306.972 59.0235 305.239 59.0235C302.991 59.0235 301.019 58.4521 299.323 57.3094C297.627 56.1667 296.3 54.5817 295.342 52.5543C294.42 50.4901 293.96 48.1125 293.96 45.4217C293.96 42.5834 294.476 40.1137 295.508 38.0126C296.54 35.9115 297.941 34.2711 299.71 33.0916C301.479 31.912 303.488 31.3222 305.737 31.3222C307.027 31.3222 308.262 31.5803 309.441 32.0963C310.658 32.6124 311.837 33.5523 312.98 34.9162V22.4202L308.28 21.8673V19.9321L316.906 17.444L317.68 17.8863L317.459 25.7378V55.6507L321.937 56.3142V58.3047L313.367 58.8576ZM337.164 33.8657C336.132 33.8657 335.081 34.1606 334.012 34.7503C332.98 35.3401 332.077 36.2801 331.303 37.5702C330.566 38.8604 330.086 40.5744 329.865 42.7124H339.928C341.255 42.7124 342.122 42.4359 342.527 41.883C342.969 41.3301 343.191 40.6481 343.191 39.8372C343.191 38.7682 342.914 37.7914 342.361 36.9067C341.845 35.9852 341.126 35.248 340.205 34.695C339.32 34.1421 338.306 33.8657 337.164 33.8657ZM337.108 59.0235C333.385 59.0235 330.4 57.8255 328.151 55.4295C325.903 52.9967 324.778 49.6607 324.778 45.4217C324.778 42.5834 325.35 40.1137 326.492 38.0126C327.672 35.9115 329.22 34.2711 331.137 33.0916C333.091 31.912 335.21 31.3222 337.496 31.3222C339.412 31.3222 341.145 31.7461 342.693 32.594C344.241 33.4418 345.476 34.6582 346.398 36.2432C347.319 37.7914 347.78 39.6897 347.78 41.9383C347.78 42.5649 347.743 43.1547 347.669 43.7076C347.596 44.2237 347.503 44.666 347.393 45.0346H329.755C329.828 48.4259 330.676 51.0062 332.298 52.7755C333.92 54.5448 336.058 55.4295 338.712 55.4295C340.481 55.4295 341.956 55.0793 343.135 54.379C344.315 53.6417 345.402 52.7018 346.398 51.5591L347.725 52.6096C346.692 54.5633 345.292 56.1299 343.522 57.3094C341.753 58.4521 339.615 59.0235 337.108 59.0235ZM352.246 58.3047V56.3142L356.227 55.5954C356.263 54.1947 356.282 52.6833 356.282 51.0614C356.319 49.4027 356.337 47.9467 356.337 46.6934V44.0394C356.337 42.5281 356.319 41.2748 356.282 40.2795C356.282 39.2843 356.245 38.2337 356.171 37.1279L351.803 36.6303V34.695L359.544 31.3222L360.373 31.8752L360.982 38.3996C361.903 36.1879 363.083 34.4554 364.52 33.2022C365.995 31.9489 367.469 31.3222 368.944 31.3222C369.791 31.3222 370.584 31.5065 371.321 31.8752C372.058 32.2438 372.593 32.7414 372.925 33.368C372.925 36.0589 371.837 37.4043 369.662 37.4043C369.036 37.4043 368.446 37.2938 367.893 37.0726C367.34 36.8146 366.806 36.4644 366.29 36.022L365.626 35.4138C364.52 36.2248 363.599 37.22 362.862 38.3996C362.124 39.5792 361.516 40.9615 361.037 42.5465V46.6934C361.037 47.9098 361.037 49.329 361.037 50.9509C361.074 52.5728 361.111 54.0841 361.148 55.4848L365.681 56.3142V58.3047H352.246Z" fill="white"/>
<defs>
<filter id="filter0_dd_272_1695" x="0.354989" y="0.733674" width="91.89" height="78.9529" filterUnits="userSpaceOnUse" color-interpolation-filters="sRGB">
<feFlood flood-opacity="0" result="BackgroundImageFix"/>
<feColorMatrix in="SourceAlpha" type="matrix" values="0 0 0 0 0 0 0 0 0 0 0 0 0 0 0 0 0 0 127 0" result="hardAlpha"/>
<feMorphology radius="0.58778" operator="erode" in="SourceAlpha" result="effect1_dropShadow_272_1695"/>
<feOffset dy="2.35112"/>
<feGaussianBlur stdDeviation="1.46945"/>
<feComposite in2="hardAlpha" operator="out"/>
<feColorMatrix type="matrix" values="0 0 0 0 0.0313726 0 0 0 0 0.0156863 0 0 0 0 0.00784314 0 0 0 0.08 0"/>
<feBlend mode="normal" in2="BackgroundImageFix" result="effect1_dropShadow_272_1695"/>
<feColorMatrix in="SourceAlpha" type="matrix" values="0 0 0 0 0 0 0 0 0 0 0 0 0 0 0 0 0 0 127 0" result="hardAlpha"/>
<feMorphology radius="0.29389" operator="dilate" in="SourceAlpha" result="effect2_dropShadow_272_1695"/>
<feOffset dy="1.17556"/>
<feGaussianBlur stdDeviation="1.17556"/>
<feComposite in2="hardAlpha" operator="out"/>
<feColorMatrix type="matrix" values="0 0 0 0 0.0313726 0 0 0 0 0.014902 0 0 0 0 0.00784314 0 0 0 0.16 0"/>
<feBlend mode="normal" in2="effect1_dropShadow_272_1695" result="effect2_dropShadow_272_1695"/>
<feBlend mode="normal" in="SourceGraphic" in2="effect2_dropShadow_272_1695" result="shape"/>
</filter>
<filter id="filter1_dii_272_1695" x="-2.89617" y="7.17861" width="98.3923" height="72.2279" filterUnits="userSpaceOnUse" color-interpolation-filters="sRGB">
<feFlood flood-opacity="0" result="BackgroundImageFix"/>
<feColorMatrix in="SourceAlpha" type="matrix" values="0 0 0 0 0 0 0 0 0 0 0 0 0 0 0 0 0 0 127 0" result="hardAlpha"/>
<feOffset dy="-1.47404"/>
<feGaussianBlur stdDeviation="2.94809"/>
<feComposite in2="hardAlpha" operator="out"/>
<feColorMatrix type="matrix" values="0 0 0 0 0 0 0 0 0 0.517647 0 0 0 0 0.803922 0 0 0 0.5 0"/>
<feBlend mode="multiply" in2="BackgroundImageFix" result="effect1_dropShadow_272_1695"/>
<feBlend mode="normal" in="SourceGraphic" in2="effect1_dropShadow_272_1695" result="shape"/>
<feColorMatrix in="SourceAlpha" type="matrix" values="0 0 0 0 0 0 0 0 0 0 0 0 0 0 0 0 0 0 127 0" result="hardAlpha"/>
<feOffset dy="-2.94809"/>
<feGaussianBlur stdDeviation="5.89617"/>
<feComposite in2="hardAlpha" operator="arithmetic" k2="-1" k3="1"/>
<feColorMatrix type="matrix" values="0 0 0 0 0.0466319 0 0 0 0 0.440508 0 0 0 0 0.658333 0 0 0 0.3 0"/>
<feBlend mode="multiply" in2="shape" result="effect2_innerShadow_272_1695"/>
<feColorMatrix in="SourceAlpha" type="matrix" values="0 0 0 0 0 0 0 0 0 0 0 0 0 0 0 0 0 0 127 0" result="hardAlpha"/>
<feOffset dy="0.552766"/>
<feGaussianBlur stdDeviation="0.276383"/>
<feComposite in2="hardAlpha" operator="arithmetic" k2="-1" k3="1"/>
<feColorMatrix type="matrix" values="0 0 0 0 1 0 0 0 0 1 0 0 0 0 1 0 0 0 0.2 0"/>
<feBlend mode="normal" in2="effect2_innerShadow_272_1695" result="effect3_innerShadow_272_1695"/>
</filter>
<linearGradient id="paint0_linear_272_1695" x1="46.3" y1="6.62525" x2="46.3" y2="79.4061" gradientUnits="userSpaceOnUse">
<stop stop-color="#5BB1E0"/>
<stop offset="0.229272" stop-color="#0591DE"/>
</linearGradient>
<radialGradient id="paint1_radial_272_1695" cx="0" cy="0" r="1" gradientUnits="userSpaceOnUse" gradientTransform="translate(89.6 79.4062) rotate(-138.283) scale(116.017 153.775)">
<stop stop-color="#0164E3"/>
<stop offset="1" stop-color="#3394F0"/>
</radialGradient>
<radialGradient id="paint2_radial_272_1695" cx="0" cy="0" r="1" gradientUnits="userSpaceOnUse" gradientTransform="translate(89.6 74.9847) rotate(-145.09) scale(105.603 132.247)">
<stop stop-color="#0164E3"/>
<stop offset="1" stop-color="#3394F0"/>
</radialGradient>
</defs>
</svg>
