<svg width="150" height="151" viewBox="0 0 150 151" fill="none" xmlns="http://www.w3.org/2000/svg">
<g filter="url(#filter0_dd_272_1753)">
<mask id="mask0_272_1753" style="mask-type:alpha" maskUnits="userSpaceOnUse" x="6" y="13" width="138" height="117">
<path d="M22.9123 129.872H127.088C133.008 129.872 135.967 129.872 138.229 128.72C140.217 127.706 141.835 126.089 142.848 124.1C144 121.839 144 118.879 144 112.959V41.6696C144 35.7497 144 32.7898 142.848 30.5287C141.835 28.5398 140.217 26.9228 138.229 25.9094C135.967 24.7573 133.008 24.7573 127.088 24.7573H69.9351C66.7787 24.7573 62.7415 24.4637 58.7777 21.4542C54.8138 18.4446 58.1904 21.0137 54.0064 17.784C49.8223 14.5542 47.6887 13.8936 44.0234 13.8936H22.9123C16.9925 13.8936 14.0325 13.8936 11.7714 15.0456C9.78252 16.059 8.16549 17.6761 7.15208 19.665C6 21.926 6 24.886 6 30.8058V112.959C6 118.879 6 121.839 7.15208 124.1C8.16549 126.089 9.78252 127.706 11.7714 128.72C14.0325 129.872 16.9925 129.872 22.9123 129.872Z" fill="url(#paint0_linear_272_1753)"/>
</mask>
<g mask="url(#mask0_272_1753)">
<path d="M22.9123 129.872H127.088C133.008 129.872 135.967 129.872 138.229 128.72C140.217 127.706 141.835 126.089 142.848 124.1C144 121.839 144 118.879 144 112.959V41.6696C144 35.7497 144 32.7898 142.848 30.5287C141.835 28.5398 140.217 26.9228 138.229 25.9094C135.967 24.7573 133.008 24.7573 127.088 24.7573H69.9351C66.7787 24.7573 62.7415 24.4637 58.7777 21.4542C54.8138 18.4446 58.1904 21.0137 54.0064 17.784C49.8223 14.5542 47.6887 13.8936 44.0234 13.8936H22.9123C16.9925 13.8936 14.0325 13.8936 11.7714 15.0456C9.78252 16.059 8.16549 17.6761 7.15208 19.665C6 21.926 6 24.886 6 30.8058V112.959C6 118.879 6 121.839 7.15208 124.1C8.16549 126.089 9.78252 127.706 11.7714 128.72C14.0325 129.872 16.9925 129.872 22.9123 129.872Z" fill="url(#paint1_radial_272_1753)"/>
<g filter="url(#filter1_dii_272_1753)">
<rect x="6" y="33.5674" width="138" height="96.3059" rx="10.5702" fill="url(#paint2_radial_272_1753)"/>
</g>
<g style="mix-blend-mode:hard-light">
<path d="M58.0614 109.593C55.1018 109.593 52.2616 109.092 49.5406 108.089C46.8197 107.039 44.3852 105.488 42.2371 103.435C40.1368 101.335 38.466 98.7331 37.2249 95.6303C35.9838 92.5275 35.3632 88.8757 35.3632 84.675C35.3632 80.5697 35.9838 76.9657 37.2249 73.8629C38.466 70.7601 40.1606 68.1824 42.3087 66.1298C44.4568 64.0294 46.8913 62.4542 49.6122 61.404C52.3332 60.3538 55.1495 59.8287 58.0614 59.8287C61.021 59.8287 63.8374 60.3538 66.5106 61.404C69.2315 62.4064 71.666 63.934 73.8141 65.9866C75.9622 68.0392 77.6568 70.6408 78.8979 73.7913C80.139 76.8941 80.7596 80.522 80.7596 84.675C80.7596 88.828 80.139 92.4559 78.8979 95.5587C77.6568 98.6615 75.9622 101.263 73.8141 103.363C71.7137 105.416 69.3031 106.967 66.5822 108.018C63.8613 109.068 61.021 109.593 58.0614 109.593ZM58.0614 105.44C60.4959 105.44 62.4292 104.533 63.8613 102.719C65.3411 100.905 66.4151 98.4467 67.0834 95.3439C67.7517 92.1933 68.0858 88.637 68.0858 84.675C68.0858 80.713 67.7517 77.1805 67.0834 74.0777C66.4151 70.9749 65.3411 68.5166 63.8613 66.7026C62.4292 64.8887 60.4959 63.9817 58.0614 63.9817C55.6746 63.9817 53.7414 64.8887 52.2616 66.7026C50.7818 68.5166 49.7077 70.9749 49.0394 74.0777C48.3711 77.1805 48.037 80.713 48.037 84.675C48.037 88.637 48.3711 92.1933 49.0394 95.3439C49.7077 98.4467 50.7818 100.905 52.2616 102.719C53.7414 104.533 55.6746 105.44 58.0614 105.44ZM83.8727 65.0557V61.1892H120.891L121.393 73.5049H115.45L114.018 65.1989H101.559C101.511 67.9199 101.463 70.6647 101.415 73.4333C101.415 76.202 101.415 78.9945 101.415 81.8109H109.363L110.223 76.2258H114.376V92.3365H110.223L109.292 86.0355H101.415C101.415 89.2337 101.415 92.2888 101.415 95.2007C101.463 98.0648 101.511 100.905 101.559 103.721L107.931 104.366V108.232H83.8727V104.366L89.2429 103.793C89.3384 100.881 89.3861 97.9454 89.3861 94.9858C89.3861 92.0262 89.3861 89.0428 89.3861 86.0355V83.3861C89.3861 80.4265 89.3861 77.4669 89.3861 74.5074C89.3861 71.5 89.3384 68.5404 89.2429 65.6286L83.8727 65.0557Z" fill="#F9F9F9" fill-opacity="0.97"/>
</g>
</g>
</g>
<defs>
<filter id="filter0_dd_272_1753" x="-4.2149" y="-1.93536" width="158.43" height="159.835" filterUnits="userSpaceOnUse" color-interpolation-filters="sRGB">
<feFlood flood-opacity="0" result="BackgroundImageFix"/>
<feColorMatrix in="SourceAlpha" type="matrix" values="0 0 0 0 0 0 0 0 0 0 0 0 0 0 0 0 0 0 127 0" result="hardAlpha"/>
<feMorphology radius="0.936645" operator="erode" in="SourceAlpha" result="effect1_dropShadow_272_1753"/>
<feOffset dy="3.74658"/>
<feGaussianBlur stdDeviation="2.34161"/>
<feComposite in2="hardAlpha" operator="out"/>
<feColorMatrix type="matrix" values="0 0 0 0 0.0313726 0 0 0 0 0.0156863 0 0 0 0 0.00784314 0 0 0 0.08 0"/>
<feBlend mode="normal" in2="BackgroundImageFix" result="effect1_dropShadow_272_1753"/>
<feColorMatrix in="SourceAlpha" type="matrix" values="0 0 0 0 0 0 0 0 0 0 0 0 0 0 0 0 0 0 127 0" result="hardAlpha"/>
<feMorphology radius="0.468322" operator="dilate" in="SourceAlpha" result="effect2_dropShadow_272_1753"/>
<feOffset dy="1.87329"/>
<feGaussianBlur stdDeviation="1.87329"/>
<feComposite in2="hardAlpha" operator="out"/>
<feColorMatrix type="matrix" values="0 0 0 0 0.0313726 0 0 0 0 0.014902 0 0 0 0 0.00784314 0 0 0 0.16 0"/>
<feBlend mode="normal" in2="effect1_dropShadow_272_1753" result="effect2_dropShadow_272_1753"/>
<feBlend mode="normal" in="SourceGraphic" in2="effect2_dropShadow_272_1753" result="shape"/>
</filter>
<filter id="filter1_dii_272_1753" x="-3.39572" y="21.8227" width="156.791" height="115.097" filterUnits="userSpaceOnUse" color-interpolation-filters="sRGB">
<feFlood flood-opacity="0" result="BackgroundImageFix"/>
<feColorMatrix in="SourceAlpha" type="matrix" values="0 0 0 0 0 0 0 0 0 0 0 0 0 0 0 0 0 0 127 0" result="hardAlpha"/>
<feOffset dy="-2.34893"/>
<feGaussianBlur stdDeviation="4.69786"/>
<feComposite in2="hardAlpha" operator="out"/>
<feColorMatrix type="matrix" values="0 0 0 0 0 0 0 0 0 0.517647 0 0 0 0 0.803922 0 0 0 0.5 0"/>
<feBlend mode="multiply" in2="BackgroundImageFix" result="effect1_dropShadow_272_1753"/>
<feBlend mode="normal" in="SourceGraphic" in2="effect1_dropShadow_272_1753" result="shape"/>
<feColorMatrix in="SourceAlpha" type="matrix" values="0 0 0 0 0 0 0 0 0 0 0 0 0 0 0 0 0 0 127 0" result="hardAlpha"/>
<feOffset dy="-4.69786"/>
<feGaussianBlur stdDeviation="9.39572"/>
<feComposite in2="hardAlpha" operator="arithmetic" k2="-1" k3="1"/>
<feColorMatrix type="matrix" values="0 0 0 0 0.0466319 0 0 0 0 0.440508 0 0 0 0 0.658333 0 0 0 0.3 0"/>
<feBlend mode="multiply" in2="shape" result="effect2_innerShadow_272_1753"/>
<feColorMatrix in="SourceAlpha" type="matrix" values="0 0 0 0 0 0 0 0 0 0 0 0 0 0 0 0 0 0 127 0" result="hardAlpha"/>
<feOffset dy="0.880849"/>
<feGaussianBlur stdDeviation="0.440424"/>
<feComposite in2="hardAlpha" operator="arithmetic" k2="-1" k3="1"/>
<feColorMatrix type="matrix" values="0 0 0 0 1 0 0 0 0 1 0 0 0 0 1 0 0 0 0.2 0"/>
<feBlend mode="normal" in2="effect2_innerShadow_272_1753" result="effect3_innerShadow_272_1753"/>
</filter>
<linearGradient id="paint0_linear_272_1753" x1="75" y1="20.9403" x2="75" y2="136.918" gradientUnits="userSpaceOnUse">
<stop stop-color="#5BB1E0"/>
<stop offset="0.229272" stop-color="#0591DE"/>
</linearGradient>
<radialGradient id="paint1_radial_272_1753" cx="0" cy="0" r="1" gradientUnits="userSpaceOnUse" gradientTransform="translate(144 136.919) rotate(-138.283) scale(184.876 245.044)">
<stop stop-color="#0164E3"/>
<stop offset="1" stop-color="#3394F0"/>
</radialGradient>
<radialGradient id="paint2_radial_272_1753" cx="0" cy="0" r="1" gradientUnits="userSpaceOnUse" gradientTransform="translate(144 129.873) rotate(-145.09) scale(168.282 210.74)">
<stop stop-color="#0164E3"/>
<stop offset="1" stop-color="#3394F0"/>
</radialGradient>
</defs>
</svg>
